<?xml version="1.0" encoding="UTF-8"?>
<svg id="Capa_1" xmlns="http://www.w3.org/2000/svg" viewBox="0 0 212.27 116.7">
  <defs>
    <style>
      .cls-1 {
        fill: #d24a3c;
      }

      .cls-2 {
        fill: #010101;
      }

      .cls-3 {
        fill: #82c4d5;
      }
    </style>
  </defs>
  <path class="cls-2" d="M75.15,44.99c0-10.5-15.69-19.06-35.7-19.5-.37,0-.67-.3-.67-.67l-.21-10.96c0-.43.33-.78.76-.78h3.93c.42,0,.76.34.76.76v.5c0,.42.34.76.76.76h4.95c.42,0,.76.34.76.76v.64c0,.42.34.76.76.76h4.95c.42,0,.76-.34.76-.76v-2.8c0-.42-.34-.76-.76-.76h-4.95c-.42,0-.76-.34-.76-.76v-.63c0-.42-.34-.76-.76-.76h-4.95c-.42,0-.76-.34-.76-.76v-.63c0-.42-.34-.76-.76-.76h-4.04c-.42,0-.75-.33-.76-.75l-.05-2.8c0-.42.33-.78.76-.78h4.09c.42,0,.76.34.76.76v.64c0,.42.34.76.76.76h4.95c.42,0,.76.34.76.76v.64c0,.42.34.76.76.76h4.95c.42,0,.76-.34.76-.76v-2.8c0-.42-.34-.76-.76-.76h-4.95c-.42,0-.76-.34-.76-.76v-.64c0-.42-.34-.76-.76-.76h-4.95c-.42,0-.76-.34-.76-.76v-.64c0-.42-.34-.76-.76-.76h-5.59c-.52,0-.94.41-.95.93l-.46,23.91c0,.36-.3.65-.66.67C15.89,26.11,0,34.61,0,44.99c0,2.3.77,4.51,2.17,6.55-.24-.86-.36-1.74-.36-2.63,0-10.19,16.01-18.45,35.77-18.45s35.77,8.26,35.77,18.45c0,.89-.12,1.77-.37,2.63,1.41-2.04,2.17-4.25,2.17-6.55"/>
  <path class="cls-2" d="M37.58,38.32c-18.8,0-34.04,7.91-34.04,17.68,0,.52.04,1.02.13,1.53.15.93.44,1.84.86,2.72.16.33.66.22.65-.15,0-.1,0-.2,0-.3,0-.11.1-1.45.23-1.99,1.91-8.29,15.58-14.2,32.18-14.2s30.26,5.91,32.17,14.2c.13.54.23,1.88.23,1.99,0,.1,0,.2,0,.31-.01.37.49.48.65.15.42-.89.71-1.8.87-2.73.09-.51.13-1.01.13-1.53,0-9.77-15.24-17.68-34.04-17.68"/>
  <polygon class="cls-2" points="41.05 5.11 40.78 4.58 40.52 5.11 39.93 5.2 40.35 5.61 40.25 6.2 40.78 5.92 41.31 6.2 41.21 5.61 41.64 5.2 41.05 5.11"/>
  <polygon class="cls-2" points="41.05 7.29 40.78 6.75 40.52 7.29 39.93 7.38 40.35 7.79 40.25 8.38 40.78 8.1 41.31 8.38 41.21 7.79 41.64 7.38 41.05 7.29"/>
  <polygon class="cls-2" points="54 9.39 53.73 8.85 53.47 9.39 52.88 9.47 53.3 9.89 53.2 10.48 53.73 10.2 54.26 10.48 54.16 9.89 54.59 9.47 54 9.39"/>
  <polygon class="cls-2" points="54 11.56 53.73 11.03 53.47 11.56 52.88 11.65 53.3 12.07 53.2 12.65 53.73 12.38 54.26 12.65 54.16 12.07 54.59 11.65 54 11.56"/>
  <polygon class="cls-2" points="47.41 8.36 47.15 7.82 46.88 8.36 46.29 8.44 46.72 8.86 46.62 9.45 47.15 9.17 47.68 9.45 47.57 8.86 48 8.44 47.41 8.36"/>
  <path class="cls-2" d="M31.9,47.52c-1.93.25-3.61.6-4.57.81-.5.11-.85.55-.86,1.05l-.31,11.48c-.01.59-.48,1.06-1.07,1.08l-6.76.26c-.65.03-1.18-.51-1.15-1.16l.42-8.78c.04-.91-.97-1.48-1.73-.97-2.1,1.42-3.71,3.09-4.31,3.75-.17.18-.27.42-.29.66l-4.42,59.79c-.05.64.46,1.19,1.1,1.19l5.48.02c.59,0,1.08-.46,1.11-1.05l.2-4.13c.03-.59.51-1.05,1.1-1.05l8.03-.03c.62,0,1.13.51,1.11,1.13l-.09,4.01c-.01.62.49,1.13,1.11,1.13h5.33c.61,0,1.1-.49,1.11-1.1l.71-66.97c0-.67-.59-1.2-1.25-1.11M13.17,56.75c.02-.24.12-.48.29-.65,0,0,.01-.01.02-.02.71-.75,1.97-.21,1.91.82l-.16,2.84c-.03.57-.5,1.03-1.07,1.04h-.12c-.67.03-1.2-.54-1.14-1.2l.26-2.82ZM12.94,106.77c-.03.59-.51,1.05-1.1,1.05h-1.24c-.65.02-1.16-.52-1.12-1.17l.41-5.94c.04-.57.51-1.02,1.09-1.03h1.12c.64-.02,1.15.51,1.12,1.15l-.29,5.94ZM13.54,94.35c-.03.58-.5,1.04-1.09,1.05l-.94.02c-.65.01-1.17-.54-1.12-1.19l.37-5.06c.04-.57.51-1.01,1.08-1.03h.82c.64-.03,1.16.5,1.13,1.14l-.24,5.06ZM14.1,82.81c-.03.58-.5,1.04-1.08,1.05l-.67.02c-.65.01-1.18-.54-1.13-1.19l.36-5.06c.04-.57.5-1.01,1.07-1.03l.55-.02c.65-.02,1.17.51,1.14,1.16l-.24,5.06ZM14.66,71.28c-.03.58-.49,1.03-1.07,1.05h-.4c-.66.03-1.19-.52-1.14-1.17l.36-5.07c.04-.56.5-1.01,1.07-1.03h.29c.65-.03,1.17.51,1.14,1.15l-.25,5.07ZM25.06,108.28c-.01.6-.5,1.08-1.1,1.08l-7.95.04c-.63,0-1.14-.53-1.11-1.16l.44-9.17c.03-.58.5-1.05,1.09-1.05l7.72-.11c.63,0,1.14.5,1.12,1.13l-.21,9.23ZM25.35,95.76c-.01.6-.5,1.08-1.09,1.08l-7.63.1c-.64,0-1.15-.52-1.12-1.16l.4-8.28c.03-.58.5-1.04,1.08-1.05l7.43-.17c.63-.01,1.15.5,1.13,1.13l-.19,8.35ZM25.62,84.13c-.01.59-.49,1.07-1.08,1.08l-7.34.16c-.64.01-1.16-.52-1.13-1.16l.4-8.29c.03-.58.5-1.04,1.07-1.05l7.14-.22c.63-.02,1.16.5,1.14,1.13l-.19,8.34ZM25.89,72.5c-.01.59-.48,1.06-1.07,1.08l-7.06.22c-.65.02-1.17-.52-1.14-1.16l.4-8.3c.03-.57.49-1.03,1.06-1.05l6.85-.26c.64-.03,1.16.49,1.15,1.13l-.19,8.35ZM30.55,106.62c0,.61-.5,1.09-1.1,1.1h-1.33c-.63.01-1.13-.5-1.11-1.13l.16-6.03c.01-.6.5-1.07,1.1-1.08h1.23c.62-.02,1.12.48,1.12,1.11l-.06,6.03ZM30.67,94.06c0,.6-.49,1.09-1.09,1.1h-1.12c-.63.02-1.14-.5-1.12-1.12l.14-5.14c.02-.59.5-1.06,1.08-1.08l1.03-.02c.63-.01,1.14.49,1.13,1.12l-.05,5.15ZM30.78,82.39c0,.59-.48,1.08-1.08,1.1l-.92.03c-.63.02-1.15-.5-1.14-1.14l.14-5.15c.01-.59.49-1.06,1.08-1.08l.83-.02c.63-.02,1.14.49,1.13,1.12l-.05,5.14ZM30.89,70.72c0,.59-.48,1.08-1.07,1.1l-.72.02c-.64.02-1.16-.5-1.14-1.14l.14-5.14c.02-.59.48-1.05,1.07-1.08l.64-.02c.63-.02,1.16.49,1.15,1.12l-.06,5.14ZM31.01,59.03c0,.59-.47,1.07-1.06,1.1l-.51.02c-.64.03-1.17-.5-1.15-1.14l.14-4.92c.02-.52.39-.96.9-1.06.15-.03.3-.05.45-.08.68-.12,1.31.41,1.3,1.1l-.05,4.98Z"/>
  <path class="cls-2" d="M63.51,55.05c-.6-.66-2.21-2.33-4.31-3.75-.76-.51-1.78.06-1.73.97l.42,8.78c.03.65-.5,1.18-1.15,1.16l-6.76-.26c-.59-.02-1.05-.5-1.07-1.08l-.31-11.47c-.01-.51-.37-.95-.86-1.05-.96-.21-2.64-.56-4.57-.81-.67-.09-1.26.44-1.25,1.11l.71,66.98c0,.61.5,1.1,1.11,1.1h5.33c.62,0,1.12-.51,1.11-1.13l-.09-4.01c-.01-.62.49-1.14,1.11-1.13l8.03.03c.59,0,1.07.46,1.1,1.05l.2,4.13c.03.59.52,1.05,1.11,1.05h5.48c.64-.02,1.15-.56,1.1-1.2l-4.42-59.78c-.02-.25-.12-.48-.29-.66M44.01,54.06c0-.69.62-1.23,1.3-1.1.15.03.3.05.45.08.51.09.88.54.9,1.05l.14,4.93c.02.64-.51,1.16-1.15,1.14l-.51-.02c-.59-.02-1.06-.5-1.06-1.1l-.05-4.98ZM44.12,65.58c0-.63.52-1.14,1.15-1.12l.65.02c.58.02,1.05.49,1.07,1.08l.14,5.15c.02.64-.5,1.16-1.14,1.14l-.72-.02c-.59-.02-1.07-.5-1.07-1.1l-.06-5.14ZM44.24,77.25c0-.63.51-1.14,1.13-1.12l.84.02c.59.01,1.06.49,1.08,1.08l.14,5.15c.01.63-.5,1.15-1.14,1.14l-.92-.03c-.59-.02-1.07-.5-1.08-1.1l-.05-5.14ZM44.35,88.91c0-.63.5-1.13,1.13-1.12l1.03.02c.59.01,1.07.49,1.08,1.08l.14,5.14c.02.63-.49,1.15-1.12,1.14h-1.12c-.6-.02-1.09-.51-1.1-1.11l-.05-5.15ZM46.95,107.72h-1.33c-.61-.01-1.1-.5-1.1-1.11l-.06-6.03c0-.62.5-1.12,1.12-1.12h1.23c.6.02,1.08.5,1.1,1.09l.16,6.03c.02.63-.49,1.14-1.11,1.14M61.59,56.08s.01.01.02.02c.17.18.27.41.29.65l.26,2.82c.06.67-.47,1.23-1.14,1.21h-.12c-.57-.02-1.03-.48-1.07-1.05l-.16-2.84c-.06-1.03,1.2-1.57,1.91-.82M48.98,64.15c-.01-.64.51-1.16,1.15-1.13l6.85.26c.57.02,1.03.48,1.06,1.05l.4,8.3c.03.65-.5,1.18-1.14,1.16l-7.06-.22c-.59-.02-1.06-.49-1.07-1.08l-.19-8.35ZM49.25,75.79c-.01-.64.51-1.15,1.14-1.13l7.14.22c.58.02,1.04.48,1.07,1.05l.4,8.29c.03.64-.49,1.18-1.13,1.16l-7.34-.16c-.59-.01-1.07-.49-1.08-1.08l-.19-8.34ZM49.52,87.41c-.01-.63.5-1.15,1.13-1.13l7.43.17c.58.01,1.05.47,1.08,1.05l.4,8.28c.03.64-.48,1.17-1.12,1.16l-7.64-.1c-.6,0-1.08-.48-1.09-1.08l-.19-8.35ZM59.05,109.4l-7.95-.04c-.6,0-1.09-.48-1.1-1.08l-.21-9.23c-.01-.63.5-1.14,1.12-1.13l7.72.11c.59,0,1.06.47,1.09,1.05l.44,9.17c.03.63-.48,1.16-1.11,1.16M60.41,71.28l-.25-5.07c-.03-.65.5-1.18,1.14-1.16h.29c.57.03,1.03.47,1.07,1.04l.36,5.07c.05.65-.48,1.2-1.14,1.18h-.4c-.58-.03-1.04-.49-1.07-1.07M65.18,100.72l.41,5.94c.05.64-.47,1.19-1.12,1.18h-1.24c-.59-.02-1.07-.48-1.1-1.07l-.29-5.94c-.03-.64.48-1.17,1.12-1.16h1.12c.58.02,1.05.47,1.09,1.05M64.32,89.18l.37,5.06c.05.65-.47,1.2-1.12,1.19l-.94-.02c-.59-.01-1.06-.47-1.09-1.05l-.24-5.06c-.03-.64.49-1.17,1.13-1.16l.82.02c.57.01,1.04.46,1.08,1.03M62.72,83.88l-.67-.02c-.58-.01-1.05-.47-1.08-1.05l-.24-5.06c-.03-.65.5-1.18,1.14-1.16l.55.02c.57.02,1.03.46,1.07,1.03l.36,5.06c.05.65-.48,1.2-1.13,1.18"/>
  <rect class="cls-2" x="96.13" y="32.73" width="6.4" height="25.72"/>
  <path class="cls-3" d="M108.21,31.59h6.4v9.19c1.57-1.64,3.59-2.46,6.05-2.46s4.27.81,5.49,2.42,1.83,3.72,1.83,6.32v4.61c0,1.21.41,1.82,1.22,1.82.46,0,1.1-.18,1.94-.53l.19,5.03c-1.37.56-2.95.83-4.72.83-1.65,0-2.9-.44-3.75-1.32s-1.28-2.31-1.28-4.27v-5.11c0-1.26-.29-2.23-.86-2.91s-1.4-1.02-2.49-1.02c-.81,0-1.54.24-2.17.74-.64.49-1.12,1.06-1.45,1.72v11.8h-6.4v-26.85Z"/>
  <path class="cls-2" d="M135.98,56.03c-1.98-1.97-2.97-4.46-2.97-7.49s.99-5.52,2.97-7.47c1.98-1.95,4.62-2.93,7.92-2.93,3.05,0,5.64.91,7.77,2.72l-2.89,4.69c-1.32-1.08-2.82-1.63-4.49-1.63-1.47,0-2.63.43-3.46,1.29-.84.86-1.26,1.97-1.26,3.33s.42,2.51,1.26,3.38c.84.87,1.99,1.31,3.46,1.31,1.65,0,3.15-.55,4.49-1.66l2.89,4.69c-2.13,1.82-4.72,2.72-7.77,2.72-3.3,0-5.94-.99-7.92-2.95"/>
  <path class="cls-1" d="M154.47,33.11c0-1.92,1.17-2.87,3.5-2.87s3.43.96,3.43,2.87-1.14,2.87-3.43,2.87-3.5-.96-3.5-2.87M161.13,38.67v13.01c0,1.21.41,1.82,1.22,1.82.35,0,.74-.07,1.14-.21.41-.14.65-.25.72-.32l.27,5.03c-.05.05-.29.14-.72.26-.43.13-1.03.25-1.79.38-.76.12-1.51.19-2.25.19-3.33,0-4.99-1.86-4.99-5.6v-14.56h6.4Z"/>
  <path class="cls-2" d="M167.84,38.67h6.4v2.19c1.62-1.69,3.64-2.53,6.05-2.53s4.27.81,5.49,2.42c1.22,1.61,1.83,3.72,1.83,6.32v4.61c0,1.21.41,1.82,1.22,1.82.53,0,1.18-.18,1.94-.53l.19,5.03c-1.29.55-2.87.83-4.72.83-1.65,0-2.9-.44-3.75-1.32-.85-.88-1.28-2.31-1.28-4.27v-5.1c0-1.26-.29-2.23-.86-2.91s-1.4-1.02-2.49-1.02c-.81,0-1.54.25-2.17.74-.64.49-1.12,1.06-1.45,1.72v11.8h-6.4v-19.78Z"/>
  <path class="cls-2" d="M209.76,52.05l2.36,4.24c-2.21,1.79-5.03,2.68-8.45,2.68-3.61,0-6.33-.95-8.17-2.85-1.84-1.91-2.76-4.41-2.76-7.51s.98-5.53,2.93-7.51c1.95-1.98,4.51-2.97,7.65-2.97,2.89,0,5.11.78,6.65,2.33,1.53,1.55,2.3,3.53,2.3,5.92,0,1.64-.14,2.9-.42,3.78h-12.76c.2,1.18.72,2.11,1.56,2.78.84.67,1.97,1,3.39,1,.99,0,2.02-.19,3.08-.57,1.07-.38,1.94-.82,2.63-1.32M206.71,46.15v-.45c0-.83-.29-1.5-.86-1.99-.57-.49-1.43-.74-2.57-.74s-2.07.3-2.78.91c-.71.61-1.14,1.36-1.29,2.27h7.5Z"/>
  <rect class="cls-2" x="97.19" y="67.25" width=".72" height="7.25"/>
  <path class="cls-2" d="M100.12,68.92h.72v1.04c.44-.76,1.15-1.14,2.12-1.14.73,0,1.28.23,1.66.68.38.46.57,1.05.57,1.78v3.21h-.72v-3.11c0-.56-.14-1.01-.43-1.36-.29-.35-.71-.52-1.27-.52-.5,0-.92.14-1.25.4-.34.27-.56.6-.68,1.01v3.58h-.72v-5.57Z"/>
  <path class="cls-2" d="M111.01,69.24l-.19.64c-.57-.29-1.16-.43-1.78-.43-.46,0-.8.09-1.05.26-.24.17-.36.42-.36.73,0,.23.08.4.23.51.16.11.44.21.84.3l.92.22c.55.13.95.31,1.21.54.26.23.39.54.39.92,0,.49-.2.89-.61,1.2-.4.31-.95.46-1.63.46-.76,0-1.46-.16-2.08-.48l.16-.64c.64.33,1.27.5,1.89.5.47,0,.84-.09,1.12-.28.28-.18.42-.42.42-.71,0-.22-.09-.41-.28-.54-.19-.14-.47-.24-.84-.33l-.91-.22c-.55-.13-.94-.3-1.19-.51-.24-.21-.37-.51-.37-.9,0-.5.19-.91.58-1.21.38-.3.92-.45,1.61-.45.33,0,.67.04,1.04.13.37.09.66.18.88.29"/>
  <path class="cls-2" d="M113.47,67.5h.65v1.42h2.31v.6h-2.32v3.26c0,.78.35,1.17,1.04,1.17.21,0,.44-.04.69-.12.25-.08.46-.19.63-.32l.25.58c-.52.34-1.12.51-1.78.51-.5,0-.88-.15-1.16-.44-.27-.29-.41-.71-.41-1.26v-3.39h-1.11v-.6h1.12l.07-1.42Z"/>
  <path class="cls-2" d="M117.92,67.33c0-.31.16-.46.49-.46.31,0,.47.15.47.46s-.16.46-.47.46c-.33,0-.49-.15-.49-.46M118.04,68.92h.72v5.57h-.72v-5.57Z"/>
  <path class="cls-2" d="M121.43,67.5h.65v1.42h2.31v.6h-2.32v3.26c0,.78.35,1.17,1.04,1.17.21,0,.44-.04.69-.12.25-.08.46-.19.63-.32l.25.58c-.52.34-1.12.51-1.78.51-.5,0-.88-.15-1.16-.44-.27-.29-.41-.71-.41-1.26v-3.39h-1.11v-.6h1.12l.07-1.42Z"/>
  <path class="cls-2" d="M131,74.49h-.72v-1.04c-.44.76-1.15,1.14-2.12,1.14-.73,0-1.28-.23-1.66-.68-.38-.46-.57-1.05-.57-1.78v-3.21h.72v3.11c0,.57.14,1.02.43,1.36s.71.51,1.27.51c.49,0,.91-.14,1.24-.4s.56-.6.68-1.01v-3.58h.72v5.57Z"/>
  <path class="cls-2" d="M133.66,67.5h.65v1.42h2.31v.6h-2.32v3.26c0,.78.35,1.17,1.04,1.17.21,0,.44-.04.69-.12.25-.08.46-.19.63-.32l.25.58c-.52.34-1.12.51-1.78.51-.5,0-.88-.15-1.16-.44-.27-.29-.41-.71-.41-1.26v-3.39h-1.11v-.6h1.12l.07-1.42Z"/>
  <path class="cls-2" d="M137.83,71.72c0-.85.28-1.56.83-2.12.56-.56,1.26-.84,2.12-.84s1.58.28,2.14.84c.56.56.84,1.26.84,2.12s-.28,1.53-.84,2.09c-.56.55-1.27.83-2.14.83s-1.57-.28-2.12-.83c-.55-.56-.83-1.25-.83-2.09M138.53,71.72c0,.65.21,1.18.63,1.61.42.43.96.64,1.61.64s1.21-.21,1.64-.64c.42-.43.63-.96.63-1.61s-.21-1.2-.63-1.63c-.42-.43-.97-.65-1.64-.65s-1.19.22-1.61.65c-.42.44-.63.98-.63,1.63"/>
  <polygon class="cls-2" points="153.96 74.49 153.96 71.18 148.87 71.18 148.87 74.49 148.14 74.49 148.14 67.25 148.87 67.25 148.87 70.53 153.96 70.53 153.96 67.25 154.69 67.25 154.69 74.49 153.96 74.49"/>
  <path class="cls-2" d="M156.46,71.72c0-.85.28-1.56.83-2.12.56-.56,1.26-.84,2.12-.84s1.58.28,2.14.84c.56.56.84,1.26.84,2.12s-.28,1.53-.84,2.09c-.56.55-1.27.83-2.14.83s-1.57-.28-2.12-.83c-.55-.56-.83-1.25-.83-2.09M157.16,71.72c0,.65.21,1.18.63,1.61.42.43.96.64,1.61.64s1.21-.21,1.64-.64c.42-.43.63-.96.63-1.61s-.21-1.2-.63-1.63c-.42-.43-.97-.65-1.64-.65s-1.19.22-1.61.65c-.42.44-.63.98-.63,1.63"/>
  <path class="cls-2" d="M164.1,68.92h.72v1.04c.44-.76,1.15-1.14,2.12-1.14.73,0,1.28.23,1.66.68.38.46.57,1.05.57,1.78v3.21h-.72v-3.11c0-.56-.14-1.01-.43-1.36-.29-.35-.71-.52-1.27-.52-.5,0-.92.14-1.25.4-.34.27-.56.6-.68,1.01v3.58h-.72v-5.57Z"/>
  <path class="cls-2" d="M170.81,71.7c0-.84.25-1.54.75-2.07s1.16-.8,1.98-.8c.74,0,1.37.26,1.9.79v-2.69h.72v7.57h-.72v-.7c-.51.54-1.14.81-1.9.81-.82,0-1.48-.27-1.98-.81-.5-.54-.75-1.24-.75-2.09M171.56,71.7c0,.67.2,1.21.59,1.63.39.42.92.62,1.56.62.35,0,.68-.07.99-.22.31-.14.56-.32.74-.54v-2.93c-.2-.22-.45-.41-.76-.56-.31-.15-.63-.23-.97-.23-.65,0-1.17.21-1.56.62-.39.41-.59.95-.59,1.61"/>
  <path class="cls-2" d="M183.25,74.49h-.72v-1.04c-.44.76-1.15,1.14-2.12,1.14-.73,0-1.28-.23-1.66-.68-.38-.46-.57-1.05-.57-1.78v-3.21h.72v3.11c0,.57.14,1.02.43,1.36s.71.51,1.27.51c.49,0,.91-.14,1.24-.4s.56-.6.68-1.01v-3.58h.72v5.57Z"/>
  <path class="cls-2" d="M185.34,74.49v-5.57h.72v1.18c.39-.85.95-1.28,1.71-1.28.43,0,.83.14,1.18.43l-.31.61c-.3-.24-.62-.35-.97-.35-.38,0-.71.13-.99.39-.27.27-.48.61-.63,1.03v3.56h-.72Z"/>
  <path class="cls-2" d="M194.65,73.34l.31.54c-.63.5-1.39.76-2.28.76-.99,0-1.74-.27-2.24-.81-.5-.54-.75-1.25-.75-2.11s.27-1.53.8-2.1c.53-.57,1.24-.85,2.11-.85.8,0,1.41.22,1.83.65.42.44.62.99.62,1.67,0,.34-.03.63-.1.87h-4.53c.04.62.25,1.12.63,1.49.37.38.93.56,1.65.56s1.36-.23,1.95-.68M194.31,71.38c.02-.23.03-.37.03-.39,0-.46-.15-.83-.45-1.14-.3-.31-.74-.46-1.32-.46-.63,0-1.14.19-1.52.58-.38.38-.59.86-.62,1.42h3.88Z"/>
  <path class="cls-2" d="M196.77,68.92h.72v1.04c.44-.76,1.15-1.14,2.12-1.14.73,0,1.28.23,1.66.68.38.46.57,1.05.57,1.78v3.21h-.72v-3.11c0-.56-.14-1.01-.43-1.36-.29-.35-.71-.52-1.27-.52-.5,0-.92.14-1.25.4-.34.27-.56.6-.68,1.01v3.58h-.72v-5.57ZM197.82,67.82l-.28-.32c.1-.2.24-.38.42-.53.18-.14.38-.22.6-.22.2,0,.48.12.82.36.34.24.58.36.71.36.33,0,.57-.18.74-.52l.28.31c-.25.5-.59.75-1.01.75-.2,0-.48-.12-.82-.36-.34-.24-.58-.36-.71-.36-.3,0-.56.18-.76.53"/>
  <path class="cls-2" d="M203.47,71.72c0-.85.28-1.56.83-2.12.56-.56,1.26-.84,2.12-.84s1.58.28,2.14.84c.56.56.84,1.26.84,2.12s-.28,1.53-.84,2.09c-.56.55-1.27.83-2.14.83s-1.57-.28-2.12-.83c-.55-.56-.83-1.25-.83-2.09M204.17,71.72c0,.65.21,1.18.63,1.61.42.43.96.64,1.61.64s1.21-.21,1.64-.64c.42-.43.63-.96.63-1.61s-.21-1.2-.63-1.63c-.42-.43-.97-.65-1.64-.65s-1.19.22-1.61.65c-.42.44-.63.98-.63,1.63"/>
  <path class="cls-2" d="M96.7,84.49c0-.84.25-1.54.75-2.07s1.16-.8,1.98-.8c.74,0,1.37.26,1.9.79v-2.69h.72v7.57h-.72v-.7c-.51.54-1.14.81-1.9.81-.82,0-1.48-.27-1.98-.81-.5-.54-.75-1.24-.75-2.09M97.45,84.49c0,.67.2,1.21.59,1.63.39.42.92.62,1.56.62.35,0,.68-.07.99-.22.31-.14.56-.32.74-.54v-2.93c-.2-.22-.45-.41-.76-.56-.31-.15-.63-.23-.97-.23-.65,0-1.17.21-1.56.62-.39.41-.59.95-.59,1.61"/>
  <path class="cls-2" d="M108.74,86.13l.31.54c-.63.5-1.39.76-2.28.76-1,0-1.74-.27-2.25-.81-.5-.54-.75-1.25-.75-2.11s.27-1.53.8-2.1c.53-.57,1.24-.85,2.11-.85.8,0,1.41.22,1.83.65.42.44.62.99.62,1.67,0,.34-.03.63-.1.87h-4.53c.04.62.25,1.12.63,1.49.38.38.93.56,1.65.56s1.36-.23,1.95-.68M108.4,84.17c.02-.23.03-.37.03-.39,0-.46-.15-.83-.45-1.14-.3-.31-.74-.46-1.32-.46-.63,0-1.14.19-1.52.57-.38.38-.59.86-.62,1.42h3.88Z"/>
  <path class="cls-2" d="M114.64,81.48c-.57.58-.85,1.31-.85,2.18s.29,1.6.85,2.18c.57.58,1.29.87,2.15.87,1.01,0,1.84-.34,2.48-1.01l.36.52c-.72.78-1.67,1.17-2.84,1.17-1.07,0-1.97-.36-2.68-1.07-.71-.71-1.07-1.6-1.07-2.66s.36-1.95,1.07-2.66c.71-.71,1.61-1.07,2.68-1.07,1.17,0,2.12.39,2.84,1.17l-.36.52c-.64-.67-1.47-1.01-2.48-1.01-.87,0-1.59.29-2.15.87"/>
  <path class="cls-2" d="M121.17,80.12c0-.31.16-.46.49-.46s.47.15.47.46-.16.46-.47.46-.49-.15-.49-.46M121.29,81.71h.72v5.57h-.72v-5.57Z"/>
  <path class="cls-2" d="M124.1,81.71h.72v1.04c.44-.76,1.15-1.14,2.12-1.14.73,0,1.28.23,1.66.68.38.46.57,1.05.57,1.78v3.21h-.72v-3.11c0-.56-.14-1.01-.43-1.36-.29-.35-.71-.52-1.27-.52-.5,0-.92.14-1.25.4-.34.27-.56.6-.68,1.01v3.58h-.72v-5.57Z"/>
  <path class="cls-2" d="M135.78,86.13l.31.54c-.63.5-1.39.76-2.28.76-.99,0-1.74-.27-2.24-.81-.5-.54-.75-1.25-.75-2.11s.27-1.53.8-2.1c.53-.57,1.24-.85,2.11-.85.8,0,1.41.22,1.83.65.42.44.62.99.62,1.67,0,.34-.03.63-.1.87h-4.53c.04.62.25,1.12.63,1.49.37.38.93.56,1.65.56s1.36-.23,1.95-.68M135.45,84.17c.02-.23.03-.37.03-.39,0-.46-.15-.83-.45-1.14-.3-.31-.74-.46-1.32-.46-.63,0-1.14.19-1.52.57-.38.38-.59.86-.62,1.42h3.88Z"/>
  <path class="cls-2" d="M137.9,81.71h.72v1.07c.45-.78,1.14-1.16,2.06-1.16,1.02,0,1.68.44,1.99,1.31.2-.38.49-.7.86-.94s.82-.37,1.33-.37c.73,0,1.27.22,1.62.67.35.45.53,1.05.53,1.79v3.21h-.73v-3.11c0-.57-.13-1.02-.4-1.36-.27-.34-.68-.51-1.23-.51-.48,0-.88.14-1.19.41s-.52.61-.63,1.02v3.56h-.72v-3.11c0-.58-.13-1.04-.39-1.37-.26-.33-.67-.5-1.22-.5-.49,0-.89.14-1.21.41-.32.27-.53.61-.65,1.02v3.56h-.72v-5.57Z"/>
  <path class="cls-2" d="M149.23,82.64l-.14-.64c.56-.26,1.21-.38,1.94-.38s1.23.18,1.59.55c.36.37.54.87.54,1.5v3.62h-.73v-.67c-.53.52-1.17.78-1.92.78-.61,0-1.08-.15-1.44-.46-.35-.31-.53-.72-.53-1.24,0-.65.25-1.14.74-1.48.5-.33,1.16-.5,1.97-.5.43,0,.82.05,1.17.14v-.17c0-.96-.49-1.44-1.46-1.44-.64,0-1.22.13-1.75.38M149.28,85.63c0,.37.13.65.39.86.26.2.61.3,1.05.3.65,0,1.22-.24,1.73-.71v-1.67c-.33-.09-.67-.13-1.04-.13-.64,0-1.15.11-1.54.34-.39.22-.58.56-.58,1.02"/>
  <path class="cls-2" d="M155.72,80.29h.65v1.42h2.31v.6h-2.32v3.26c0,.78.35,1.17,1.04,1.17.21,0,.44-.04.69-.12.25-.08.46-.19.63-.32l.25.58c-.52.34-1.12.51-1.78.51-.5,0-.88-.15-1.16-.44-.27-.29-.41-.71-.41-1.26v-3.39h-1.11v-.6h1.12l.07-1.42Z"/>
  <path class="cls-2" d="M159.89,84.51c0-.85.28-1.56.83-2.12.56-.56,1.26-.84,2.12-.84s1.58.28,2.14.84c.56.56.84,1.26.84,2.12s-.28,1.53-.84,2.09c-.56.55-1.27.83-2.14.83s-1.57-.28-2.12-.83c-.55-.56-.83-1.25-.83-2.09M160.59,84.51c0,.65.21,1.18.63,1.61.42.43.96.64,1.61.64s1.21-.21,1.64-.64c.42-.43.63-.96.63-1.61s-.21-1.2-.63-1.63c-.42-.43-.97-.65-1.64-.65s-1.19.22-1.61.65c-.42.44-.63.98-.63,1.63"/>
  <path class="cls-2" d="M167.17,84.3c0-.76.25-1.4.76-1.91.51-.51,1.16-.77,1.97-.77.75,0,1.37.27,1.89.81v-.71h.73v5.08c0,.81-.25,1.45-.73,1.91-.49.46-1.09.69-1.8.69-.15,0-.29,0-.43-.02s-.27-.04-.39-.07c-.12-.03-.23-.06-.33-.09-.09-.02-.19-.06-.3-.11-.11-.05-.18-.09-.24-.11-.05-.02-.12-.06-.21-.11-.1-.05-.15-.08-.16-.09l.18-.64c.62.41,1.24.61,1.88.61.51,0,.94-.16,1.29-.48s.52-.78.52-1.36v-.77c-.52.54-1.15.81-1.89.81-.8,0-1.46-.26-1.97-.77-.51-.51-.76-1.14-.76-1.89M167.92,84.3c0,.58.2,1.05.59,1.44.39.38.91.58,1.55.58.35,0,.67-.07.98-.21.31-.14.56-.32.75-.53v-2.54c-.19-.21-.44-.39-.75-.54-.31-.15-.63-.22-.98-.22-.64,0-1.16.19-1.55.58-.39.39-.59.87-.59,1.46"/>
  <path class="cls-2" d="M174.6,87.28v-5.57h.72v1.18c.39-.85.95-1.28,1.71-1.28.43,0,.83.14,1.18.43l-.31.61c-.3-.24-.62-.35-.97-.35-.38,0-.71.13-.99.39-.27.27-.48.61-.63,1.03v3.56h-.72Z"/>
  <path class="cls-2" d="M179.61,82.64l-.14-.64c.56-.26,1.21-.38,1.94-.38s1.23.18,1.59.55c.36.37.54.87.54,1.5v3.62h-.73v-.67c-.53.52-1.17.78-1.92.78-.61,0-1.08-.15-1.44-.46-.35-.31-.53-.72-.53-1.24,0-.65.25-1.14.74-1.48.5-.33,1.16-.5,1.97-.5.43,0,.82.05,1.17.14v-.17c0-.96-.49-1.44-1.46-1.44-.64,0-1.22.13-1.75.38M179.65,85.63c0,.37.13.65.39.86.26.2.61.3,1.05.3.65,0,1.22-.24,1.73-.71v-1.67c-.33-.09-.67-.13-1.04-.13-.64,0-1.15.11-1.54.34-.39.22-.58.56-.58,1.02"/>
  <path class="cls-2" d="M188.99,82.64h-2.09v4.65h-.72v-4.65h-1.17v-.59h1.17v-.56c0-.56.14-1.01.43-1.36.28-.35.72-.52,1.31-.52.56,0,1.03.18,1.42.55l-.22.6c-.32-.33-.7-.5-1.13-.5-.72,0-1.08.41-1.08,1.24v.56h2.09v.59Z"/>
  <path class="cls-2" d="M191.17,87.28h-.72v-5.57h.72v5.57ZM192.08,79.39l-.96,1.46h-.66l.87-1.46h.75Z"/>
  <path class="cls-2" d="M193.46,82.64l-.14-.64c.56-.26,1.21-.38,1.94-.38s1.23.18,1.59.55c.36.37.54.87.54,1.5v3.62h-.73v-.67c-.53.52-1.17.78-1.92.78-.61,0-1.08-.15-1.44-.46-.35-.31-.53-.72-.53-1.24,0-.65.25-1.14.74-1.48.5-.33,1.16-.5,1.97-.5.43,0,.82.05,1.17.14v-.17c0-.96-.49-1.44-1.46-1.44-.64,0-1.22.13-1.75.38M193.5,85.63c0,.37.13.65.39.86.26.2.61.3,1.05.3.65,0,1.22-.24,1.73-.71v-1.67c-.33-.09-.67-.13-1.04-.13-.64,0-1.15.11-1.54.34-.39.22-.58.56-.58,1.02"/>
  <rect class="cls-1" x="96.03" y="99.21" width="57.02" height="7.89"/>
</svg>