<svg version="1.1" id="Layer_1" xmlns="http://www.w3.org/2000/svg" xmlns:xlink="http://www.w3.org/1999/xlink" x="0px" y="0px"
	 width="100%" viewBox="0 0 4592 1802" enable-background="new 0 0 4592 1802" xml:space="preserve">
<path fill="#FFFFFF" opacity="1.000000" stroke="none" 
	d="
M2798.000000,1804.000000 
	C1865.333496,1804.000000 933.666992,1804.000000 2.000375,1804.000000 
	C2.000250,1203.333618 2.000250,602.667236 2.000125,2.000617 
	C1532.666138,2.000411 3063.332275,2.000411 4593.999023,2.000206 
	C4593.999023,602.666016 4593.999023,1203.332031 4593.999512,1803.999023 
	C3995.666748,1804.000000 3397.333252,1804.000000 2798.000000,1804.000000 
M673.611572,1460.192505 
	C676.553833,1459.715576 679.536804,1459.412231 682.431824,1458.733765 
	C700.863647,1454.413696 719.385620,1450.413086 737.641541,1445.439819 
	C745.058350,1443.419434 746.597656,1444.286987 750.407043,1450.633301 
	C759.825195,1466.323608 769.376038,1481.934326 778.926392,1497.544800 
	C781.042480,1501.003662 783.376831,1504.328979 785.610657,1507.715698 
	C786.253906,1507.449707 786.897217,1507.183716 787.540527,1506.917847 
	C789.628357,1482.282837 791.716248,1457.647705 793.862244,1432.326172 
	C818.765564,1426.284180 843.104919,1420.379028 867.444336,1414.473877 
	C867.467529,1413.774292 867.490662,1413.074707 867.513855,1412.375122 
	C844.372375,1402.654907 821.230957,1392.934814 797.642212,1383.026855 
	C799.675964,1357.445679 801.656372,1332.536255 803.636780,1307.626953 
	C803.070435,1307.331055 802.504150,1307.035278 801.937805,1306.739380 
	C785.570312,1325.725708 769.202759,1344.711914 752.427734,1364.170776 
	C728.859131,1355.183472 706.199036,1344.437012 682.723938,1335.864990 
	C682.281982,1336.434448 681.840027,1337.003784 681.398132,1337.573242 
	C694.392578,1359.050293 707.387085,1380.527344 720.336792,1401.930420 
	C709.726318,1414.296021 699.662598,1425.801636 689.862122,1437.527222 
	C683.730408,1444.863647 677.995178,1452.531372 671.562927,1460.211182 
	C671.689575,1460.112061 671.816162,1460.012817 673.611572,1460.192505 
M896.257385,738.567200 
	C895.170410,731.870483 897.379028,724.586792 893.008118,718.452454 
	C869.479919,724.295166 833.004150,741.946960 820.496643,753.979980 
	C844.936279,799.139893 867.330444,845.708313 877.778503,897.130005 
	C872.515991,899.363159 868.847656,898.424133 866.178772,893.201843 
	C862.850647,886.689636 858.948669,880.473389 855.490479,874.024231 
	C847.796814,859.676392 839.270447,845.674683 832.845703,830.772217 
	C824.826355,812.170959 818.618896,792.790955 811.535156,773.782227 
	C809.954224,769.539917 807.981812,765.443481 805.787842,760.346313 
	C783.351318,776.493408 764.688171,794.657959 747.077576,815.127563 
	C749.691101,817.972778 751.816589,820.447937 754.110229,822.755920 
	C764.211731,832.920410 774.089783,843.328247 784.563721,853.095825 
	C797.351807,865.021484 808.227905,878.234619 816.094421,893.931641 
	C819.157654,900.044006 822.973755,905.779053 826.545105,911.852966 
	C824.089417,913.628967 822.515320,914.822510 820.882202,915.929016 
	C819.807861,916.656982 818.648499,917.259521 817.936890,917.677551 
	C784.299805,893.279846 763.254639,858.054138 737.350098,827.097717 
	C724.007019,840.897461 702.180969,881.338013 700.413940,895.312744 
	C710.240967,899.643616 720.407288,903.731201 730.213928,908.550842 
	C741.128723,913.915039 753.458374,916.788818 761.732361,926.962524 
	C767.808167,934.433350 774.672668,941.258423 781.073120,948.471130 
	C785.377930,953.322144 785.290100,953.400085 779.539490,960.937927 
	C764.707825,953.459290 748.899475,947.006714 734.771973,937.936157 
	C720.727051,928.918579 708.371765,917.269470 694.232422,905.938416 
	C687.376526,921.807678 681.665527,936.054382 679.756653,952.021790 
	C684.328247,954.110107 688.174316,956.034851 692.145081,957.653625 
	C718.634583,968.453003 745.155334,979.175903 771.653809,989.953308 
	C775.962280,991.705688 779.978943,993.387329 781.888428,998.563171 
	C787.558655,1013.932617 799.513367,1022.355164 814.919739,1026.029175 
	C822.635071,1027.869141 830.666077,1028.343140 838.455322,1029.922852 
	C871.579102,1036.640015 896.047241,1053.456421 908.914001,1086.378906 
	C914.897705,1101.689575 924.014038,1116.101562 933.580322,1129.595215 
	C943.221619,1143.194458 955.372559,1154.791138 972.603577,1159.169678 
	C986.036438,1162.583130 999.647095,1163.316040 1013.229248,1161.482910 
	C1029.125977,1159.337402 1043.302856,1153.079468 1054.058594,1140.585205 
	C1058.173340,1135.805420 1062.338135,1131.037476 1066.057007,1125.954346 
	C1076.727661,1111.369507 1084.625977,1095.267700 1091.639038,1078.665161 
	C1097.350342,1065.144531 1106.565186,1054.488647 1118.647827,1046.030884 
	C1134.410889,1034.996704 1152.168579,1030.290771 1170.887817,1028.113159 
	C1187.749512,1026.151733 1203.804810,1021.079651 1211.539551,1004.956909 
	C1216.178589,995.286865 1222.890503,991.090210 1231.776733,987.940735 
	C1234.906738,986.831238 1237.915649,985.383118 1240.993774,984.123474 
	C1266.511597,973.681641 1292.032593,963.247864 1318.258667,952.522827 
	C1316.849243,936.195068 1311.037964,921.725403 1303.664551,906.071167 
	C1289.475098,917.455383 1276.772217,928.631775 1263.054199,938.379578 
	C1248.955566,948.397888 1232.327393,953.683289 1216.078857,961.280945 
	C1214.489990,957.939453 1213.294556,955.425476 1211.934082,952.564392 
	C1220.918213,942.955750 1229.317627,933.511292 1238.268311,924.622192 
	C1241.944824,920.971130 1246.499390,917.860718 1251.191895,915.639771 
	C1266.466797,908.409729 1281.989624,901.703735 1297.341797,894.829773 
	C1290.178955,871.976196 1270.395630,836.791748 1259.026245,827.329346 
	C1233.890991,858.798950 1211.796143,893.093323 1178.899780,918.049438 
	C1176.218506,915.884766 1173.709351,913.859131 1171.098145,911.751099 
	C1172.259888,909.322083 1172.978516,907.482483 1173.968018,905.802368 
	C1184.072754,888.646240 1192.760010,870.648254 1208.124634,856.981323 
	C1220.056641,846.367798 1230.885376,834.511963 1242.166626,823.170593 
	C1244.472778,820.852051 1246.610107,818.365601 1248.666138,816.129700 
	C1240.784546,801.318420 1203.202515,766.137207 1190.271118,761.625183 
	C1186.861206,770.539551 1182.984863,779.353210 1180.088135,788.477844 
	C1168.432739,825.192871 1150.935181,859.111633 1131.221313,891.997864 
	C1127.164185,898.765747 1127.083984,898.717651 1117.669922,896.642273 
	C1125.743042,871.954468 1132.448730,846.810730 1142.206299,822.913147 
	C1151.968506,799.003845 1164.781372,776.340210 1176.509521,752.619751 
	C1153.408691,737.045776 1129.324219,725.728027 1102.505127,717.595764 
	C1099.502441,747.737000 1098.406372,777.063477 1093.219238,805.647644 
	C1088.040039,834.188904 1078.764526,861.986755 1071.284790,890.110474 
	C1070.085327,888.594788 1069.830811,887.306030 1069.829224,886.017029 
	C1069.792480,856.690002 1069.755859,827.362976 1069.815918,798.036133 
	C1069.821289,795.405579 1070.266724,792.724731 1070.876099,790.154541 
	C1076.317871,767.200928 1081.880127,744.275940 1087.285645,721.313843 
	C1087.850952,718.912903 1087.632080,716.327393 1087.761841,714.090515 
	C1063.992310,706.187073 1017.342896,701.804382 1004.159424,706.294250 
	C1007.801880,723.703857 1011.593872,741.177795 1015.081482,758.712341 
	C1017.670288,771.728088 1021.695068,784.792542 1021.908447,797.886963 
	C1022.717590,847.530090 1022.285522,897.194458 1022.128235,946.850220 
	C1022.117249,950.320801 1021.116516,954.043762 1019.640320,957.213623 
	C1008.134644,981.920837 1004.775757,1007.507141 1012.219360,1033.842285 
	C1014.906921,1043.350830 1020.333130,1052.054443 1023.607910,1061.439819 
	C1025.416138,1066.622192 1026.288818,1072.512939 1025.956421,1077.985474 
	C1025.101807,1092.050415 1009.346191,1105.312134 996.429871,1103.635132 
	C978.548035,1101.313477 966.768372,1083.635620 971.739502,1066.248169 
	C973.102173,1061.481934 974.856812,1056.739136 977.104553,1052.328491 
	C993.095703,1020.950012 991.899292,989.570740 977.208374,958.253296 
	C974.874939,953.279053 973.681274,948.429321 973.695374,942.949341 
	C973.814209,896.959229 973.747192,850.968750 973.793274,804.978333 
	C973.796875,801.328796 973.803467,797.592285 974.530823,794.044312 
	C979.466553,769.969177 984.644714,745.943848 989.626404,721.878052 
	C990.745972,716.469727 991.397766,710.964661 992.474548,704.184509 
	C963.170288,704.293640 935.459412,706.165222 907.925659,714.109741 
	C913.772339,738.724792 919.503296,761.937073 924.704285,785.267395 
	C926.422852,792.976624 927.496826,800.979553 927.616516,808.867188 
	C927.985657,833.189880 927.751831,857.521729 927.752197,881.849976 
	C927.752258,884.553406 927.752258,887.256836 927.752258,889.960205 
	C927.057068,890.004944 926.361877,890.049683 925.666687,890.094421 
	C922.835022,879.628235 919.933960,869.180298 917.184814,858.692444 
	C909.364258,828.857605 899.873535,799.387146 899.552979,768.029175 
	C899.458740,758.806335 897.446899,749.603088 896.257385,738.567200 
M767.878540,1049.203247 
	C754.281860,1037.427612 748.210938,1022.046997 747.136108,1004.363281 
	C731.689575,996.301575 716.669678,988.422180 701.597717,980.643860 
	C699.559204,979.591797 697.314331,978.628418 695.071350,978.331238 
	C668.108154,974.757874 641.151855,971.109741 614.141663,967.922546 
	C598.334290,966.057251 582.449341,964.769958 566.571411,963.600830 
	C540.112305,961.652527 513.652771,959.230957 487.151794,958.483093 
	C466.261108,957.893677 445.300720,959.359070 424.386536,960.263428 
	C417.791901,960.548584 411.111084,961.412292 404.700165,962.963501 
	C357.085754,974.484863 314.708099,996.945618 275.416321,1025.652954 
	C264.463409,1033.655396 261.081818,1054.695923 273.028412,1064.408447 
	C277.408020,1067.969116 281.443665,1072.017334 286.090118,1075.175171 
	C323.362518,1100.505981 364.746246,1116.856201 407.595947,1129.704712 
	C418.313782,1132.918335 429.630707,1135.594604 440.722351,1135.798828 
	C464.291565,1136.232788 487.913086,1135.280029 511.476288,1134.135864 
	C531.024353,1133.186768 550.581543,1131.691284 570.023682,1129.467407 
	C599.339844,1126.114136 628.590942,1122.139648 657.810913,1118.012695 
	C686.388550,1113.976562 714.935852,1109.683350 743.417542,1105.020630 
	C776.820557,1099.551880 810.144653,1093.598877 843.487610,1087.767944 
	C850.027466,1086.624268 856.497314,1085.080322 865.217957,1083.257202 
	C846.935791,1072.490234 829.491028,1067.962280 811.148315,1066.138184 
	C795.676270,1064.599487 781.108459,1060.498169 767.878540,1049.203247 
M1613.750244,971.071228 
	C1588.581299,961.211914 1562.084839,958.883118 1535.494019,958.430969 
	C1513.577881,958.058228 1491.632812,959.409180 1469.700195,959.987122 
	C1465.039062,960.109985 1460.350830,959.911926 1455.719482,960.341431 
	C1429.967041,962.729431 1404.204224,965.044189 1378.491455,967.815063 
	C1354.409668,970.410217 1330.375732,973.460449 1306.343140,976.489319 
	C1299.418457,977.362122 1292.990356,979.495850 1286.943359,983.520264 
	C1273.930176,992.180786 1260.468018,1000.168457 1247.159180,1008.382080 
	C1243.078979,1010.900208 1240.618530,1013.898193 1239.540161,1019.087158 
	C1237.493652,1028.932983 1232.739014,1037.683838 1225.596802,1045.137451 
	C1212.383301,1058.927124 1195.725952,1064.402832 1177.346069,1066.201904 
	C1161.333130,1067.769287 1145.924316,1071.597412 1131.579468,1079.088623 
	C1129.761108,1080.038086 1128.221802,1081.522095 1125.454468,1083.572510 
	C1133.798828,1085.210327 1140.596436,1086.678833 1147.442627,1087.865601 
	C1181.124634,1093.703979 1214.795532,1099.611328 1248.517944,1105.208008 
	C1271.432617,1109.010864 1294.391602,1112.583130 1317.392578,1115.819580 
	C1344.334229,1119.610596 1371.305176,1123.252686 1398.332520,1126.358887 
	C1428.633911,1129.841309 1458.966064,1133.277100 1489.374268,1135.525391 
	C1508.269409,1136.922607 1527.338745,1136.477173 1546.312744,1136.063843 
	C1555.194580,1135.870483 1564.279907,1134.710083 1572.852417,1132.416016 
	C1609.286255,1122.666382 1644.310669,1109.097046 1677.602173,1091.311523 
	C1692.278076,1083.471069 1706.766602,1075.247925 1718.470093,1062.985352 
	C1722.379517,1058.889404 1724.154785,1054.526001 1724.393677,1048.783691 
	C1724.890381,1036.846924 1719.634888,1028.669678 1710.142334,1022.052429 
	C1680.518799,1001.401978 1649.246704,983.949280 1613.750244,971.071228 
M1424.978271,567.767822 
	C1465.388550,566.980652 1504.787231,594.697937 1518.053711,635.142700 
	C1521.991943,647.149597 1525.110840,659.572083 1523.283203,672.343384 
	C1521.781860,682.834351 1519.336182,693.204285 1517.005127,703.559387 
	C1512.758789,722.421631 1511.592896,741.023560 1519.860229,759.265808 
	C1522.048096,764.093750 1523.710571,769.204041 1525.163330,774.312988 
	C1530.057373,791.525696 1530.569580,808.695557 1521.225830,824.563965 
	C1517.997803,830.045837 1517.494141,835.013489 1518.528442,840.663269 
	C1523.322266,866.846252 1526.456055,893.183594 1526.268799,919.854736 
	C1526.246582,923.009521 1526.628540,926.167175 1526.851440,929.782898 
	C1561.094604,929.248718 1593.623657,932.545959 1624.932007,944.862305 
	C1632.481934,837.598999 1598.642456,657.843506 1464.675659,510.472809 
	C1355.332397,390.189270 1218.872803,322.063232 1055.549438,304.106964 
	C1061.271362,314.322021 1066.323975,322.846039 1070.905273,331.616302 
	C1083.408447,355.552216 1094.339111,380.147491 1101.034912,406.428772 
	C1102.100342,410.610809 1103.928711,413.017792 1108.786743,414.057800 
	C1168.219849,426.781769 1223.703247,449.373505 1275.273926,481.555542 
	C1312.717773,504.921875 1346.961914,532.267151 1377.411743,564.242859 
	C1381.694214,568.739990 1386.104126,570.941406 1392.295166,570.309326 
	C1402.531494,569.264221 1412.805908,568.595154 1424.978271,567.767822 
M363.759583,938.250183 
	C364.070343,940.076538 364.381134,941.902893 364.912231,945.024048 
	C396.885742,932.122375 429.798981,929.476562 462.743988,929.647888 
	C463.268341,927.328735 463.677673,926.376465 463.669983,925.427612 
	C463.432770,896.091064 466.625519,867.080200 471.909363,838.268860 
	C472.864929,833.058594 471.521423,828.569031 468.762543,824.077393 
	C463.979462,816.290222 462.020477,807.713562 461.621246,798.483398 
	C461.041382,785.077576 464.741547,772.678894 469.793152,760.744080 
	C477.832306,741.750977 477.344238,722.746948 472.968231,703.086487 
	C469.539551,687.682129 465.723816,672.545349 467.397339,656.050781 
	C472.874786,602.063538 524.937134,558.251465 583.451538,569.262573 
	C588.959106,570.299011 594.736694,569.831421 600.370361,570.289490 
	C604.706055,570.642090 607.772034,568.981934 610.876465,565.950745 
	C622.300964,554.795776 633.832520,543.733032 645.693542,533.045959 
	C679.028503,503.010162 716.207153,478.500275 756.117981,458.219391 
	C792.416260,439.774109 830.526611,425.981018 870.101379,416.305023 
	C878.680237,414.207489 878.472290,414.152527 880.107422,405.359161 
	C884.636780,381.001953 892.454712,357.770386 904.696228,336.152527 
	C910.209778,326.415894 915.995850,316.833557 922.164062,306.319031 
	C919.125977,306.319031 917.130310,306.022095 915.251038,306.364166 
	C892.076355,310.582489 868.695190,313.949860 845.800903,319.368713 
	C789.824829,332.617767 736.745483,353.567657 686.510437,381.720184 
	C644.520569,405.251953 605.727539,433.225800 570.048462,465.438812 
	C547.801392,485.524750 527.254395,507.315186 508.130829,530.452881 
	C480.464844,563.926086 456.455414,599.829590 436.124451,638.158997 
	C417.056091,674.107971 401.694244,711.618408 389.942413,750.607422 
	C378.308044,789.206726 370.309174,828.579956 366.489777,868.649963 
	C364.348389,891.115234 364.586914,913.807373 363.759583,938.250183 
M1485.564087,720.302063 
	C1488.093994,706.611389 1490.394653,692.873474 1493.198242,679.239136 
	C1500.577026,643.356812 1476.285645,606.238770 1440.608765,597.999023 
	C1426.798218,594.809387 1413.576782,598.096741 1400.072266,598.773071 
	C1387.820435,599.386658 1375.355469,600.480530 1363.291260,598.947937 
	C1346.893799,596.864746 1330.854370,592.108032 1314.532349,589.230469 
	C1304.785278,587.512085 1294.789062,586.450134 1284.908569,586.476440 
	C1276.539673,586.498657 1268.182129,589.154419 1262.720581,596.112427 
	C1255.987183,604.690613 1248.981201,613.334167 1243.963379,622.927795 
	C1228.227295,653.013245 1213.361694,683.554199 1198.183716,713.931091 
	C1196.719604,716.861633 1195.428345,719.878601 1194.187134,722.572632 
	C1194.798096,723.605835 1195.017578,724.303894 1195.488525,724.710815 
	C1196.741943,725.793823 1198.093140,726.765686 1199.423706,727.757202 
	C1220.793823,743.681702 1240.870361,760.918640 1258.601807,781.015320 
	C1290.743408,817.444580 1314.940430,858.283203 1330.271240,904.386841 
	C1333.436646,913.905823 1337.461060,915.751587 1346.784790,912.114807 
	C1348.926758,911.279297 1350.917969,910.010132 1352.892822,908.800354 
	C1389.483032,886.383545 1426.213745,864.189819 1462.553711,841.373901 
	C1474.612915,833.802734 1486.358521,825.463196 1494.599731,813.250610 
	C1498.088013,808.081177 1500.664673,802.595215 1499.622192,796.474243 
	C1498.183960,788.028076 1496.518433,779.492310 1493.687378,771.438904 
	C1488.042847,755.382141 1482.471069,739.462585 1485.564087,720.302063 
M766.867432,664.078857 
	C757.382080,645.762512 748.431274,627.142334 738.246582,609.223450 
	C729.687622,594.164734 717.007812,584.373840 698.380676,586.319458 
	C688.522827,587.349060 678.527405,588.378357 668.989136,590.901184 
	C641.449768,598.185242 613.782593,602.473083 585.278076,598.272827 
	C579.377930,597.403381 573.430298,596.411926 567.491394,596.319519 
	C519.180847,595.567993 487.769897,639.495361 497.431854,680.928894 
	C498.639099,686.105957 499.793121,691.295837 501.047058,696.461548 
	C506.975922,720.886292 507.727875,745.007141 497.477570,768.675415 
	C495.112640,774.136169 493.537659,779.949768 491.754333,785.649597 
	C487.678345,798.677185 490.904602,810.153625 500.377991,819.497009 
	C506.733124,825.764954 513.698975,831.599060 521.094666,836.584351 
	C532.939270,844.568420 545.412292,851.614685 557.538635,859.187317 
	C582.924316,875.039795 608.203735,891.063416 633.668701,906.786987 
	C637.546875,909.181641 642.045654,911.071899 646.500610,911.923584 
	C654.835388,913.517273 656.877075,911.874512 659.900818,903.889954 
	C663.901917,893.324402 667.472778,882.556152 672.139954,872.289307 
	C698.283142,814.778992 736.523987,767.025940 787.891602,729.983521 
	C790.802246,727.884644 793.508118,725.502075 796.423950,723.159485 
	C786.590393,703.458618 777.088867,684.422974 766.867432,664.078857 
M1063.462402,644.249512 
	C1065.815918,622.149902 1068.322021,600.065186 1070.483643,577.946838 
	C1073.062012,551.562683 1075.824341,525.181580 1077.581421,498.737579 
	C1078.683228,482.156281 1078.534180,465.449280 1078.074097,448.822815 
	C1077.800415,438.935760 1076.805786,428.858307 1074.464722,419.274506 
	C1063.086182,372.691376 1041.143677,331.117554 1012.569092,292.933502 
	C1002.754822,279.818665 983.773560,278.860382 972.465393,291.023956 
	C951.055115,314.053680 932.671265,339.249268 920.714417,368.566315 
	C911.880920,390.225159 905.677185,412.602325 906.296570,436.295807 
	C906.626038,448.896454 907.312683,461.496704 908.199951,474.071594 
	C909.413757,491.273071 910.654236,508.483521 912.448608,525.630981 
	C916.174438,561.235291 920.232056,596.805359 924.240295,632.379639 
	C925.566040,644.146545 927.158813,655.883423 928.777161,668.814087 
	C972.768066,660.612427 1015.906616,660.285156 1059.850952,668.628174 
	C1060.983154,660.253845 1061.949707,653.105042 1063.462402,644.249512 
M2611.762695,587.027954 
	C2611.762695,579.128906 2611.762695,571.229858 2611.762695,563.588379 
	C2599.915771,561.422485 2549.421143,561.805725 2541.800293,564.062378 
	C2541.656982,618.267761 2541.851318,672.661804 2541.686279,729.398254 
	C2538.539062,726.052795 2537.155029,724.731750 2535.941406,723.269531 
	C2513.859375,696.661987 2491.792725,670.041992 2469.733643,643.415527 
	C2448.944580,618.321838 2428.106689,593.268127 2407.447266,568.067993 
	C2404.020996,563.888672 2400.401855,561.939880 2394.794189,562.092041 
	C2379.811523,562.498657 2364.810059,562.191040 2349.816895,562.271240 
	C2347.301758,562.284668 2344.789307,562.817932 2342.461914,563.089294 
	C2340.193115,585.809265 2341.265625,834.199890 2343.761230,841.715942 
	C2366.050537,841.781128 2388.520508,841.825623 2412.095215,841.703552 
	C2412.095215,785.901123 2412.095215,731.567078 2412.095215,675.731628 
	C2414.370850,677.879456 2415.393311,678.662048 2416.195312,679.627808 
	C2459.529541,731.802917 2502.891113,783.955688 2546.072510,836.256897 
	C2549.389404,840.274414 2552.791748,841.995728 2557.933838,841.861328 
	C2569.254639,841.565430 2580.588623,841.769775 2591.917236,841.769836 
	C2598.156006,841.769836 2604.395020,841.769775 2611.762451,841.769775 
	C2611.762451,756.743103 2611.762451,672.881897 2611.762695,587.027954 
M2776.390381,1144.589478 
	C2781.329102,1150.433350 2786.458496,1156.129517 2791.139404,1162.173096 
	C2794.276367,1166.223145 2797.852295,1167.963135 2803.053467,1167.868164 
	C2818.379395,1167.588623 2833.713867,1167.805664 2849.044189,1167.720459 
	C2851.254639,1167.708252 2853.461914,1167.101807 2855.514648,1166.793701 
	C2857.687500,1146.600464 2856.687500,895.806641 2854.291748,888.317871 
	C2831.993164,888.177795 2809.519531,888.215881 2785.922363,888.266602 
	C2785.922363,944.079041 2785.922363,998.425293 2785.922363,1052.771606 
	C2785.148438,1053.159058 2784.374512,1053.546509 2783.600586,1053.933960 
	C2782.527588,1052.280151 2781.604248,1050.503052 2780.358643,1048.991577 
	C2767.031982,1032.823364 2753.627197,1016.719421 2740.296143,1000.554871 
	C2710.886475,964.893433 2681.476318,929.232117 2652.157715,893.495850 
	C2648.920410,889.550232 2645.301514,887.956970 2640.117676,888.112061 
	C2627.797363,888.480835 2615.458496,888.230713 2603.126953,888.230652 
	C2597.882812,888.230591 2592.638672,888.230652 2586.853027,888.230652 
	C2586.853027,981.802856 2586.853027,1074.231323 2586.853027,1166.550171 
	C2598.584473,1168.637695 2648.714600,1168.194214 2656.248535,1165.862427 
	C2656.248535,1155.090088 2656.248535,1144.113281 2656.248535,1133.136475 
	C2656.248535,1122.138184 2656.248535,1111.140015 2656.248535,1100.141724 
	C2656.248535,1089.476685 2656.248535,1078.811768 2656.248535,1068.146729 
	C2656.248535,1057.148438 2656.160889,1046.149414 2656.273438,1035.152222 
	C2656.383789,1024.391724 2655.783936,1013.588135 2656.850830,1000.556641 
	C2697.501953,1049.417114 2736.585693,1096.393555 2776.390381,1144.589478 
M3793.841064,1093.202393 
	C3783.438965,1084.089233 3773.036621,1074.976196 3762.053955,1065.354492 
	C3768.637939,1063.225342 3773.791748,1061.900269 3778.680420,1059.920288 
	C3803.724609,1049.777344 3822.091553,1032.933960 3830.175049,1006.551514 
	C3836.086914,987.256714 3835.085938,967.865417 3829.158203,948.665344 
	C3824.809082,934.578613 3816.187988,923.385254 3805.467529,913.607056 
	C3785.109619,895.037537 3760.024414,888.939026 3733.668945,888.446838 
	C3690.702637,887.644653 3647.710205,888.220398 3604.728760,888.250122 
	C3601.476074,888.252319 3598.223389,888.536438 3594.381348,888.717285 
	C3594.381348,981.735229 3594.381348,1074.145020 3594.381348,1167.579590 
	C3617.596924,1167.749634 3640.317871,1168.210083 3664.038574,1167.251953 
	C3664.038574,1133.675903 3664.038574,1101.172485 3664.038574,1068.388794 
	C3670.904785,1067.792725 3676.859131,1066.139771 3681.901123,1071.051758 
	C3693.323242,1082.178711 3704.829102,1093.221436 3716.156250,1104.444580 
	C3731.741699,1119.887451 3745.954346,1136.750732 3764.104980,1149.500244 
	C3785.051270,1164.212891 3807.385498,1174.031494 3833.792969,1171.848999 
	C3847.182129,1170.742432 3859.751221,1167.353638 3872.586182,1161.305664 
	C3870.342773,1142.913940 3868.151855,1124.951294 3865.921143,1106.664185 
	C3862.666992,1107.549805 3860.419434,1108.135742 3858.186768,1108.773315 
	C3842.582520,1113.229370 3827.287109,1113.077881 3812.749512,1105.126587 
	C3806.639160,1101.784668 3800.885742,1097.790649 3793.841064,1093.202393 
M3052.950195,888.229797 
	C3013.078613,888.229797 2973.207275,888.229797 2932.862305,888.229797 
	C2932.862305,981.866577 2932.862305,1074.273926 2932.862305,1167.770264 
	C2937.050537,1167.770264 2940.625244,1167.770142 2944.199951,1167.770142 
	C2983.514160,1167.770142 3022.829834,1167.594849 3062.142334,1167.850464 
	C3079.624023,1167.964233 3096.735352,1165.650635 3113.104492,1159.941040 
	C3156.937988,1144.651489 3187.006104,1115.801636 3197.918701,1069.636719 
	C3204.916504,1040.031860 3204.403320,1010.280640 3196.206055,980.870544 
	C3185.881592,943.826843 3162.064941,918.205444 3127.706543,902.257996 
	C3104.742188,891.599060 3080.191162,887.707520 3052.950195,888.229797 
M3304.156738,807.214111 
	C3318.996338,793.871887 3330.667725,778.333069 3337.385254,759.349548 
	C3348.093994,729.087036 3348.693115,698.097778 3343.245850,666.896606 
	C3340.187988,649.383972 3333.649902,632.958496 3323.184570,618.428711 
	C3295.739990,580.325256 3256.605469,564.201172 3211.445557,562.558960 
	C3169.207764,561.023010 3126.869873,562.216675 3084.576172,562.266174 
	C3082.040039,562.269104 3079.504150,562.778381 3076.967773,563.052063 
	C3076.967773,656.139099 3076.967773,748.517212 3076.967773,841.770264 
	C3081.292725,841.770264 3084.893311,841.770264 3088.493652,841.770264 
	C3126.458252,841.770264 3164.423096,841.860229 3202.386963,841.701782 
	C3210.989990,841.665894 3219.629883,841.136414 3228.183105,840.197876 
	C3256.357422,837.106445 3281.486328,826.676086 3304.156738,807.214111 
M2345.318848,1167.941284 
	C2365.602051,1172.622803 2386.020264,1173.619141 2406.612305,1170.263184 
	C2463.879395,1160.930176 2501.539307,1128.279785 2520.224365,1073.770996 
	C2528.601562,1049.332397 2528.555908,1023.894653 2523.980713,998.843567 
	C2514.849121,948.842773 2485.742920,914.081360 2439.267822,894.374084 
	C2413.981201,883.651672 2387.155273,881.848511 2360.014404,885.741760 
	C2307.553467,893.266968 2270.912842,921.935425 2249.782227,970.055359 
	C2239.767090,992.862488 2237.029297,1017.065979 2239.450684,1042.110107 
	C2241.005371,1058.192261 2243.735107,1073.817139 2250.424805,1088.388428 
	C2269.150879,1129.178101 2300.229736,1155.784790 2345.318848,1167.941284 
M2179.765625,1015.000000 
	C2179.765625,973.116821 2179.765625,931.233643 2179.765625,888.888428 
	C2156.121338,888.888428 2133.686523,888.888428 2110.234131,888.888428 
	C2110.234131,898.445251 2110.234131,907.366821 2110.234131,916.288452 
	C2110.234131,924.953125 2110.234131,933.617798 2110.234131,942.282471 
	C2110.234131,951.280396 2110.327148,960.279541 2110.207764,969.275879 
	C2110.090576,978.107361 2110.796387,987.006226 2109.685303,995.619934 
	C2065.917236,995.619934 2023.391968,995.619934 1979.943848,995.619934 
	C1979.407349,959.645325 1980.176025,924.218872 1979.515015,888.954346 
	C1955.562866,888.954346 1933.067627,888.954346 1910.685913,888.954346 
	C1908.717651,903.490601 1909.406860,1159.940674 1911.376221,1167.107056 
	C1933.812500,1167.107056 1956.287720,1167.107056 1979.996338,1167.107056 
	C1979.996338,1130.022705 1979.996338,1093.581421 1979.996338,1057.350342 
	C1994.108521,1055.336182 2102.555420,1055.890747 2110.234131,1058.021729 
	C2110.234131,1070.121948 2110.234131,1082.424438 2110.234131,1094.726929 
	C2110.234131,1106.724121 2110.182129,1118.721680 2110.248535,1130.718506 
	C2110.316162,1142.887451 2109.944580,1155.082153 2110.483398,1167.016724 
	C2130.785645,1168.998169 2172.530273,1168.223145 2179.765381,1165.732056 
	C2179.765381,1116.276001 2179.765381,1066.637939 2179.765625,1015.000000 
M3474.248047,739.459045 
	C3474.473389,735.960632 3474.698486,732.462158 3474.969482,728.251587 
	C3497.101562,728.251587 3518.049805,728.271667 3538.998291,728.245972 
	C3559.836182,728.220398 3580.679443,728.365845 3601.584961,728.141174 
	C3601.584961,708.210449 3601.584961,689.735107 3601.584961,670.231567 
	C3592.700195,670.231567 3584.448730,670.231628 3576.197021,670.231628 
	C3567.535889,670.231628 3558.874756,670.231628 3550.213623,670.231628 
	C3541.885498,670.231628 3533.557617,670.231628 3525.229492,670.231628 
	C3516.568359,670.231628 3507.898682,670.472290 3499.248535,670.161743 
	C3491.114258,669.869690 3482.810059,671.568787 3474.856201,668.997803 
	C3474.856201,653.897766 3474.856201,639.381409 3474.856201,623.768433 
	C3501.341309,623.768433 3527.233398,623.808105 3553.125488,623.757324 
	C3579.290771,623.705994 3605.464844,623.986877 3631.442627,623.583557 
	C3633.340088,605.566772 3632.642578,569.578918 3630.419922,562.790894 
	C3556.623779,562.790894 3482.803223,562.790894 3408.368652,562.790894 
	C3408.368652,655.746948 3408.368652,748.144226 3408.368652,841.155212 
	C3482.931885,841.155212 3557.006592,841.155212 3630.974365,841.155212 
	C3633.000977,830.506958 3632.679932,789.645569 3630.422852,781.748413 
	C3617.681396,781.748413 3604.729248,781.748352 3591.777100,781.748352 
	C3578.785400,781.748352 3565.793701,781.748352 3552.802002,781.748352 
	C3539.810303,781.748352 3526.818604,781.775024 3513.826904,781.740906 
	C3500.972168,781.707092 3488.117676,781.611938 3474.248291,781.538269 
	C3474.248291,767.208557 3474.248291,754.289795 3474.248047,739.459045 
M2853.000000,623.768311 
	C2862.666016,623.768311 2872.333008,623.838867 2881.998047,623.748779 
	C2891.866211,623.656860 2901.772705,624.160156 2911.406006,623.434021 
	C2913.289795,606.792969 2912.621094,569.610901 2910.453857,562.818848 
	C2836.623535,562.818848 2762.770020,562.818848 2688.400146,562.818848 
	C2688.400146,655.838867 2688.400146,748.271118 2688.400146,841.058533 
	C2763.157471,841.058533 2837.265625,841.058533 2911.643066,841.058533 
	C2911.643066,821.183228 2911.643066,802.022278 2911.643066,781.748413 
	C2907.489014,781.748413 2903.913818,781.748352 2900.338623,781.748352 
	C2855.674316,781.748352 2811.010010,781.764465 2766.345703,781.719788 
	C2762.522461,781.716003 2758.699707,781.308655 2754.341064,781.057983 
	C2754.248779,762.921265 2754.107422,746.102539 2754.420654,728.113403 
	C2797.681152,728.113403 2839.484619,728.113403 2881.688232,728.113403 
	C2881.688232,708.418152 2881.688232,689.931152 2881.688232,670.452942 
	C2839.101562,669.831360 2797.018799,670.640625 2754.801270,670.007996 
	C2754.801270,654.044739 2754.801270,639.524109 2754.801270,623.768066 
	C2787.226318,623.768066 2819.113037,623.768066 2853.000000,623.768311 
M3516.300781,1079.111938 
	C3517.454590,1071.246338 3519.563477,1063.386108 3519.607422,1055.514282 
	C3519.903809,1002.524963 3519.772949,949.533142 3519.726074,896.542236 
	C3519.723877,894.006836 3519.208496,891.471802 3518.927246,888.892700 
	C3495.713379,888.892700 3473.222412,888.892700 3449.751465,888.892700 
	C3449.751465,893.138428 3449.751465,896.729370 3449.751465,900.320374 
	C3449.751465,947.978943 3449.824707,995.637695 3449.666504,1043.295776 
	C3449.644531,1049.893677 3449.179688,1056.650635 3447.701172,1063.052612 
	C3443.608643,1080.771606 3434.561523,1095.080933 3416.967773,1102.223633 
	C3398.276123,1109.812012 3379.235840,1110.052856 3360.792969,1101.890381 
	C3354.362061,1099.044189 3348.427979,1094.078247 3343.579102,1088.860962 
	C3333.091553,1077.576538 3329.766602,1063.381470 3329.764893,1048.285889 
	C3329.759277,998.627686 3329.772949,948.969421 3329.741211,899.311218 
	C3329.738770,895.802917 3329.427490,892.294922 3329.268555,888.967041 
	C3305.542969,888.967041 3283.045654,888.967041 3259.751465,888.967041 
	C3259.751465,893.316650 3259.751465,896.933716 3259.751465,900.550781 
	C3259.751465,950.875549 3259.867188,1001.200867 3259.667480,1051.524780 
	C3259.619385,1063.615723 3260.883057,1075.441284 3264.150635,1087.018311 
	C3274.836426,1124.875488 3298.160400,1151.171021 3335.606445,1164.281738 
	C3362.293213,1173.625610 3389.642090,1173.905273 3417.353516,1170.309204 
	C3467.290771,1163.829224 3505.020020,1126.489746 3516.300781,1079.111938 
M3926.053467,1047.096069 
	C3910.873535,1087.006348 3894.842529,1126.600098 3879.749756,1167.769653 
	C3901.004883,1167.769653 3920.637939,1167.782593 3940.270752,1167.764404 
	C3950.618164,1167.754883 3950.537354,1167.700195 3954.254395,1157.757568 
	C3959.359619,1144.101196 3964.602295,1130.496216 3969.749268,1116.966431 
	C3971.718262,1116.665161 3973.003174,1116.298096 3974.288574,1116.296753 
	C4008.941895,1116.260254 4043.595947,1116.358398 4078.248291,1116.159546 
	C4083.991455,1116.126587 4086.425049,1118.636475 4088.175293,1123.736328 
	C4092.383545,1135.998413 4097.479004,1147.961914 4101.503906,1160.278809 
	C4103.397461,1166.073242 4106.281738,1168.008179 4112.269043,1167.894897 
	C4130.588379,1167.547974 4148.918945,1167.793945 4167.245117,1167.731567 
	C4169.387695,1167.724365 4171.528809,1167.232056 4174.968262,1166.802612 
	C4139.494629,1073.280151 4104.422852,980.816772 4069.307617,888.239929 
	C4043.198242,888.239929 4018.233643,888.318909 3993.270752,888.166504 
	C3988.840088,888.139404 3986.581543,890.045593 3985.173584,893.949097 
	C3982.805664,900.516113 3980.255127,907.018127 3977.729980,913.527649 
	C3960.651855,957.554871 3943.560059,1001.576843 3926.053467,1047.096069 
M4334.406738,946.232300 
	C4356.392578,949.896484 4377.130859,957.292969 4396.965332,968.687866 
	C4403.731934,947.163452 4411.262207,927.407532 4416.500977,906.857300 
	C4413.226074,905.036621 4411.021973,903.515808 4408.603516,902.511841 
	C4381.619629,891.310303 4353.325684,885.803711 4324.303223,884.358154 
	C4303.303223,883.312256 4282.433105,885.322571 4262.321777,891.934021 
	C4238.645508,899.717529 4219.556641,913.411011 4208.618164,936.518188 
	C4202.276367,949.914978 4200.175293,964.034851 4201.460449,978.994995 
	C4202.510742,991.217957 4205.193359,1002.576111 4211.794922,1012.912292 
	C4221.743652,1028.489502 4236.163574,1038.457031 4253.425781,1043.845093 
	C4274.343750,1050.374390 4295.679688,1055.552856 4316.681641,1061.828369 
	C4324.903320,1064.284912 4333.058105,1067.478271 4340.617676,1071.509399 
	C4350.534180,1076.797607 4352.463867,1087.836304 4346.147949,1097.157837 
	C4341.815918,1103.550293 4335.592285,1107.600586 4328.387695,1109.214966 
	C4320.673340,1110.943237 4312.609375,1112.138062 4304.737305,1111.946777 
	C4278.246094,1111.303223 4253.948242,1102.732788 4231.013184,1089.881958 
	C4228.224121,1088.319214 4225.372559,1086.869751 4221.458008,1084.786743 
	C4215.939941,1106.303223 4210.708496,1126.702148 4205.332520,1147.665649 
	C4210.529297,1150.237793 4214.817871,1152.761230 4219.391602,1154.558716 
	C4247.145020,1165.464478 4275.794922,1172.283325 4305.770508,1172.203979 
	C4331.688477,1172.135254 4356.777832,1168.172607 4379.390137,1154.371216 
	C4405.713867,1138.305298 4420.562500,1114.968994 4421.608398,1084.019897 
	C4422.613281,1054.287720 4408.999512,1032.437134 4382.928223,1018.258545 
	C4369.709961,1011.069885 4355.692383,1006.017822 4341.271973,1001.781372 
	C4323.109863,996.445374 4305.086426,990.616699 4287.127441,984.626221 
	C4283.501465,983.416809 4279.978516,981.007568 4277.197266,978.331360 
	C4270.097168,971.500244 4270.604004,960.086670 4277.956543,953.536682 
	C4282.816406,949.207397 4288.707520,947.310181 4295.042480,946.001648 
	C4307.636230,943.400452 4320.120605,944.129883 4334.406738,946.232300 
M1913.776611,620.848206 
	C1909.766968,627.723694 1905.158081,634.323975 1901.852661,641.522766 
	C1888.251831,671.143311 1885.449585,702.213928 1891.906494,733.898926 
	C1901.503296,780.991943 1929.632080,813.633362 1972.697998,833.759155 
	C1991.018066,842.320557 2010.671387,845.510071 2030.783203,846.068604 
	C2063.125244,846.966858 2093.542480,839.977783 2121.280273,823.062683 
	C2129.678223,817.941406 2137.285400,811.522888 2146.080566,805.094971 
	C2134.908447,787.674194 2125.239502,770.818176 2113.413330,754.786438 
	C2094.362305,768.744019 2074.381592,778.355896 2051.747803,781.076538 
	C2031.503906,783.509949 2011.962524,781.457214 1994.345093,769.690186 
	C1967.581909,751.814331 1952.812866,715.447815 1963.841919,678.737488 
	C1973.417480,646.865173 1998.441406,626.179993 2032.545654,624.380493 
	C2057.130615,623.083313 2079.912354,629.692810 2100.670410,643.050537 
	C2104.797363,645.706177 2108.988281,648.262695 2114.113281,651.467651 
	C2124.946533,634.502869 2135.389404,618.149414 2146.392578,600.918640 
	C2136.423584,593.984192 2127.568848,586.869202 2117.852783,581.241089 
	C2085.635010,562.578369 2050.790283,557.169189 2014.040649,561.643860 
	C1972.469849,566.705505 1939.382202,585.966919 1913.776611,620.848206 
M2219.046631,562.229797 
	C2211.815918,562.229797 2204.585205,562.229797 2198.001709,562.229797 
	C2197.095459,563.984192 2196.543945,564.553955 2196.542969,565.124573 
	C2196.415283,654.688477 2196.324463,744.252441 2196.258789,833.816406 
	C2196.257324,835.797852 2196.541016,837.781677 2196.746826,839.758606 
	C2196.775391,840.030762 2197.117432,840.278625 2197.333496,840.520325 
	C2197.555176,840.768250 2197.800293,840.994995 2198.469971,841.667725 
	C2220.531494,841.845154 2243.015625,841.759277 2265.510498,841.755798 
	C2265.510498,747.884705 2265.510498,655.511902 2265.510498,562.230103 
	C2250.203125,562.230103 2235.616455,562.230103 2219.046631,562.229797 
M977.794006,1504.755127 
	C979.643250,1503.337646 981.462341,1501.878418 983.346863,1500.509521 
	C992.322815,1493.990234 992.325684,1494.004028 1001.421387,1500.680298 
	C1012.414490,1508.748901 1023.379456,1516.856445 1034.423218,1524.855225 
	C1041.870728,1530.249268 1049.433960,1535.483521 1056.945312,1540.789307 
	C1057.437744,1540.498535 1057.930054,1540.207886 1058.422363,1539.917114 
	C1050.254517,1514.793823 1042.086670,1489.670532 1033.788818,1464.147339 
	C1055.327759,1448.409180 1076.339722,1433.056152 1097.351685,1417.703003 
	C1097.104736,1417.108765 1096.857666,1416.514526 1096.610596,1415.920288 
	C1070.796875,1415.920288 1044.983032,1415.920288 1018.232605,1415.920288 
	C1009.912964,1390.614868 1001.724609,1365.708984 993.536255,1340.802979 
	C990.312866,1344.002808 988.998779,1346.971558 987.992554,1350.041260 
	C981.986450,1368.364136 976.200867,1386.760742 970.037231,1405.030151 
	C966.254395,1416.242676 968.902283,1415.742310 954.835449,1415.744141 
	C934.854187,1415.746704 914.872925,1415.727783 894.891785,1415.768066 
	C892.472778,1415.772949 890.054504,1416.087280 886.070862,1416.368774 
	C890.920471,1420.176025 894.204895,1422.924316 897.659851,1425.437866 
	C913.255615,1436.783569 928.917664,1448.038086 944.517456,1459.378174 
	C950.863647,1463.991455 950.900452,1464.079102 948.439514,1471.641602 
	C942.469849,1489.986572 936.360657,1508.286377 930.442627,1526.647827 
	C929.166992,1530.605591 928.460083,1534.746582 927.491211,1538.803223 
	C928.041504,1539.179077 928.591797,1539.554810 929.142090,1539.930542 
	C944.965698,1528.486816 960.789246,1517.043091 977.794006,1504.755127 
M1444.410645,1323.712036 
	C1445.353271,1320.237183 1446.295898,1316.762451 1447.316406,1313.000366 
	C1472.431519,1308.977051 1497.659912,1307.950195 1524.719849,1303.315308 
	C1500.806641,1289.687744 1479.194580,1277.371460 1456.878540,1264.654053 
	C1461.954346,1239.428345 1466.922852,1214.735596 1471.891357,1190.042847 
	C1471.331421,1189.830688 1470.771606,1189.618652 1470.211670,1189.406616 
	C1451.557983,1206.305786 1432.904297,1223.204834 1414.216797,1240.134644 
	C1391.733398,1228.345459 1370.953979,1214.980103 1348.137817,1204.781616 
	C1348.938965,1209.485229 1350.437012,1213.441895 1352.170044,1217.292603 
	C1359.680298,1233.981689 1367.136108,1250.697510 1374.891968,1267.272461 
	C1377.078003,1271.944458 1376.588501,1275.054443 1372.579346,1278.528564 
	C1360.516846,1288.981812 1348.724121,1299.750122 1336.947388,1310.527954 
	C1331.962280,1315.090332 1327.279541,1319.983032 1322.459229,1324.725464 
	C1322.783203,1325.296631 1323.107056,1325.867920 1323.431030,1326.439087 
	C1348.023682,1323.761108 1372.616333,1321.083252 1397.483276,1318.375488 
	C1409.541138,1341.154419 1418.050049,1365.133301 1431.019287,1389.458984 
	C1435.759399,1366.374512 1439.968628,1345.874878 1444.410645,1323.712036 
M622.818054,1322.164551 
	C635.967651,1322.992188 648.970642,1326.363037 664.229553,1325.845581 
	C645.700562,1309.068604 629.030212,1293.797852 612.125305,1278.791260 
	C607.860413,1275.005371 607.630493,1271.682739 610.013672,1266.637573 
	C618.537292,1248.593384 626.585754,1230.324341 634.744019,1212.108887 
	C635.841248,1209.658936 636.538208,1207.029663 638.107605,1202.500610 
	C633.022705,1205.153931 630.074341,1206.588013 627.224487,1208.196777 
	C610.415588,1217.685669 593.545410,1227.071289 576.887878,1236.819702 
	C571.965271,1239.700562 568.483093,1239.030273 564.512146,1235.254028 
	C552.220154,1223.564453 539.743591,1212.067017 527.232788,1200.610718 
	C523.293640,1197.003540 519.020264,1193.761353 514.899841,1190.352295 
	C514.298218,1190.776611 513.696594,1191.201050 513.094971,1191.625488 
	C517.949646,1215.627197 522.804321,1239.628906 527.839111,1264.521118 
	C505.643494,1277.263672 483.574341,1289.933472 459.434052,1303.792480 
	C484.150299,1306.640991 506.444397,1309.263184 528.752991,1311.755615 
	C537.771667,1312.763184 538.120667,1312.882324 539.820740,1321.407349 
	C542.678406,1335.736938 545.424927,1350.088867 548.328003,1364.409180 
	C549.869385,1372.012329 551.641663,1379.568726 553.772461,1389.248535 
	C556.110901,1384.826416 557.437012,1382.590210 558.513794,1380.239502 
	C566.966797,1361.787476 575.363098,1343.309448 583.796814,1324.848511 
	C586.843201,1318.180298 587.295044,1318.100098 594.313721,1318.991943 
	C603.194336,1320.120361 612.111084,1320.964111 622.818054,1322.164551 
M1227.334595,1462.363647 
	C1231.126465,1456.199341 1234.918335,1450.035156 1238.802490,1443.720825 
	C1247.948364,1445.896362 1256.318726,1447.873413 1264.682007,1449.880737 
	C1272.751953,1451.817749 1280.800415,1453.846924 1288.884277,1455.723755 
	C1296.917847,1457.588745 1304.983643,1459.314331 1313.035156,1461.101074 
	C1299.196777,1442.577026 1284.709595,1425.733032 1270.262329,1408.854614 
	C1264.324585,1401.917603 1264.270508,1401.762085 1268.880005,1394.170532 
	C1278.718018,1377.967896 1288.676880,1361.838623 1298.531006,1345.645752 
	C1300.266357,1342.794067 1301.733521,1339.779175 1303.324463,1336.839600 
	C1302.818359,1336.413940 1302.312134,1335.988281 1301.805908,1335.562622 
	C1278.891846,1345.061035 1255.977661,1354.559448 1232.367065,1364.346558 
	C1215.885010,1345.236328 1199.547607,1326.293701 1183.210205,1307.351074 
	C1182.607544,1307.623779 1182.004883,1307.896484 1181.402222,1308.169189 
	C1183.174561,1333.178589 1184.947021,1358.187988 1186.724121,1383.263184 
	C1162.724976,1393.299683 1139.781006,1402.894775 1114.572144,1413.437256 
	C1141.406250,1421.424805 1166.907715,1425.316772 1190.934448,1432.902222 
	C1191.836792,1442.308594 1192.664795,1450.540527 1193.405884,1458.780396 
	C1194.148193,1467.033447 1194.652344,1475.310425 1195.540405,1483.546997 
	C1196.388672,1491.414795 1194.813721,1499.629883 1198.340454,1509.412354 
	C1208.517212,1492.893311 1217.540039,1478.247314 1227.334595,1462.363647 
z"/>
<path fill="#949699" opacity="1.000000" stroke="none" 
	d="
M896.285645,739.479004 
	C897.446899,749.603088 899.458740,758.806335 899.552979,768.029175 
	C899.873535,799.387146 909.364258,828.857605 917.184814,858.692444 
	C919.933960,869.180298 922.835022,879.628235 925.666687,890.094421 
	C926.361877,890.049683 927.057068,890.004944 927.752258,889.960205 
	C927.752258,887.256836 927.752258,884.553406 927.752197,881.849976 
	C927.751831,857.521729 927.985657,833.189880 927.616516,808.867188 
	C927.496826,800.979553 926.422852,792.976624 924.704285,785.267395 
	C919.503296,761.937073 913.772339,738.724792 907.925659,714.109741 
	C935.459412,706.165222 963.170288,704.293640 992.474548,704.184509 
	C991.397766,710.964661 990.745972,716.469727 989.626404,721.878052 
	C984.644714,745.943848 979.466553,769.969177 974.530823,794.044312 
	C973.803467,797.592285 973.796875,801.328796 973.793274,804.978333 
	C973.747192,850.968750 973.814209,896.959229 973.695374,942.949341 
	C973.681274,948.429321 974.874939,953.279053 977.208374,958.253296 
	C991.899292,989.570740 993.095703,1020.950012 977.104553,1052.328491 
	C974.856812,1056.739136 973.102173,1061.481934 971.739502,1066.248169 
	C966.768372,1083.635620 978.548035,1101.313477 996.429871,1103.635132 
	C1009.346191,1105.312134 1025.101807,1092.050415 1025.956421,1077.985474 
	C1026.288818,1072.512939 1025.416138,1066.622192 1023.607910,1061.439819 
	C1020.333130,1052.054443 1014.906921,1043.350830 1012.219360,1033.842285 
	C1004.775757,1007.507141 1008.134644,981.920837 1019.640320,957.213623 
	C1021.116516,954.043762 1022.117249,950.320801 1022.128235,946.850220 
	C1022.285522,897.194458 1022.717590,847.530090 1021.908447,797.886963 
	C1021.695068,784.792542 1017.670288,771.728088 1015.081482,758.712341 
	C1011.593872,741.177795 1007.801880,723.703857 1004.159424,706.294250 
	C1017.342896,701.804382 1063.992310,706.187073 1087.761841,714.090515 
	C1087.632080,716.327393 1087.850952,718.912903 1087.285645,721.313843 
	C1081.880127,744.275940 1076.317871,767.200928 1070.876099,790.154541 
	C1070.266724,792.724731 1069.821289,795.405579 1069.815918,798.036133 
	C1069.755859,827.362976 1069.792480,856.690002 1069.829224,886.017029 
	C1069.830811,887.306030 1070.085327,888.594788 1071.284790,890.110474 
	C1078.764526,861.986755 1088.040039,834.188904 1093.219238,805.647644 
	C1098.406372,777.063477 1099.502441,747.737000 1102.505127,717.595764 
	C1129.324219,725.728027 1153.408691,737.045776 1176.509521,752.619751 
	C1164.781372,776.340210 1151.968506,799.003845 1142.206299,822.913147 
	C1132.448730,846.810730 1125.743042,871.954468 1117.669922,896.642273 
	C1127.083984,898.717651 1127.164185,898.765747 1131.221313,891.997864 
	C1150.935181,859.111633 1168.432739,825.192871 1180.088135,788.477844 
	C1182.984863,779.353210 1186.861206,770.539551 1190.271118,761.625183 
	C1203.202515,766.137207 1240.784546,801.318420 1248.666138,816.129700 
	C1246.610107,818.365601 1244.472778,820.852051 1242.166626,823.170593 
	C1230.885376,834.511963 1220.056641,846.367798 1208.124634,856.981323 
	C1192.760010,870.648254 1184.072754,888.646240 1173.968018,905.802368 
	C1172.978516,907.482483 1172.259888,909.322083 1171.098145,911.751099 
	C1173.709351,913.859131 1176.218506,915.884766 1178.899780,918.049438 
	C1211.796143,893.093323 1233.890991,858.798950 1259.026245,827.329346 
	C1270.395630,836.791748 1290.178955,871.976196 1297.341797,894.829773 
	C1281.989624,901.703735 1266.466797,908.409729 1251.191895,915.639771 
	C1246.499390,917.860718 1241.944824,920.971130 1238.268311,924.622192 
	C1229.317627,933.511292 1220.918213,942.955750 1211.934082,952.564392 
	C1213.294556,955.425476 1214.489990,957.939453 1216.078857,961.280945 
	C1232.327393,953.683289 1248.955566,948.397888 1263.054199,938.379578 
	C1276.772217,928.631775 1289.475098,917.455383 1303.664551,906.071167 
	C1311.037964,921.725403 1316.849243,936.195068 1318.258667,952.522827 
	C1292.032593,963.247864 1266.511597,973.681641 1240.993774,984.123474 
	C1237.915649,985.383118 1234.906738,986.831238 1231.776733,987.940735 
	C1222.890503,991.090210 1216.178589,995.286865 1211.539551,1004.956909 
	C1203.804810,1021.079651 1187.749512,1026.151733 1170.887817,1028.113159 
	C1152.168579,1030.290771 1134.410889,1034.996704 1118.647827,1046.030884 
	C1106.565186,1054.488647 1097.350342,1065.144531 1091.639038,1078.665161 
	C1084.625977,1095.267700 1076.727661,1111.369507 1066.057007,1125.954346 
	C1062.338135,1131.037476 1058.173340,1135.805420 1054.058594,1140.585205 
	C1043.302856,1153.079468 1029.125977,1159.337402 1013.229248,1161.482910 
	C999.647095,1163.316040 986.036438,1162.583130 972.603577,1159.169678 
	C955.372559,1154.791138 943.221619,1143.194458 933.580322,1129.595215 
	C924.014038,1116.101562 914.897705,1101.689575 908.914001,1086.378906 
	C896.047241,1053.456421 871.579102,1036.640015 838.455322,1029.922852 
	C830.666077,1028.343140 822.635071,1027.869141 814.919739,1026.029175 
	C799.513367,1022.355164 787.558655,1013.932617 781.888428,998.563171 
	C779.978943,993.387329 775.962280,991.705688 771.653809,989.953308 
	C745.155334,979.175903 718.634583,968.453003 692.145081,957.653625 
	C688.174316,956.034851 684.328247,954.110107 679.756653,952.021790 
	C681.665527,936.054382 687.376526,921.807678 694.232422,905.938416 
	C708.371765,917.269470 720.727051,928.918579 734.771973,937.936157 
	C748.899475,947.006714 764.707825,953.459290 779.539490,960.937927 
	C785.290100,953.400085 785.377930,953.322144 781.073120,948.471130 
	C774.672668,941.258423 767.808167,934.433350 761.732361,926.962524 
	C753.458374,916.788818 741.128723,913.915039 730.213928,908.550842 
	C720.407288,903.731201 710.240967,899.643616 700.413940,895.312744 
	C702.180969,881.338013 724.007019,840.897461 737.350098,827.097717 
	C763.254639,858.054138 784.299805,893.279846 817.936890,917.677551 
	C818.648499,917.259521 819.807861,916.656982 820.882202,915.929016 
	C822.515320,914.822510 824.089417,913.628967 826.545105,911.852966 
	C822.973755,905.779053 819.157654,900.044006 816.094421,893.931641 
	C808.227905,878.234619 797.351807,865.021484 784.563721,853.095825 
	C774.089783,843.328247 764.211731,832.920410 754.110229,822.755920 
	C751.816589,820.447937 749.691101,817.972778 747.077576,815.127563 
	C764.688171,794.657959 783.351318,776.493408 805.787842,760.346313 
	C807.981812,765.443481 809.954224,769.539917 811.535156,773.782227 
	C818.618896,792.790955 824.826355,812.170959 832.845703,830.772217 
	C839.270447,845.674683 847.796814,859.676392 855.490479,874.024231 
	C858.948669,880.473389 862.850647,886.689636 866.178772,893.201843 
	C868.847656,898.424133 872.515991,899.363159 877.778503,897.130005 
	C867.330444,845.708313 844.936279,799.139893 820.496643,753.979980 
	C833.004150,741.946960 869.479919,724.295166 893.008118,718.452454 
	C897.379028,724.586792 895.170410,731.870483 896.285645,739.479004 
z"/>
<path fill="#939598" opacity="1.000000" stroke="none" 
	d="
M768.397278,1049.697998 
	C781.108459,1060.498169 795.676270,1064.599487 811.148315,1066.138184 
	C829.491028,1067.962280 846.935791,1072.490234 865.217957,1083.257202 
	C856.497314,1085.080322 850.027466,1086.624268 843.487610,1087.767944 
	C810.144653,1093.598877 776.820557,1099.551880 743.417542,1105.020630 
	C714.935852,1109.683350 686.388550,1113.976562 657.810913,1118.012695 
	C628.590942,1122.139648 599.339844,1126.114136 570.023682,1129.467407 
	C550.581543,1131.691284 531.024353,1133.186768 511.476288,1134.135864 
	C487.913086,1135.280029 464.291565,1136.232788 440.722351,1135.798828 
	C429.630707,1135.594604 418.313782,1132.918335 407.595947,1129.704712 
	C364.746246,1116.856201 323.362518,1100.505981 286.090118,1075.175171 
	C281.443665,1072.017334 277.408020,1067.969116 273.028412,1064.408447 
	C261.081818,1054.695923 264.463409,1033.655396 275.416321,1025.652954 
	C314.708099,996.945618 357.085754,974.484863 404.700165,962.963501 
	C411.111084,961.412292 417.791901,960.548584 424.386536,960.263428 
	C445.300720,959.359070 466.261108,957.893677 487.151794,958.483093 
	C513.652771,959.230957 540.112305,961.652527 566.571411,963.600830 
	C582.449341,964.769958 598.334290,966.057251 614.141663,967.922546 
	C641.151855,971.109741 668.108154,974.757874 695.071350,978.331238 
	C697.314331,978.628418 699.559204,979.591797 701.597717,980.643860 
	C716.669678,988.422180 731.689575,996.301575 747.136108,1004.363281 
	C748.210938,1022.046997 754.281860,1037.427612 768.397278,1049.697998 
z"/>
<path fill="#939598" opacity="1.000000" stroke="none" 
	d="
M1614.462891,971.402649 
	C1649.246704,983.949280 1680.518799,1001.401978 1710.142334,1022.052429 
	C1719.634888,1028.669678 1724.890381,1036.846924 1724.393677,1048.783691 
	C1724.154785,1054.526001 1722.379517,1058.889404 1718.470093,1062.985352 
	C1706.766602,1075.247925 1692.278076,1083.471069 1677.602173,1091.311523 
	C1644.310669,1109.097046 1609.286255,1122.666382 1572.852417,1132.416016 
	C1564.279907,1134.710083 1555.194580,1135.870483 1546.312744,1136.063843 
	C1527.338745,1136.477173 1508.269409,1136.922607 1489.374268,1135.525391 
	C1458.966064,1133.277100 1428.633911,1129.841309 1398.332520,1126.358887 
	C1371.305176,1123.252686 1344.334229,1119.610596 1317.392578,1115.819580 
	C1294.391602,1112.583130 1271.432617,1109.010864 1248.517944,1105.208008 
	C1214.795532,1099.611328 1181.124634,1093.703979 1147.442627,1087.865601 
	C1140.596436,1086.678833 1133.798828,1085.210327 1125.454468,1083.572510 
	C1128.221802,1081.522095 1129.761108,1080.038086 1131.579468,1079.088623 
	C1145.924316,1071.597412 1161.333130,1067.769287 1177.346069,1066.201904 
	C1195.725952,1064.402832 1212.383301,1058.927124 1225.596802,1045.137451 
	C1232.739014,1037.683838 1237.493652,1028.932983 1239.540161,1019.087158 
	C1240.618530,1013.898193 1243.078979,1010.900208 1247.159180,1008.382080 
	C1260.468018,1000.168457 1273.930176,992.180786 1286.943359,983.520264 
	C1292.990356,979.495850 1299.418457,977.362122 1306.343140,976.489319 
	C1330.375732,973.460449 1354.409668,970.410217 1378.491455,967.815063 
	C1404.204224,965.044189 1429.967041,962.729431 1455.719482,960.341431 
	C1460.350830,959.911926 1465.039062,960.109985 1469.700195,959.987122 
	C1491.632812,959.409180 1513.577881,958.058228 1535.494019,958.430969 
	C1562.084839,958.883118 1588.581299,961.211914 1614.462891,971.402649 
z"/>
<path fill="#949699" opacity="1.000000" stroke="none" 
	d="
M1424.021240,567.767700 
	C1412.805908,568.595154 1402.531494,569.264221 1392.295166,570.309326 
	C1386.104126,570.941406 1381.694214,568.739990 1377.411743,564.242859 
	C1346.961914,532.267151 1312.717773,504.921875 1275.273926,481.555542 
	C1223.703247,449.373505 1168.219849,426.781769 1108.786743,414.057800 
	C1103.928711,413.017792 1102.100342,410.610809 1101.034912,406.428772 
	C1094.339111,380.147491 1083.408447,355.552216 1070.905273,331.616302 
	C1066.323975,322.846039 1061.271362,314.322021 1055.549438,304.106964 
	C1218.872803,322.063232 1355.332397,390.189270 1464.675659,510.472809 
	C1598.642456,657.843506 1632.481934,837.598999 1624.932007,944.862305 
	C1593.623657,932.545959 1561.094604,929.248718 1526.851440,929.782898 
	C1526.628540,926.167175 1526.246582,923.009521 1526.268799,919.854736 
	C1526.456055,893.183594 1523.322266,866.846252 1518.528442,840.663269 
	C1517.494141,835.013489 1517.997803,830.045837 1521.225830,824.563965 
	C1530.569580,808.695557 1530.057373,791.525696 1525.163330,774.312988 
	C1523.710571,769.204041 1522.048096,764.093750 1519.860229,759.265808 
	C1511.592896,741.023560 1512.758789,722.421631 1517.005127,703.559387 
	C1519.336182,693.204285 1521.781860,682.834351 1523.283203,672.343384 
	C1525.110840,659.572083 1521.991943,647.149597 1518.053711,635.142700 
	C1504.787231,594.697937 1465.388550,566.980652 1424.021240,567.767700 
z"/>
<path fill="#949699" opacity="1.000000" stroke="none" 
	d="
M363.756348,937.323730 
	C364.586914,913.807373 364.348389,891.115234 366.489777,868.649963 
	C370.309174,828.579956 378.308044,789.206726 389.942413,750.607422 
	C401.694244,711.618408 417.056091,674.107971 436.124451,638.158997 
	C456.455414,599.829590 480.464844,563.926086 508.130829,530.452881 
	C527.254395,507.315186 547.801392,485.524750 570.048462,465.438812 
	C605.727539,433.225800 644.520569,405.251953 686.510437,381.720184 
	C736.745483,353.567657 789.824829,332.617767 845.800903,319.368713 
	C868.695190,313.949860 892.076355,310.582489 915.251038,306.364166 
	C917.130310,306.022095 919.125977,306.319031 922.164062,306.319031 
	C915.995850,316.833557 910.209778,326.415894 904.696228,336.152527 
	C892.454712,357.770386 884.636780,381.001953 880.107422,405.359161 
	C878.472290,414.152527 878.680237,414.207489 870.101379,416.305023 
	C830.526611,425.981018 792.416260,439.774109 756.117981,458.219391 
	C716.207153,478.500275 679.028503,503.010162 645.693542,533.045959 
	C633.832520,543.733032 622.300964,554.795776 610.876465,565.950745 
	C607.772034,568.981934 604.706055,570.642090 600.370361,570.289490 
	C594.736694,569.831421 588.959106,570.299011 583.451538,569.262573 
	C524.937134,558.251465 472.874786,602.063538 467.397339,656.050781 
	C465.723816,672.545349 469.539551,687.682129 472.968231,703.086487 
	C477.344238,722.746948 477.832306,741.750977 469.793152,760.744080 
	C464.741547,772.678894 461.041382,785.077576 461.621246,798.483398 
	C462.020477,807.713562 463.979462,816.290222 468.762543,824.077393 
	C471.521423,828.569031 472.864929,833.058594 471.909363,838.268860 
	C466.625519,867.080200 463.432770,896.091064 463.669983,925.427612 
	C463.677673,926.376465 463.268341,927.328735 462.743988,929.647888 
	C429.798981,929.476562 396.885742,932.122375 364.912231,945.024048 
	C364.381134,941.902893 364.070343,940.076538 363.756348,937.323730 
z"/>
<path fill="#939598" opacity="1.000000" stroke="none" 
	d="
M1485.330566,721.165771 
	C1482.471069,739.462585 1488.042847,755.382141 1493.687378,771.438904 
	C1496.518433,779.492310 1498.183960,788.028076 1499.622192,796.474243 
	C1500.664673,802.595215 1498.088013,808.081177 1494.599731,813.250610 
	C1486.358521,825.463196 1474.612915,833.802734 1462.553711,841.373901 
	C1426.213745,864.189819 1389.483032,886.383545 1352.892822,908.800354 
	C1350.917969,910.010132 1348.926758,911.279297 1346.784790,912.114807 
	C1337.461060,915.751587 1333.436646,913.905823 1330.271240,904.386841 
	C1314.940430,858.283203 1290.743408,817.444580 1258.601807,781.015320 
	C1240.870361,760.918640 1220.793823,743.681702 1199.423706,727.757202 
	C1198.093140,726.765686 1196.741943,725.793823 1195.488525,724.710815 
	C1195.017578,724.303894 1194.798096,723.605835 1194.187134,722.572632 
	C1195.428345,719.878601 1196.719604,716.861633 1198.183716,713.931091 
	C1213.361694,683.554199 1228.227295,653.013245 1243.963379,622.927795 
	C1248.981201,613.334167 1255.987183,604.690613 1262.720581,596.112427 
	C1268.182129,589.154419 1276.539673,586.498657 1284.908569,586.476440 
	C1294.789062,586.450134 1304.785278,587.512085 1314.532349,589.230469 
	C1330.854370,592.108032 1346.893799,596.864746 1363.291260,598.947937 
	C1375.355469,600.480530 1387.820435,599.386658 1400.072266,598.773071 
	C1413.576782,598.096741 1426.798218,594.809387 1440.608765,597.999023 
	C1476.285645,606.238770 1500.577026,643.356812 1493.198242,679.239136 
	C1490.394653,692.873474 1488.093994,706.611389 1485.330566,721.165771 
z"/>
<path fill="#939598" opacity="1.000000" stroke="none" 
	d="
M767.227417,664.733093 
	C777.088867,684.422974 786.590393,703.458618 796.423950,723.159485 
	C793.508118,725.502075 790.802246,727.884644 787.891602,729.983521 
	C736.523987,767.025940 698.283142,814.778992 672.139954,872.289307 
	C667.472778,882.556152 663.901917,893.324402 659.900818,903.889954 
	C656.877075,911.874512 654.835388,913.517273 646.500610,911.923584 
	C642.045654,911.071899 637.546875,909.181641 633.668701,906.786987 
	C608.203735,891.063416 582.924316,875.039795 557.538635,859.187317 
	C545.412292,851.614685 532.939270,844.568420 521.094666,836.584351 
	C513.698975,831.599060 506.733124,825.764954 500.377991,819.497009 
	C490.904602,810.153625 487.678345,798.677185 491.754333,785.649597 
	C493.537659,779.949768 495.112640,774.136169 497.477570,768.675415 
	C507.727875,745.007141 506.975922,720.886292 501.047058,696.461548 
	C499.793121,691.295837 498.639099,686.105957 497.431854,680.928894 
	C487.769897,639.495361 519.180847,595.567993 567.491394,596.319519 
	C573.430298,596.411926 579.377930,597.403381 585.278076,598.272827 
	C613.782593,602.473083 641.449768,598.185242 668.989136,590.901184 
	C678.527405,588.378357 688.522827,587.349060 698.380676,586.319458 
	C717.007812,584.373840 729.687622,594.164734 738.246582,609.223450 
	C748.431274,627.142334 757.382080,645.762512 767.227417,664.733093 
z"/>
<path fill="#939598" opacity="1.000000" stroke="none" 
	d="
M1063.189331,645.102905 
	C1061.949707,653.105042 1060.983154,660.253845 1059.850952,668.628174 
	C1015.906616,660.285156 972.768066,660.612427 928.777161,668.814087 
	C927.158813,655.883423 925.566040,644.146545 924.240295,632.379639 
	C920.232056,596.805359 916.174438,561.235291 912.448608,525.630981 
	C910.654236,508.483521 909.413757,491.273071 908.199951,474.071594 
	C907.312683,461.496704 906.626038,448.896454 906.296570,436.295807 
	C905.677185,412.602325 911.880920,390.225159 920.714417,368.566315 
	C932.671265,339.249268 951.055115,314.053680 972.465393,291.023956 
	C983.773560,278.860382 1002.754822,279.818665 1012.569092,292.933502 
	C1041.143677,331.117554 1063.086182,372.691376 1074.464722,419.274506 
	C1076.805786,428.858307 1077.800415,438.935760 1078.074097,448.822815 
	C1078.534180,465.449280 1078.683228,482.156281 1077.581421,498.737579 
	C1075.824341,525.181580 1073.062012,551.562683 1070.483643,577.946838 
	C1068.322021,600.065186 1065.815918,622.149902 1063.189331,645.102905 
z"/>
<path fill="#949699" opacity="1.000000" stroke="none" 
	d="
M2611.762695,588.024292 
	C2611.762451,672.881897 2611.762451,756.743103 2611.762451,841.769775 
	C2604.395020,841.769775 2598.156006,841.769836 2591.917236,841.769836 
	C2580.588623,841.769775 2569.254639,841.565430 2557.933838,841.861328 
	C2552.791748,841.995728 2549.389404,840.274414 2546.072510,836.256897 
	C2502.891113,783.955688 2459.529541,731.802917 2416.195312,679.627808 
	C2415.393311,678.662048 2414.370850,677.879456 2412.095215,675.731628 
	C2412.095215,731.567078 2412.095215,785.901123 2412.095215,841.703552 
	C2388.520508,841.825623 2366.050537,841.781128 2343.761230,841.715942 
	C2341.265625,834.199890 2340.193115,585.809265 2342.461914,563.089294 
	C2344.789307,562.817932 2347.301758,562.284668 2349.816895,562.271240 
	C2364.810059,562.191040 2379.811523,562.498657 2394.794189,562.092041 
	C2400.401855,561.939880 2404.020996,563.888672 2407.447266,568.067993 
	C2428.106689,593.268127 2448.944580,618.321838 2469.733643,643.415527 
	C2491.792725,670.041992 2513.859375,696.661987 2535.941406,723.269531 
	C2537.155029,724.731750 2538.539062,726.052795 2541.686279,729.398254 
	C2541.851318,672.661804 2541.656982,618.267761 2541.800293,564.062378 
	C2549.421143,561.805725 2599.915771,561.422485 2611.762695,563.588379 
	C2611.762695,571.229858 2611.762695,579.128906 2611.762695,588.024292 
z"/>
<path fill="#949699" opacity="1.000000" stroke="none" 
	d="
M2776.029785,1143.979736 
	C2736.585693,1096.393555 2697.501953,1049.417114 2656.850830,1000.556641 
	C2655.783936,1013.588135 2656.383789,1024.391724 2656.273438,1035.152222 
	C2656.160889,1046.149414 2656.248535,1057.148438 2656.248535,1068.146729 
	C2656.248535,1078.811768 2656.248535,1089.476685 2656.248535,1100.141724 
	C2656.248535,1111.140015 2656.248535,1122.138184 2656.248535,1133.136475 
	C2656.248535,1144.113281 2656.248535,1155.090088 2656.248535,1165.862427 
	C2648.714600,1168.194214 2598.584473,1168.637695 2586.853027,1166.550171 
	C2586.853027,1074.231323 2586.853027,981.802856 2586.853027,888.230652 
	C2592.638672,888.230652 2597.882812,888.230591 2603.126953,888.230652 
	C2615.458496,888.230713 2627.797363,888.480835 2640.117676,888.112061 
	C2645.301514,887.956970 2648.920410,889.550232 2652.157715,893.495850 
	C2681.476318,929.232117 2710.886475,964.893433 2740.296143,1000.554871 
	C2753.627197,1016.719421 2767.031982,1032.823364 2780.358643,1048.991577 
	C2781.604248,1050.503052 2782.527588,1052.280151 2783.600586,1053.933960 
	C2784.374512,1053.546509 2785.148438,1053.159058 2785.922363,1052.771606 
	C2785.922363,998.425293 2785.922363,944.079041 2785.922363,888.266602 
	C2809.519531,888.215881 2831.993164,888.177795 2854.291748,888.317871 
	C2856.687500,895.806641 2857.687500,1146.600464 2855.514648,1166.793701 
	C2853.461914,1167.101807 2851.254639,1167.708252 2849.044189,1167.720459 
	C2833.713867,1167.805664 2818.379395,1167.588623 2803.053467,1167.868164 
	C2797.852295,1167.963135 2794.276367,1166.223145 2791.139404,1162.173096 
	C2786.458496,1156.129517 2781.329102,1150.433350 2776.029785,1143.979736 
z"/>
<path fill="#949699" opacity="1.000000" stroke="none" 
	d="
M3794.405518,1093.647705 
	C3800.885742,1097.790649 3806.639160,1101.784668 3812.749512,1105.126587 
	C3827.287109,1113.077881 3842.582520,1113.229370 3858.186768,1108.773315 
	C3860.419434,1108.135742 3862.666992,1107.549805 3865.921143,1106.664185 
	C3868.151855,1124.951294 3870.342773,1142.913940 3872.586182,1161.305664 
	C3859.751221,1167.353638 3847.182129,1170.742432 3833.792969,1171.848999 
	C3807.385498,1174.031494 3785.051270,1164.212891 3764.104980,1149.500244 
	C3745.954346,1136.750732 3731.741699,1119.887451 3716.156250,1104.444580 
	C3704.829102,1093.221436 3693.323242,1082.178711 3681.901123,1071.051758 
	C3676.859131,1066.139771 3670.904785,1067.792725 3664.038574,1068.388794 
	C3664.038574,1101.172485 3664.038574,1133.675903 3664.038574,1167.251953 
	C3640.317871,1168.210083 3617.596924,1167.749634 3594.381348,1167.579590 
	C3594.381348,1074.145020 3594.381348,981.735229 3594.381348,888.717285 
	C3598.223389,888.536438 3601.476074,888.252319 3604.728760,888.250122 
	C3647.710205,888.220398 3690.702637,887.644653 3733.668945,888.446838 
	C3760.024414,888.939026 3785.109619,895.037537 3805.467529,913.607056 
	C3816.187988,923.385254 3824.809082,934.578613 3829.158203,948.665344 
	C3835.085938,967.865417 3836.086914,987.256714 3830.175049,1006.551514 
	C3822.091553,1032.933960 3803.724609,1049.777344 3778.680420,1059.920288 
	C3773.791748,1061.900269 3768.637939,1063.225342 3762.053955,1065.354492 
	C3773.036621,1074.976196 3783.438965,1084.089233 3794.405518,1093.647705 
M3756.547363,1001.103149 
	C3756.903076,1000.541870 3757.312012,1000.007019 3757.607422,999.415527 
	C3769.781250,975.023499 3754.195557,948.264832 3725.588379,949.616028 
	C3707.988281,950.447266 3690.316895,949.737732 3672.677979,949.803955 
	C3669.844482,949.814575 3667.012451,950.266235 3664.358887,950.498352 
	C3664.358887,972.759094 3664.358887,993.935730 3664.358887,1015.676758 
	C3667.467529,1015.884277 3670.052002,1016.200134 3672.636963,1016.206299 
	C3690.941895,1016.249634 3709.247314,1016.144592 3727.551514,1016.260254 
	C3739.338379,1016.334778 3748.950439,1012.262512 3756.547363,1001.103149 
z"/>
<path fill="#949699" opacity="1.000000" stroke="none" 
	d="
M3053.939209,888.229980 
	C3080.191162,887.707520 3104.742188,891.599060 3127.706543,902.257996 
	C3162.064941,918.205444 3185.881592,943.826843 3196.206055,980.870544 
	C3204.403320,1010.280640 3204.916504,1040.031860 3197.918701,1069.636719 
	C3187.006104,1115.801636 3156.937988,1144.651489 3113.104492,1159.941040 
	C3096.735352,1165.650635 3079.624023,1167.964233 3062.142334,1167.850464 
	C3022.829834,1167.594849 2983.514160,1167.770142 2944.199951,1167.770142 
	C2940.625244,1167.770142 2937.050537,1167.770264 2932.862305,1167.770264 
	C2932.862305,1074.273926 2932.862305,981.866577 2932.862305,888.229797 
	C2973.207275,888.229797 3013.078613,888.229797 3053.939209,888.229980 
M3125.041748,994.403198 
	C3112.270508,963.993103 3089.268555,949.375610 3056.419678,949.735229 
	C3041.109863,949.902893 3025.796387,949.724976 3010.485352,949.805115 
	C3007.966309,949.818237 3005.450195,950.356262 3002.864258,950.659729 
	C3002.864258,1003.151001 3002.864258,1054.906982 3002.864258,1106.357788 
	C3004.064697,1106.942383 3004.639404,1107.463989 3005.220215,1107.470337 
	C3027.469482,1107.714233 3049.857666,1109.495850 3071.880615,1105.638062 
	C3097.244385,1101.195068 3115.690186,1086.998047 3124.782227,1062.436890 
	C3132.907471,1040.486816 3132.166992,1018.152283 3125.041748,994.403198 
z"/>
<path fill="#949699" opacity="1.000000" stroke="none" 
	d="
M3303.650879,807.713867 
	C3281.486328,826.676086 3256.357422,837.106445 3228.183105,840.197876 
	C3219.629883,841.136414 3210.989990,841.665894 3202.386963,841.701782 
	C3164.423096,841.860229 3126.458252,841.770264 3088.493652,841.770264 
	C3084.893311,841.770264 3081.292725,841.770264 3076.967773,841.770264 
	C3076.967773,748.517212 3076.967773,656.139099 3076.967773,563.052063 
	C3079.504150,562.778381 3082.040039,562.269104 3084.576172,562.266174 
	C3126.869873,562.216675 3169.207764,561.023010 3211.445557,562.558960 
	C3256.605469,564.201172 3295.739990,580.325256 3323.184570,618.428711 
	C3333.649902,632.958496 3340.187988,649.383972 3343.245850,666.896606 
	C3348.693115,698.097778 3348.093994,729.087036 3337.385254,759.349548 
	C3330.667725,778.333069 3318.996338,793.871887 3303.650879,807.713867 
M3234.519531,773.899475 
	C3252.791748,764.904602 3265.056641,750.791443 3270.610107,731.118164 
	C3276.064697,711.793030 3275.849365,692.403503 3270.473877,673.102417 
	C3261.745850,641.763123 3232.386963,622.851013 3203.331299,623.682190 
	C3187.365723,624.138855 3171.375977,623.727478 3155.397705,623.798340 
	C3152.556396,623.810913 3149.717285,624.269409 3146.900391,624.519958 
	C3146.900391,677.220032 3146.900391,728.977966 3146.900391,781.755493 
	C3150.780029,781.755493 3154.035156,781.755554 3157.290039,781.755554 
	C3169.274170,781.755554 3181.264404,781.997681 3193.240723,781.691589 
	C3206.864014,781.343445 3220.408691,780.141907 3234.519531,773.899475 
z"/>
<path fill="#949699" opacity="1.000000" stroke="none" 
	d="
M2344.500488,1167.800903 
	C2300.229736,1155.784790 2269.150879,1129.178101 2250.424805,1088.388428 
	C2243.735107,1073.817139 2241.005371,1058.192261 2239.450684,1042.110107 
	C2237.029297,1017.065979 2239.767090,992.862488 2249.782227,970.055359 
	C2270.912842,921.935425 2307.553467,893.266968 2360.014404,885.741760 
	C2387.155273,881.848511 2413.981201,883.651672 2439.267822,894.374084 
	C2485.742920,914.081360 2514.849121,948.842773 2523.980713,998.843567 
	C2528.555908,1023.894653 2528.601562,1049.332397 2520.224365,1073.770996 
	C2501.539307,1128.279785 2463.879395,1160.930176 2406.612305,1170.263184 
	C2386.020264,1173.619141 2365.602051,1172.622803 2344.500488,1167.800903 
M2456.306641,1045.014648 
	C2459.588867,1031.085693 2458.833984,1017.169800 2454.623779,1003.696594 
	C2444.806152,972.278992 2423.263184,953.763855 2390.524658,950.589355 
	C2364.244141,948.041077 2341.578369,956.511963 2324.433350,977.919556 
	C2311.662354,993.865479 2307.298828,1011.947937 2307.697998,1031.863647 
	C2308.206787,1057.275513 2318.787842,1077.551025 2338.990723,1092.423462 
	C2377.973633,1121.120605 2443.717285,1106.040649 2456.306641,1045.014648 
z"/>
<path fill="#949699" opacity="1.000000" stroke="none" 
	d="
M2179.765625,1016.000000 
	C2179.765381,1066.637939 2179.765381,1116.276001 2179.765381,1165.732056 
	C2172.530273,1168.223145 2130.785645,1168.998169 2110.483398,1167.016724 
	C2109.944580,1155.082153 2110.316162,1142.887451 2110.248535,1130.718506 
	C2110.182129,1118.721680 2110.234131,1106.724121 2110.234131,1094.726929 
	C2110.234131,1082.424438 2110.234131,1070.121948 2110.234131,1058.021729 
	C2102.555420,1055.890747 1994.108521,1055.336182 1979.996338,1057.350342 
	C1979.996338,1093.581421 1979.996338,1130.022705 1979.996338,1167.107056 
	C1956.287720,1167.107056 1933.812500,1167.107056 1911.376221,1167.107056 
	C1909.406860,1159.940674 1908.717651,903.490601 1910.685913,888.954346 
	C1933.067627,888.954346 1955.562866,888.954346 1979.515015,888.954346 
	C1980.176025,924.218872 1979.407349,959.645325 1979.943848,995.619934 
	C2023.391968,995.619934 2065.917236,995.619934 2109.685303,995.619934 
	C2110.796387,987.006226 2110.090576,978.107361 2110.207764,969.275879 
	C2110.327148,960.279541 2110.234131,951.280396 2110.234131,942.282471 
	C2110.234131,933.617798 2110.234131,924.953125 2110.234131,916.288452 
	C2110.234131,907.366821 2110.234131,898.445251 2110.234131,888.888428 
	C2133.686523,888.888428 2156.121338,888.888428 2179.765625,888.888428 
	C2179.765625,931.233643 2179.765625,973.116821 2179.765625,1016.000000 
z"/>
<path fill="#949699" opacity="1.000000" stroke="none" 
	d="
M3474.248047,740.415039 
	C3474.248291,754.289795 3474.248291,767.208557 3474.248291,781.538269 
	C3488.117676,781.611938 3500.972168,781.707092 3513.826904,781.740906 
	C3526.818604,781.775024 3539.810303,781.748352 3552.802002,781.748352 
	C3565.793701,781.748352 3578.785400,781.748352 3591.777100,781.748352 
	C3604.729248,781.748352 3617.681396,781.748413 3630.422852,781.748413 
	C3632.679932,789.645569 3633.000977,830.506958 3630.974365,841.155212 
	C3557.006592,841.155212 3482.931885,841.155212 3408.368652,841.155212 
	C3408.368652,748.144226 3408.368652,655.746948 3408.368652,562.790894 
	C3482.803223,562.790894 3556.623779,562.790894 3630.419922,562.790894 
	C3632.642578,569.578918 3633.340088,605.566772 3631.442627,623.583557 
	C3605.464844,623.986877 3579.290771,623.705994 3553.125488,623.757324 
	C3527.233398,623.808105 3501.341309,623.768433 3474.856201,623.768433 
	C3474.856201,639.381409 3474.856201,653.897766 3474.856201,668.997803 
	C3482.810059,671.568787 3491.114258,669.869690 3499.248535,670.161743 
	C3507.898682,670.472290 3516.568359,670.231628 3525.229492,670.231628 
	C3533.557617,670.231628 3541.885498,670.231628 3550.213623,670.231628 
	C3558.874756,670.231628 3567.535889,670.231628 3576.197021,670.231628 
	C3584.448730,670.231628 3592.700195,670.231567 3601.584961,670.231567 
	C3601.584961,689.735107 3601.584961,708.210449 3601.584961,728.141174 
	C3580.679443,728.365845 3559.836182,728.220398 3538.998291,728.245972 
	C3518.049805,728.271667 3497.101562,728.251587 3474.969482,728.251587 
	C3474.698486,732.462158 3474.473389,735.960632 3474.248047,740.415039 
z"/>
<path fill="#949699" opacity="1.000000" stroke="none" 
	d="
M2852.000000,623.768188 
	C2819.113037,623.768066 2787.226318,623.768066 2754.801270,623.768066 
	C2754.801270,639.524109 2754.801270,654.044739 2754.801270,670.007996 
	C2797.018799,670.640625 2839.101562,669.831360 2881.688232,670.452942 
	C2881.688232,689.931152 2881.688232,708.418152 2881.688232,728.113403 
	C2839.484619,728.113403 2797.681152,728.113403 2754.420654,728.113403 
	C2754.107422,746.102539 2754.248779,762.921265 2754.341064,781.057983 
	C2758.699707,781.308655 2762.522461,781.716003 2766.345703,781.719788 
	C2811.010010,781.764465 2855.674316,781.748352 2900.338623,781.748352 
	C2903.913818,781.748352 2907.489014,781.748413 2911.643066,781.748413 
	C2911.643066,802.022278 2911.643066,821.183228 2911.643066,841.058533 
	C2837.265625,841.058533 2763.157471,841.058533 2688.400146,841.058533 
	C2688.400146,748.271118 2688.400146,655.838867 2688.400146,562.818848 
	C2762.770020,562.818848 2836.623535,562.818848 2910.453857,562.818848 
	C2912.621094,569.610901 2913.289795,606.792969 2911.406006,623.434021 
	C2901.772705,624.160156 2891.866211,623.656860 2881.998047,623.748779 
	C2872.333008,623.838867 2862.666016,623.768311 2852.000000,623.768188 
z"/>
<path fill="#949699" opacity="1.000000" stroke="none" 
	d="
M3516.218750,1079.946777 
	C3505.020020,1126.489746 3467.290771,1163.829224 3417.353516,1170.309204 
	C3389.642090,1173.905273 3362.293213,1173.625610 3335.606445,1164.281738 
	C3298.160400,1151.171021 3274.836426,1124.875488 3264.150635,1087.018311 
	C3260.883057,1075.441284 3259.619385,1063.615723 3259.667480,1051.524780 
	C3259.867188,1001.200867 3259.751465,950.875549 3259.751465,900.550781 
	C3259.751465,896.933716 3259.751465,893.316650 3259.751465,888.967041 
	C3283.045654,888.967041 3305.542969,888.967041 3329.268555,888.967041 
	C3329.427490,892.294922 3329.738770,895.802917 3329.741211,899.311218 
	C3329.772949,948.969421 3329.759277,998.627686 3329.764893,1048.285889 
	C3329.766602,1063.381470 3333.091553,1077.576538 3343.579102,1088.860962 
	C3348.427979,1094.078247 3354.362061,1099.044189 3360.792969,1101.890381 
	C3379.235840,1110.052856 3398.276123,1109.812012 3416.967773,1102.223633 
	C3434.561523,1095.080933 3443.608643,1080.771606 3447.701172,1063.052612 
	C3449.179688,1056.650635 3449.644531,1049.893677 3449.666504,1043.295776 
	C3449.824707,995.637695 3449.751465,947.978943 3449.751465,900.320374 
	C3449.751465,896.729370 3449.751465,893.138428 3449.751465,888.892700 
	C3473.222412,888.892700 3495.713379,888.892700 3518.927246,888.892700 
	C3519.208496,891.471802 3519.723877,894.006836 3519.726074,896.542236 
	C3519.772949,949.533142 3519.903809,1002.524963 3519.607422,1055.514282 
	C3519.563477,1063.386108 3517.454590,1071.246338 3516.218750,1079.946777 
z"/>
<path fill="#949699" opacity="1.000000" stroke="none" 
	d="
M3926.263184,1046.348267 
	C3943.560059,1001.576843 3960.651855,957.554871 3977.729980,913.527649 
	C3980.255127,907.018127 3982.805664,900.516113 3985.173584,893.949097 
	C3986.581543,890.045593 3988.840088,888.139404 3993.270752,888.166504 
	C4018.233643,888.318909 4043.198242,888.239929 4069.307617,888.239929 
	C4104.422852,980.816772 4139.494629,1073.280151 4174.968262,1166.802612 
	C4171.528809,1167.232056 4169.387695,1167.724365 4167.245117,1167.731567 
	C4148.918945,1167.793945 4130.588379,1167.547974 4112.269043,1167.894897 
	C4106.281738,1168.008179 4103.397461,1166.073242 4101.503906,1160.278809 
	C4097.479004,1147.961914 4092.383545,1135.998413 4088.175293,1123.736328 
	C4086.425049,1118.636475 4083.991455,1116.126587 4078.248291,1116.159546 
	C4043.595947,1116.358398 4008.941895,1116.260254 3974.288574,1116.296753 
	C3973.003174,1116.298096 3971.718262,1116.665161 3969.749268,1116.966431 
	C3964.602295,1130.496216 3959.359619,1144.101196 3954.254395,1157.757568 
	C3950.537354,1167.700195 3950.618164,1167.754883 3940.270752,1167.764404 
	C3920.637939,1167.782593 3901.004883,1167.769653 3879.749756,1167.769653 
	C3894.842529,1126.600098 3910.873535,1087.006348 3926.263184,1046.348267 
M4008.239014,1011.230774 
	C4001.622314,1029.086304 3993.930908,1046.562378 3987.870605,1065.209717 
	C4015.043213,1065.209717 4040.859375,1065.209717 4067.848877,1065.209717 
	C4054.849609,1029.924072 4042.168213,995.500732 4028.612061,958.703308 
	C4021.474365,977.205994 4015.183350,993.513367 4008.239014,1011.230774 
z"/>
<path fill="#949699" opacity="1.000000" stroke="none" 
	d="
M4333.529297,946.150696 
	C4320.120605,944.129883 4307.636230,943.400452 4295.042480,946.001648 
	C4288.707520,947.310181 4282.816406,949.207397 4277.956543,953.536682 
	C4270.604004,960.086670 4270.097168,971.500244 4277.197266,978.331360 
	C4279.978516,981.007568 4283.501465,983.416809 4287.127441,984.626221 
	C4305.086426,990.616699 4323.109863,996.445374 4341.271973,1001.781372 
	C4355.692383,1006.017822 4369.709961,1011.069885 4382.928223,1018.258545 
	C4408.999512,1032.437134 4422.613281,1054.287720 4421.608398,1084.019897 
	C4420.562500,1114.968994 4405.713867,1138.305298 4379.390137,1154.371216 
	C4356.777832,1168.172607 4331.688477,1172.135254 4305.770508,1172.203979 
	C4275.794922,1172.283325 4247.145020,1165.464478 4219.391602,1154.558716 
	C4214.817871,1152.761230 4210.529297,1150.237793 4205.332520,1147.665649 
	C4210.708496,1126.702148 4215.939941,1106.303223 4221.458008,1084.786743 
	C4225.372559,1086.869751 4228.224121,1088.319214 4231.013184,1089.881958 
	C4253.948242,1102.732788 4278.246094,1111.303223 4304.737305,1111.946777 
	C4312.609375,1112.138062 4320.673340,1110.943237 4328.387695,1109.214966 
	C4335.592285,1107.600586 4341.815918,1103.550293 4346.147949,1097.157837 
	C4352.463867,1087.836304 4350.534180,1076.797607 4340.617676,1071.509399 
	C4333.058105,1067.478271 4324.903320,1064.284912 4316.681641,1061.828369 
	C4295.679688,1055.552856 4274.343750,1050.374390 4253.425781,1043.845093 
	C4236.163574,1038.457031 4221.743652,1028.489502 4211.794922,1012.912292 
	C4205.193359,1002.576111 4202.510742,991.217957 4201.460449,978.994995 
	C4200.175293,964.034851 4202.276367,949.914978 4208.618164,936.518188 
	C4219.556641,913.411011 4238.645508,899.717529 4262.321777,891.934021 
	C4282.433105,885.322571 4303.303223,883.312256 4324.303223,884.358154 
	C4353.325684,885.803711 4381.619629,891.310303 4408.603516,902.511841 
	C4411.021973,903.515808 4413.226074,905.036621 4416.500977,906.857300 
	C4411.262207,927.407532 4403.731934,947.163452 4396.965332,968.687866 
	C4377.130859,957.292969 4356.392578,949.896484 4333.529297,946.150696 
z"/>
<path fill="#949699" opacity="1.000000" stroke="none" 
	d="
M1914.238281,620.299194 
	C1939.382202,585.966919 1972.469849,566.705505 2014.040649,561.643860 
	C2050.790283,557.169189 2085.635010,562.578369 2117.852783,581.241089 
	C2127.568848,586.869202 2136.423584,593.984192 2146.392578,600.918640 
	C2135.389404,618.149414 2124.946533,634.502869 2114.113281,651.467651 
	C2108.988281,648.262695 2104.797363,645.706177 2100.670410,643.050537 
	C2079.912354,629.692810 2057.130615,623.083313 2032.545654,624.380493 
	C1998.441406,626.179993 1973.417480,646.865173 1963.841919,678.737488 
	C1952.812866,715.447815 1967.581909,751.814331 1994.345093,769.690186 
	C2011.962524,781.457214 2031.503906,783.509949 2051.747803,781.076538 
	C2074.381592,778.355896 2094.362305,768.744019 2113.413330,754.786438 
	C2125.239502,770.818176 2134.908447,787.674194 2146.080566,805.094971 
	C2137.285400,811.522888 2129.678223,817.941406 2121.280273,823.062683 
	C2093.542480,839.977783 2063.125244,846.966858 2030.783203,846.068604 
	C2010.671387,845.510071 1991.018066,842.320557 1972.697998,833.759155 
	C1929.632080,813.633362 1901.503296,780.991943 1891.906494,733.898926 
	C1885.449585,702.213928 1888.251831,671.143311 1901.852661,641.522766 
	C1905.158081,634.323975 1909.766968,627.723694 1914.238281,620.299194 
z"/>
<path fill="#949699" opacity="1.000000" stroke="none" 
	d="
M2220.038330,562.229980 
	C2235.616455,562.230103 2250.203125,562.230103 2265.510498,562.230103 
	C2265.510498,655.511902 2265.510498,747.884705 2265.510498,841.755798 
	C2243.015625,841.759277 2220.531494,841.845154 2198.469971,841.667725 
	C2197.800293,840.994995 2197.555176,840.768250 2197.333496,840.520325 
	C2197.117432,840.278625 2196.775391,840.030762 2196.746826,839.758606 
	C2196.541016,837.781677 2196.257324,835.797852 2196.258789,833.816406 
	C2196.324463,744.252441 2196.415283,654.688477 2196.542969,565.124573 
	C2196.543945,564.553955 2197.095459,563.984192 2198.001709,562.229797 
	C2204.585205,562.229797 2211.815918,562.229797 2220.038330,562.229980 
z"/>
<path fill="#949699" opacity="1.000000" stroke="none" 
	d="
M977.203430,1505.177246 
	C960.789246,1517.043091 944.965698,1528.486816 929.142090,1539.930542 
	C928.591797,1539.554810 928.041504,1539.179077 927.491211,1538.803223 
	C928.460083,1534.746582 929.166992,1530.605591 930.442627,1526.647827 
	C936.360657,1508.286377 942.469849,1489.986572 948.439514,1471.641602 
	C950.900452,1464.079102 950.863647,1463.991455 944.517456,1459.378174 
	C928.917664,1448.038086 913.255615,1436.783569 897.659851,1425.437866 
	C894.204895,1422.924316 890.920471,1420.176025 886.070862,1416.368774 
	C890.054504,1416.087280 892.472778,1415.772949 894.891785,1415.768066 
	C914.872925,1415.727783 934.854187,1415.746704 954.835449,1415.744141 
	C968.902283,1415.742310 966.254395,1416.242676 970.037231,1405.030151 
	C976.200867,1386.760742 981.986450,1368.364136 987.992554,1350.041260 
	C988.998779,1346.971558 990.312866,1344.002808 993.536255,1340.802979 
	C1001.724609,1365.708984 1009.912964,1390.614868 1018.232605,1415.920288 
	C1044.983032,1415.920288 1070.796875,1415.920288 1096.610596,1415.920288 
	C1096.857666,1416.514526 1097.104736,1417.108765 1097.351685,1417.703003 
	C1076.339722,1433.056152 1055.327759,1448.409180 1033.788818,1464.147339 
	C1042.086670,1489.670532 1050.254517,1514.793823 1058.422363,1539.917114 
	C1057.930054,1540.207886 1057.437744,1540.498535 1056.945312,1540.789307 
	C1049.433960,1535.483521 1041.870728,1530.249268 1034.423218,1524.855225 
	C1023.379456,1516.856445 1012.414490,1508.748901 1001.421387,1500.680298 
	C992.325684,1494.004028 992.322815,1493.990234 983.346863,1500.509521 
	C981.462341,1501.878418 979.643250,1503.337646 977.203430,1505.177246 
z"/>
<path fill="#95979A" opacity="1.000000" stroke="none" 
	d="
M1444.294312,1324.543701 
	C1439.968628,1345.874878 1435.759399,1366.374512 1431.019287,1389.458984 
	C1418.050049,1365.133301 1409.541138,1341.154419 1397.483276,1318.375488 
	C1372.616333,1321.083252 1348.023682,1323.761108 1323.431030,1326.439087 
	C1323.107056,1325.867920 1322.783203,1325.296631 1322.459229,1324.725464 
	C1327.279541,1319.983032 1331.962280,1315.090332 1336.947388,1310.527954 
	C1348.724121,1299.750122 1360.516846,1288.981812 1372.579346,1278.528564 
	C1376.588501,1275.054443 1377.078003,1271.944458 1374.891968,1267.272461 
	C1367.136108,1250.697510 1359.680298,1233.981689 1352.170044,1217.292603 
	C1350.437012,1213.441895 1348.938965,1209.485229 1348.137817,1204.781616 
	C1370.953979,1214.980103 1391.733398,1228.345459 1414.216797,1240.134644 
	C1432.904297,1223.204834 1451.557983,1206.305786 1470.211670,1189.406616 
	C1470.771606,1189.618652 1471.331421,1189.830688 1471.891357,1190.042847 
	C1466.922852,1214.735596 1461.954346,1239.428345 1456.878540,1264.654053 
	C1479.194580,1277.371460 1500.806641,1289.687744 1524.719849,1303.315308 
	C1497.659912,1307.950195 1472.431519,1308.977051 1447.316406,1313.000366 
	C1446.295898,1316.762451 1445.353271,1320.237183 1444.294312,1324.543701 
z"/>
<path fill="#95979A" opacity="1.000000" stroke="none" 
	d="
M621.915161,1322.047607 
	C612.111084,1320.964111 603.194336,1320.120361 594.313721,1318.991943 
	C587.295044,1318.100098 586.843201,1318.180298 583.796814,1324.848511 
	C575.363098,1343.309448 566.966797,1361.787476 558.513794,1380.239502 
	C557.437012,1382.590210 556.110901,1384.826416 553.772461,1389.248535 
	C551.641663,1379.568726 549.869385,1372.012329 548.328003,1364.409180 
	C545.424927,1350.088867 542.678406,1335.736938 539.820740,1321.407349 
	C538.120667,1312.882324 537.771667,1312.763184 528.752991,1311.755615 
	C506.444397,1309.263184 484.150299,1306.640991 459.434052,1303.792480 
	C483.574341,1289.933472 505.643494,1277.263672 527.839111,1264.521118 
	C522.804321,1239.628906 517.949646,1215.627197 513.094971,1191.625488 
	C513.696594,1191.201050 514.298218,1190.776611 514.899841,1190.352295 
	C519.020264,1193.761353 523.293640,1197.003540 527.232788,1200.610718 
	C539.743591,1212.067017 552.220154,1223.564453 564.512146,1235.254028 
	C568.483093,1239.030273 571.965271,1239.700562 576.887878,1236.819702 
	C593.545410,1227.071289 610.415588,1217.685669 627.224487,1208.196777 
	C630.074341,1206.588013 633.022705,1205.153931 638.107605,1202.500610 
	C636.538208,1207.029663 635.841248,1209.658936 634.744019,1212.108887 
	C626.585754,1230.324341 618.537292,1248.593384 610.013672,1266.637573 
	C607.630493,1271.682739 607.860413,1275.005371 612.125305,1278.791260 
	C629.030212,1293.797852 645.700562,1309.068604 664.229553,1325.845581 
	C648.970642,1326.363037 635.967651,1322.992188 621.915161,1322.047607 
z"/>
<path fill="#95979A" opacity="1.000000" stroke="none" 
	d="
M1226.948730,1462.982422 
	C1217.540039,1478.247314 1208.517212,1492.893311 1198.340454,1509.412354 
	C1194.813721,1499.629883 1196.388672,1491.414795 1195.540405,1483.546997 
	C1194.652344,1475.310425 1194.148193,1467.033447 1193.405884,1458.780396 
	C1192.664795,1450.540527 1191.836792,1442.308594 1190.934448,1432.902222 
	C1166.907715,1425.316772 1141.406250,1421.424805 1114.572144,1413.437256 
	C1139.781006,1402.894775 1162.724976,1393.299683 1186.724121,1383.263184 
	C1184.947021,1358.187988 1183.174561,1333.178589 1181.402222,1308.169189 
	C1182.004883,1307.896484 1182.607544,1307.623779 1183.210205,1307.351074 
	C1199.547607,1326.293701 1215.885010,1345.236328 1232.367065,1364.346558 
	C1255.977661,1354.559448 1278.891846,1345.061035 1301.805908,1335.562622 
	C1302.312134,1335.988281 1302.818359,1336.413940 1303.324463,1336.839600 
	C1301.733521,1339.779175 1300.266357,1342.794067 1298.531006,1345.645752 
	C1288.676880,1361.838623 1278.718018,1377.967896 1268.880005,1394.170532 
	C1264.270508,1401.762085 1264.324585,1401.917603 1270.262329,1408.854614 
	C1284.709595,1425.733032 1299.196777,1442.577026 1313.035156,1461.101074 
	C1304.983643,1459.314331 1296.917847,1457.588745 1288.884277,1455.723755 
	C1280.800415,1453.846924 1272.751953,1451.817749 1264.682007,1449.880737 
	C1256.318726,1447.873413 1247.948364,1445.896362 1238.802490,1443.720825 
	C1234.918335,1450.035156 1231.126465,1456.199341 1226.948730,1462.982422 
z"/>
<path fill="#95979A" opacity="1.000000" stroke="none" 
	d="
M672.082031,1460.050415 
	C677.995178,1452.531372 683.730408,1444.863647 689.862122,1437.527222 
	C699.662598,1425.801636 709.726318,1414.296021 720.336792,1401.930420 
	C707.387085,1380.527344 694.392578,1359.050293 681.398132,1337.573242 
	C681.840027,1337.003784 682.281982,1336.434448 682.723938,1335.864990 
	C706.199036,1344.437012 728.859131,1355.183472 752.427734,1364.170776 
	C769.202759,1344.711914 785.570312,1325.725708 801.937805,1306.739380 
	C802.504150,1307.035278 803.070435,1307.331055 803.636780,1307.626953 
	C801.656372,1332.536255 799.675964,1357.445679 797.642212,1383.026855 
	C821.230957,1392.934814 844.372375,1402.654907 867.513855,1412.375122 
	C867.490662,1413.074707 867.467529,1413.774292 867.444336,1414.473877 
	C843.104919,1420.379028 818.765564,1426.284180 793.862244,1432.326172 
	C791.716248,1457.647705 789.628357,1482.282837 787.540527,1506.917847 
	C786.897217,1507.183716 786.253906,1507.449707 785.610657,1507.715698 
	C783.376831,1504.328979 781.042480,1501.003662 778.926392,1497.544800 
	C769.376038,1481.934326 759.825195,1466.323608 750.407043,1450.633301 
	C746.597656,1444.286987 745.058350,1443.419434 737.641541,1445.439819 
	C719.385620,1450.413086 700.863647,1454.413696 682.431824,1458.733765 
	C679.536804,1459.412231 676.553833,1459.715576 672.808105,1460.091309 
	C672.004578,1459.989990 672.082092,1460.050415 672.082031,1460.050415 
z"/>
<path fill="#95979A" opacity="1.000000" stroke="none" 
	d="
M671.973633,1459.951782 
	C671.816162,1460.012817 671.689575,1460.112061 671.822510,1460.130859 
	C672.082092,1460.050415 672.004578,1459.989990 671.973633,1459.951782 
z"/>
<path fill="#FFFFFF" opacity="1.000000" stroke="none" 
	d="
M3756.173584,1001.756348 
	C3748.950439,1012.262512 3739.338379,1016.334778 3727.551514,1016.260254 
	C3709.247314,1016.144592 3690.941895,1016.249634 3672.636963,1016.206299 
	C3670.052002,1016.200134 3667.467529,1015.884277 3664.358887,1015.676758 
	C3664.358887,993.935730 3664.358887,972.759094 3664.358887,950.498352 
	C3667.012451,950.266235 3669.844482,949.814575 3672.677979,949.803955 
	C3690.316895,949.737732 3707.988281,950.447266 3725.588379,949.616028 
	C3754.195557,948.264832 3769.781250,975.023499 3757.607422,999.415527 
	C3757.312012,1000.007019 3756.903076,1000.541870 3756.173584,1001.756348 
z"/>
<path fill="#FEFEFE" opacity="1.000000" stroke="none" 
	d="
M3125.317871,995.142822 
	C3132.166992,1018.152283 3132.907471,1040.486816 3124.782227,1062.436890 
	C3115.690186,1086.998047 3097.244385,1101.195068 3071.880615,1105.638062 
	C3049.857666,1109.495850 3027.469482,1107.714233 3005.220215,1107.470337 
	C3004.639404,1107.463989 3004.064697,1106.942383 3002.864258,1106.357788 
	C3002.864258,1054.906982 3002.864258,1003.151001 3002.864258,950.659729 
	C3005.450195,950.356262 3007.966309,949.818237 3010.485352,949.805115 
	C3025.796387,949.724976 3041.109863,949.902893 3056.419678,949.735229 
	C3089.268555,949.375610 3112.270508,963.993103 3125.317871,995.142822 
z"/>
<path fill="#FEFEFE" opacity="1.000000" stroke="none" 
	d="
M3233.818848,774.210327 
	C3220.408691,780.141907 3206.864014,781.343445 3193.240723,781.691589 
	C3181.264404,781.997681 3169.274170,781.755554 3157.290039,781.755554 
	C3154.035156,781.755554 3150.780029,781.755493 3146.900391,781.755493 
	C3146.900391,728.977966 3146.900391,677.220032 3146.900391,624.519958 
	C3149.717285,624.269409 3152.556396,623.810913 3155.397705,623.798340 
	C3171.375977,623.727478 3187.365723,624.138855 3203.331299,623.682190 
	C3232.386963,622.851013 3261.745850,641.763123 3270.473877,673.102417 
	C3275.849365,692.403503 3276.064697,711.793030 3270.610107,731.118164 
	C3265.056641,750.791443 3252.791748,764.904602 3233.818848,774.210327 
z"/>
<path fill="#FEFEFE" opacity="1.000000" stroke="none" 
	d="
M2456.214844,1045.866455 
	C2443.717285,1106.040649 2377.973633,1121.120605 2338.990723,1092.423462 
	C2318.787842,1077.551025 2308.206787,1057.275513 2307.697998,1031.863647 
	C2307.298828,1011.947937 2311.662354,993.865479 2324.433350,977.919556 
	C2341.578369,956.511963 2364.244141,948.041077 2390.524658,950.589355 
	C2423.263184,953.763855 2444.806152,972.278992 2454.623779,1003.696594 
	C2458.833984,1017.169800 2459.588867,1031.085693 2456.214844,1045.866455 
z"/>
<path fill="#FEFEFE" opacity="1.000000" stroke="none" 
	d="
M4008.565674,1010.525757 
	C4015.183350,993.513367 4021.474365,977.205994 4028.612061,958.703308 
	C4042.168213,995.500732 4054.849609,1029.924072 4067.848877,1065.209717 
	C4040.859375,1065.209717 4015.043213,1065.209717 3987.870605,1065.209717 
	C3993.930908,1046.562378 4001.622314,1029.086304 4008.565674,1010.525757 
z"/>
</svg>