<?xml version="1.0" encoding="UTF-8"?>
<svg id="Capa_1" xmlns="http://www.w3.org/2000/svg" viewBox="0 0 147.02 144.57">
  <defs>
    <style>
      .cls-1 {
        fill: #727070;
      }

      .cls-2 {
        fill: #82c4d5;
      }
    </style>
  </defs>
  <g>
    <path class="cls-2" d="M28.33,114.47c-5.17,0-9.07,3.9-9.07,9.12s3.9,9.07,9.07,9.07,9.12-3.9,9.12-9.07-3.9-9.12-9.12-9.12M28.35,128.56c-2.78,0-4.81-2.16-4.81-4.96s2.03-4.99,4.81-4.99,4.81,2.13,4.81,4.99-1.95,4.96-4.81,4.96"/>
    <polygon class="cls-2" points="52.34 125.46 43.45 114.74 39.66 114.74 39.66 132.4 44.02 132.4 44.02 121.67 52.93 132.4 56.7 132.4 56.7 114.74 52.34 114.74 52.34 125.46"/>
    <path class="cls-2" d="M67.36,114.73h-7.93v17.67h7.93c5.22,0,9.12-3.12,9.12-8.81s-3.9-8.83-9.12-8.86M67.18,128.61h-3.38v-10.08h3.38c2.86,0,4.81,1.79,4.81,5.07s-1.95,5.02-4.81,5.02"/>
    <path class="cls-2" d="M90.62,124.53c0,2.49-1.3,4.1-3.9,4.1s-3.82-1.56-3.82-4.1v-9.8h-4.37v10.08c0,4.57,2.91,7.87,8.18,7.87s8.26-3.64,8.26-7.87v-10.08h-4.37v9.8Z"/>
    <path class="cls-2" d="M110.43,128.25c-.41-.32-.71-.76-1.01-1.19-.29-.41-.62-.77-.96-1.12.47-.34,1.26-.43,1.8-.73.56-.31,1.08-.71,1.5-1.2.84-.96,1.27-2.19,1.27-3.45,0-4.13-3.35-5.82-6.78-5.82h-8.39v17.67h4.37v-6.36c.78-.24,1.54.4,2.06,1.03.94,1.14,1.7,2.41,2.72,3.47.9.93,2.06,1.7,3.38,1.84.36.04,3.55-.16,3.49-.66,0,0-.41-3.43-.41-3.43-.89.38-2.21.58-3.03-.05M106.17,122.89h-3.95v-4.37h3.95c1.43,0,2.34.83,2.34,2.18s-.91,2.18-2.34,2.18"/>
    <path class="cls-2" d="M121.28,114.74l-6.83,17.67h4.42l1.22-3.25h7.4l1.19,3.25h4.42l-6.7-17.67h-5.12ZM121.18,125.96l2.68-6.91,2.54,6.91h-5.22Z"/>
    <path class="cls-2" d="M142.29,122.04l-3.12-.94c-1.09-.31-1.61-.62-1.61-1.4,0-.86.8-1.46,2.6-1.46s3.97.68,5.32,1.54l1.25-3.87c-1.38-.73-3.87-1.4-6.39-1.4-4.8,0-7.22,2.44-7.22,5.51,0,2.44,1.33,4.03,4.08,4.78l3.3.88c1.27.36,2.05.78,2.05,1.56,0,.96-.96,1.69-2.73,1.69-1.97,0-4.08-.83-5.4-1.74l-1.01,3.95c1.14.65,3.72,1.53,6.34,1.53,4.42,0,7.27-2.34,7.27-5.74,0-2.44-1.48-3.92-4.73-4.88"/>
    <path class="cls-1" d="M15.13,142.77c0,.06.02.1.06.14.04.04.1.07.17.07h.48v.68c-.11.05-.22.09-.34.12-.14.03-.3.04-.45.04-.19,0-.38-.03-.54-.1-.16-.07-.3-.17-.43-.29-.12-.12-.21-.27-.28-.47-.07-.18-.1-.4-.1-.64,0-.22.03-.42.1-.6.06-.17.15-.33.27-.45.11-.12.25-.22.42-.29.17-.07.35-.1.55-.1.36,0,.68.04.96.13.02.23.04.38.05.43.03.1.1.15.19.15h.4v-1.19h-.04c-.56-.22-1.08-.33-1.54-.33h-.04c-.33,0-.64.06-.9.16-.29.11-.53.27-.72.46-.2.2-.35.44-.46.71-.11.26-.16.57-.16.9s.06.63.16.91c.11.26.26.5.46.71.19.19.43.35.7.46.28.11.57.17.88.17.16,0,.33-.01.5-.03.15-.02.3-.04.44-.08.13-.04.26-.08.39-.15.11-.06.23-.13.34-.21l.02-.02v-1.82h-1.54v.51Z"/>
    <path class="cls-1" d="M21.44,140.37c-.34-.19-.73-.29-1.16-.29s-.81.1-1.15.28c-.34.19-.61.45-.8.79-.19.34-.29.73-.29,1.17s.1.83.29,1.17c.19.34.46.61.8.8.34.19.72.29,1.15.29s.81-.1,1.15-.29c.34-.19.61-.46.79-.8s.28-.73.28-1.16-.1-.81-.28-1.15c-.18-.34-.45-.61-.79-.8M21.24,143.38c-.22.26-.54.39-.96.39s-.74-.13-.96-.39c-.23-.26-.34-.62-.34-1.06s.11-.79.34-1.05c.22-.26.55-.39.97-.39s.73.13.95.39c.22.26.34.62.34,1.05s-.11.8-.34,1.06"/>
    <path class="cls-1" d="M27,142.24c.07-.03.14-.07.19-.11.1-.07.18-.15.25-.22.07-.09.12-.18.15-.28s.04-.2.04-.31c0-.18-.03-.34-.09-.49-.06-.15-.16-.28-.3-.39-.13-.1-.3-.18-.51-.24-.2-.05-.44-.08-.73-.08h-1.98v.41c0,.12.07.21.19.24h.05s.01,0,.02.01c.02,0,.03,0,.06.01l.13.02v3.01l-.13.02s-.04,0-.06.01c0,0-.02,0-.03,0h-.04c-.12.03-.19.12-.19.25v.41h2.12c.26,0,.49-.03.68-.1.21-.07.38-.16.5-.27.13-.12.24-.26.32-.42.07-.16.11-.34.11-.53,0-.48-.26-.81-.76-.96M25.38,140.85h.62c.26,0,.45.04.56.13.11.08.17.23.17.43s-.06.34-.18.43c-.13.09-.32.13-.58.13h-.58v-1.12ZM26.82,143.42c-.02.07-.06.13-.12.18-.05.05-.12.1-.21.13-.09.03-.21.05-.35.05h-.76v-1.14h.75c.14,0,.26.01.35.04.1.03.17.07.22.11.05.04.09.1.12.17.03.07.04.15.04.23,0,.09-.01.17-.04.24"/>
    <path class="cls-1" d="M29.62,140.53c0,.12.07.21.2.24h.04s.01,0,.02.01c.01,0,.03,0,.06.01l.13.02v3.01l-.26.04c-.12.03-.19.12-.19.24v.41h1.81v-.41c0-.12-.07-.21-.2-.24h-.04s-.01,0-.02-.01c-.01,0-.03,0-.06-.01l-.12-.02v-3.01l.13-.02s.04-.01.05-.01c.01,0,.02,0,.02,0h.05c.12-.04.19-.12.19-.25v-.41h-1.81v.41Z"/>
    <path class="cls-1" d="M33.33,140.53c0,.12.07.21.2.24h.04s.01,0,.02.01c.01,0,.03,0,.06.01l.13.02v3.01l-.13.02s-.04,0-.05.01c-.01,0-.02,0-.03,0h-.04c-.12.03-.19.12-.19.25v.41h3.27v-1.25h-.4c-.1,0-.17.06-.19.16-.02.13-.03.24-.04.33h-1.27v-1.09h1.45v-.73h-1.45v-1.07h1.27c0,.09.02.2.04.34.03.1.1.16.19.16h.4v-1.24h-3.27v.41Z"/>
    <path class="cls-1" d="M42.25,143.87h-.05s-.02,0-.04-.01l-.21-.04-.66-.98c-.05-.08-.11-.14-.18-.2.11-.04.21-.1.31-.16.13-.09.24-.18.31-.29.09-.12.16-.25.19-.37.04-.14.07-.29.07-.43,0-.19-.03-.36-.1-.52-.06-.16-.17-.3-.31-.41-.14-.11-.32-.2-.53-.26-.21-.06-.47-.09-.77-.09h-1.77v.41c0,.12.07.21.2.24h.04s.01,0,.02.01c.02,0,.03,0,.06.01l.13.02v3.01l-.26.04c-.12.03-.19.12-.19.24v.41h1.81v-.41c0-.12-.07-.21-.2-.24h-.04s-.01,0-.02-.01c-.02,0-.03,0-.06-.01l-.13-.02v-.98h.24c.07,0,.12,0,.15.03.03.02.07.05.09.09l.9,1.38c.04.06.08.1.13.13.05.03.12.05.21.05h.86v-.41c0-.12-.07-.21-.2-.24M41.03,141.74c-.03.09-.08.16-.15.22-.07.06-.16.11-.26.14-.12.04-.25.06-.38.06h-.4v-1.31h.41c.29,0,.49.05.62.16.13.11.19.26.19.46,0,.1-.02.19-.05.27"/>
    <path class="cls-1" d="M46.8,140.53c0,.12.07.21.2.24l.33.04v1.96c0,.08,0,.15,0,.2h0s-2.13-2.7-2.13-2.7l-.06-.07s-.05-.04-.07-.05c-.02-.02-.06-.02-.09-.02h-1.01s0,.4,0,.4c0,.12.07.21.2.24h.04s.01,0,.02.01c.02,0,.03,0,.06.01l.13.02v3.01l-.26.04c-.12.03-.19.12-.19.24v.41h1.8v-.41c0-.12-.07-.21-.2-.24l-.34-.05v-2.16s0,0,0,0l2.12,2.7c.05.06.1.1.15.12.06.02.11.03.18.03h.47v-3.7l.12-.02s.04-.01.06-.01c0,0,.02,0,.03,0h.04c.12-.04.19-.12.19-.25v-.41h-1.8v.41Z"/>
    <path class="cls-1" d="M53.23,140.37c-.34-.19-.73-.29-1.16-.29s-.81.1-1.15.28c-.34.19-.61.45-.8.79-.19.34-.29.73-.29,1.17s.1.83.29,1.17c.19.34.46.61.79.8.34.19.73.29,1.15.29s.81-.1,1.15-.29c.34-.19.61-.46.79-.8s.28-.73.28-1.16-.1-.81-.28-1.15c-.18-.34-.45-.61-.79-.8M53.03,143.38c-.22.26-.54.39-.96.39s-.74-.13-.96-.39c-.23-.26-.34-.62-.34-1.06s.11-.79.34-1.05c.22-.26.55-.39.97-.39s.73.13.95.39c.22.26.34.62.34,1.05s-.11.8-.34,1.06"/>
    <path class="cls-1" d="M63,140.74c-.18-.18-.42-.34-.71-.45-.27-.11-.57-.17-.9-.17h-2.08v.41c0,.12.07.21.2.24h.04s.01,0,.02.01c.02,0,.03.01.06.01l.13.02v3.01l-.13.02s-.04,0-.06.01c0,0-.02,0-.03,0h-.04c-.12.04-.19.12-.19.25v.41h2.08c.33,0,.63-.06.9-.16.28-.11.52-.26.71-.45.19-.18.34-.42.45-.7.11-.27.16-.57.16-.89s-.06-.62-.16-.89c-.11-.27-.26-.51-.45-.69M62.59,142.93c-.06.18-.15.34-.25.45-.11.12-.25.21-.41.28-.16.07-.34.1-.54.1h-.71v-2.9h.71c.2,0,.38.04.54.1.16.07.3.17.4.28.1.11.19.26.26.45.06.18.09.38.09.61s-.03.44-.09.62"/>
    <path class="cls-1" d="M65.13,140.53c0,.12.07.21.2.24h.04s.01,0,.02.01c.02,0,.03,0,.06.01l.13.02v3.01l-.13.02s-.04,0-.05.01c0,0-.02,0-.03,0h-.04c-.12.03-.19.12-.19.25v.41h3.27v-1.25h-.4c-.1,0-.16.06-.19.16-.02.13-.03.24-.04.33h-1.27v-1.09h1.45v-.73h-1.45v-1.07h1.27c0,.09.02.2.04.34.03.1.1.16.19.16h.4v-1.24h-3.27v.41Z"/>
    <path class="cls-1" d="M76.1,143.53s0,.02-.02.22h-1.27v-2.93l.26-.05c.12-.03.19-.11.19-.24v-.41h-1.81v.41c0,.12.07.21.2.24h.05s.01,0,.02.01c.02,0,.03,0,.06.01l.13.02v3.01l-.26.04c-.12.03-.19.12-.19.24v.4h3.22v-1.14h-.38c-.1,0-.17.05-.19.15"/>
    <path class="cls-1" d="M82.88,143.95l-.3-.12-1.46-3.7h-.89l-1.45,3.7-.3.13c-.13.06-.15.14-.15.21v.36h1.56v-.36c0-.06-.03-.15-.15-.21l-.07-.03.2-.55h1.63l.2.55-.07.03c-.13.06-.15.14-.15.21v.36h1.56v-.36c0-.1-.05-.17-.15-.21M80.11,142.69l.46-1.25c.04-.11.07-.22.11-.33.04.12.07.23.11.32l.46,1.26h-1.13Z"/>
    <path class="cls-1" d="M91.81,143.87h-.05s-.02,0-.04-.01l-.21-.04-.66-.98c-.05-.08-.11-.14-.18-.2.11-.04.21-.1.31-.16.13-.09.24-.18.31-.29.09-.12.16-.25.19-.37.04-.14.07-.29.07-.43,0-.19-.03-.36-.1-.52-.06-.16-.17-.3-.31-.41-.14-.11-.32-.2-.53-.26-.21-.06-.47-.09-.77-.09h-1.77v.41c0,.12.07.21.19.24h.05s.01,0,.02.01c.02,0,.03,0,.06.01l.13.02v3.01l-.26.04c-.12.03-.19.12-.19.24v.41h1.81v-.41c0-.12-.07-.21-.2-.24h-.04s-.01,0-.02-.01c-.02,0-.03,0-.06-.01l-.13-.02v-.98h.24c.06,0,.12,0,.15.03.03.02.07.05.09.09l.9,1.38c.04.06.08.1.13.13.05.03.12.05.21.05h.86v-.41c0-.12-.07-.21-.2-.24M90.6,141.74c-.04.09-.08.16-.15.22-.07.06-.16.11-.26.14-.12.04-.25.06-.38.06h-.4v-1.31h.41c.29,0,.49.05.62.16.13.11.19.26.19.46,0,.1-.02.19-.05.27"/>
    <path class="cls-1" d="M93.42,140.53c0,.12.07.21.2.24h.04s.01,0,.02.01c.02,0,.03,0,.06.01l.13.02v3.01l-.13.02s-.04,0-.06.01c0,0-.02,0-.03,0h-.04c-.12.03-.19.12-.19.25v.41h3.27v-1.25h-.4c-.1,0-.16.06-.19.16-.02.13-.03.24-.04.33h-1.27v-1.09h1.45v-.73h-1.45v-1.07h1.27c0,.09.02.2.04.34.03.1.1.16.19.16h.4v-1.24h-3.27v.41Z"/>
    <path class="cls-1" d="M101.73,140.52c-.15-.13-.33-.23-.53-.29-.22-.07-.48-.11-.77-.11h-1.83v.41c0,.12.07.21.2.24h.04s.01,0,.02.01c.01,0,.03.01.06.02l.13.02v3.01l-.26.05c-.12.03-.19.11-.19.24v.41h1.81v-.41c0-.12-.07-.21-.2-.24h-.04s-.01,0-.02,0c-.02,0-.03-.01-.06-.02l-.13-.02v-.82h.47c.29,0,.54-.03.75-.11.22-.08.41-.18.54-.3.14-.13.25-.28.32-.47.07-.18.11-.38.11-.59s-.04-.4-.11-.57c-.07-.17-.18-.32-.32-.45M101.18,141.85c-.03.09-.08.17-.14.22-.06.06-.15.11-.25.14-.1.03-.22.05-.37.05h-.47v-1.42h.47c.15,0,.27.02.37.05.1.03.18.08.24.13.07.06.11.13.15.22.03.09.05.18.05.29,0,.12-.02.22-.05.31"/>
    <path class="cls-1" d="M105.58,139.93h.07s.05-.01.08-.02c.03,0,.05-.02.07-.03l1.09-.79h-1.09s-.06.02-.08.03c-.02,0-.05.02-.09.05l-.74.76h.71Z"/>
    <path class="cls-1" d="M106.01,140.53c0,.12.07.21.2.24h.05s.01,0,.03.01c.02,0,.04,0,.06.01l.13.02v1.93c0,.14-.02.28-.07.43-.05.13-.11.24-.18.32-.07.07-.16.14-.29.2-.11.05-.24.07-.39.07s-.29-.02-.39-.07c-.12-.05-.21-.12-.28-.2-.09-.1-.15-.2-.18-.32-.04-.11-.06-.26-.06-.43v-1.92l.13-.02s.05,0,.06-.01c.02,0,.02,0,.04,0h.05c.12-.04.19-.12.19-.25v-.41h-1.83v.41c0,.12.07.21.2.24h.04s.01,0,.02.01c.01,0,.03,0,.06.01l.13.02v1.93c0,.27.04.52.12.72.08.22.21.42.37.58.16.16.36.29.58.38.22.09.48.13.76.13s.54-.04.76-.13c.23-.1.42-.22.58-.38.15-.16.27-.35.36-.58.09-.22.13-.46.13-.73v-1.93l.13-.02s.04-.01.06-.01c.01,0,.02,0,.03,0h.04c.12-.04.19-.12.19-.25v-.41h-1.83v.41Z"/>
    <path class="cls-1" d="M112.69,142.24c.07-.03.14-.07.19-.11.1-.07.18-.15.25-.22.07-.09.12-.18.15-.28.03-.09.04-.2.04-.31,0-.18-.03-.34-.09-.49-.06-.15-.16-.28-.3-.39-.13-.1-.3-.18-.51-.24-.2-.05-.44-.08-.73-.08h-1.98v.41c0,.12.07.21.2.24h.04s.01,0,.02.01c.01,0,.03,0,.06.01l.13.02v3.01l-.13.02s-.04,0-.06.01c0,0-.02,0-.03,0h-.04c-.12.03-.19.12-.19.25v.41h2.12c.26,0,.49-.03.68-.1.21-.07.38-.16.5-.27.13-.12.24-.26.32-.42.07-.16.11-.34.11-.53,0-.48-.26-.81-.76-.96M111.07,140.85h.62c.26,0,.45.04.56.13.11.08.17.23.17.43s-.06.34-.18.43c-.13.09-.32.13-.58.13h-.58v-1.12ZM112.51,143.42c-.02.07-.06.13-.12.18-.05.05-.12.1-.22.13-.09.03-.21.05-.35.05h-.76v-1.14h.75c.14,0,.26.01.35.04.1.03.17.07.22.11.05.04.09.1.12.17.03.07.04.15.04.23,0,.09-.01.17-.04.24"/>
    <path class="cls-1" d="M117.72,143.53s0,.02-.02.22h-1.27v-2.93l.26-.05c.12-.03.19-.11.19-.24v-.41h-1.81v.41c0,.12.07.21.2.24h.05s.01,0,.02.01c.02,0,.03,0,.06.01l.13.02v3.01l-.26.04c-.12.03-.19.12-.19.24v.4h3.22v-1.14h-.38c-.1,0-.17.05-.19.15"/>
    <path class="cls-1" d="M119.72,140.53c0,.12.07.21.2.24h.04s.01,0,.02.01c.01,0,.03,0,.06.01l.13.02v3.01l-.26.04c-.12.03-.19.12-.19.24v.41h1.81v-.41c0-.12-.07-.21-.2-.24h-.04s-.01,0-.02-.01c-.01,0-.03,0-.06-.01l-.12-.02v-3.01l.13-.02s.04-.01.05-.01c.01,0,.02,0,.02,0h.05c.12-.04.19-.12.19-.25v-.41h-1.81v.41Z"/>
    <path class="cls-1" d="M126.64,143.4s-.07,0-.1.02c-.04.02-.06.03-.08.05-.07.06-.13.11-.19.15-.07.04-.13.07-.19.1-.07.02-.15.04-.23.05-.09.01-.18.02-.29.02-.18,0-.34-.03-.49-.1-.15-.07-.29-.16-.39-.28-.1-.11-.19-.26-.26-.45-.07-.18-.1-.39-.1-.62s.03-.43.1-.61c.06-.17.16-.33.27-.45.11-.12.25-.22.41-.29.32-.13.74-.13,1.3.03.02.25.04.39.05.44h0c.03.1.1.15.19.15h.4v-1.19h-.04c-.54-.22-1-.33-1.36-.33-.34,0-.64.06-.92.16-.27.1-.5.26-.71.47-.2.2-.35.44-.46.71-.11.27-.17.58-.17.91s.05.62.15.9c.1.27.24.51.43.71.18.2.4.35.67.47.27.11.57.17.87.17.36,0,.67-.06.94-.18.26-.11.48-.28.66-.51l.03-.04-.35-.38s-.09-.07-.16-.07"/>
    <path class="cls-1" d="M132.93,143.95l-.3-.12-1.46-3.7h-.89l-1.45,3.7-.3.13c-.13.06-.15.14-.15.21v.36h1.56v-.36c0-.06-.03-.15-.15-.21l-.07-.03.2-.55h1.63l.2.55-.07.03c-.13.06-.15.14-.15.21v.36h1.56v-.36c0-.1-.05-.17-.15-.21M130.16,142.69l.46-1.25c.04-.11.07-.22.11-.33.04.12.07.23.11.32l.46,1.26h-1.13Z"/>
    <path class="cls-2" d="M70.92,7.08c.07.05.1.14.07.22l-1.29,3.98c-.06.18.15.34.31.22l3.39-2.46c.07-.05.17-.05.24,0l3.39,2.46c.16.12.37-.04.31-.22l-1.29-3.98c-.03-.08,0-.17.07-.22l3.39-2.46c.16-.12.08-.37-.12-.37h-4.18c-.09,0-.16-.06-.19-.14l-1.29-3.98c-.06-.18-.32-.18-.38,0l-1.29,3.98c-.03.08-.1.14-.19.14h-4.18c-.2,0-.28.25-.12.37l3.39,2.46Z"/>
    <path class="cls-2" d="M91.48,20.03c.07.05.1.14.07.22l-.71,2.18c-.06.19.15.34.31.23l1.86-1.35c.07-.05.17-.05.24,0l1.86,1.35c.16.11.37-.04.31-.23l-.71-2.18c-.03-.08,0-.17.07-.22l1.86-1.35c.16-.11.08-.36-.12-.36h-2.29c-.09,0-.16-.06-.19-.14l-.71-2.18c-.06-.18-.32-.18-.38,0l-.71,2.18c-.03.08-.11.14-.19.14h-2.29c-.2,0-.28.25-.12.36l1.86,1.35Z"/>
    <path class="cls-2" d="M101.72,35.67c.07.05.1.14.07.22l-.71,2.18c-.06.19.15.34.31.23l1.86-1.35c.07-.05.17-.05.24,0l1.85,1.35c.16.11.37-.04.31-.23l-.71-2.18c-.03-.08,0-.17.07-.22l1.85-1.35c.16-.11.08-.36-.12-.36h-2.29c-.09,0-.16-.06-.19-.14l-.71-2.18c-.06-.18-.32-.18-.38,0l-.71,2.18c-.03.08-.11.14-.19.14h-2.29c-.2,0-.28.25-.12.36l1.86,1.35Z"/>
    <path class="cls-2" d="M52.25,20.03c.07.05.1.14.07.22l-.71,2.18c-.06.19.15.34.31.23l1.86-1.35c.07-.05.17-.05.24,0l1.86,1.35c.16.11.37-.04.31-.23l-.71-2.18c-.03-.08,0-.17.07-.22l1.86-1.35c.16-.11.08-.36-.12-.36h-2.29c-.09,0-.16-.06-.19-.14l-.71-2.18c-.06-.18-.32-.18-.38,0l-.71,2.18c-.03.08-.1.14-.19.14h-2.29c-.2,0-.28.25-.12.36l1.86,1.35Z"/>
    <path class="cls-2" d="M42,35.67c.07.05.1.14.07.22l-.71,2.18c-.06.19.15.34.31.23l1.86-1.35c.07-.05.17-.05.24,0l1.86,1.35c.16.11.37-.04.31-.23l-.71-2.18c-.03-.08,0-.17.07-.22l1.86-1.35c.16-.11.08-.36-.12-.36h-2.29c-.09,0-.16-.06-.19-.14l-.71-2.18c-.06-.18-.32-.18-.38,0l-.71,2.18c-.03.08-.1.14-.19.14h-2.29c-.2,0-.28.25-.12.36l1.86,1.35Z"/>
    <path class="cls-1" d="M63.97,72.32c.5.31,1.12.31,1.62,0l.25-.15c.24-.15.53-.15.77,0l.26.16c.25.15.53.23.81.23s.56-.08.81-.23l.25-.15c.24-.15.53-.15.77,0l.22.14c.5.31,1.13.31,1.63,0l.27-.17c.24-.15.54-.15.78,0l.26.16c.51.32,1.16.31,1.66-.02l.18-.12c.24-.15.55-.16.79,0l.26.16c.19.12.4.19.61.22.07,0,.14.01.21.01.01,0,.02,0,.04,0,.01,0,.02,0,.04,0,.07,0,.15-.01.22-.03h.03c.17-.04.34-.11.49-.2l.27-.17c.12-.07.25-.11.38-.11.13,0,.26.04.38.11l.27.17c.31.2.68.27,1.03.22.21-.03.42-.1.62-.22l.26-.16c.24-.15.55-.15.79,0l.19.12c.5.33,1.15.34,1.66.02.19-.12.25-.37.13-.56-.12-.19-.37-.25-.56-.13-.24.15-.55.15-.79,0l-.19-.12c-.5-.33-1.16-.33-1.66-.02l-.23.15s-.02,0-.03.02c-.09.05-.19.09-.29.1-.17.02-.34-.01-.48-.1l-.27-.17c-.25-.16-.54-.23-.82-.23s-.57.08-.82.23l-.27.17c-.15.09-.32.13-.48.1-.1-.01-.2-.05-.29-.1-.01,0-.02-.01-.03-.02l-.23-.15c-.51-.31-1.16-.31-1.66.02l-.19.12c-.24.16-.55.16-.79,0l-.26-.16c-.5-.31-1.13-.31-1.63,0l-.27.17c-.24.15-.54.15-.77,0l-.22-.14c-.5-.31-1.12-.31-1.62,0l-.25.15c-.24.14-.53.14-.76,0l-.26-.16c-.5-.3-1.12-.3-1.61,0l-.25.15c-.24.14-.53.14-.77,0-.19-.12-.44-.06-.56.13-.12.19-.06.44.13.56"/>
    <path class="cls-1" d="M81.17,74.03c-.24.15-.54.15-.77,0l-.27-.17c-.5-.31-1.13-.31-1.64,0l-.27.17c-.24.15-.54.15-.78,0l-.26-.16c-.51-.31-1.16-.31-1.66.02l-.19.12c-.24.15-.55.16-.79,0l-.25-.16c-.5-.31-1.13-.31-1.64,0l-.27.17c-.24.15-.54.15-.78,0l-.22-.14c-.5-.31-1.12-.31-1.62,0l-.25.15c-.24.14-.53.14-.77,0l-.26-.16c-.5-.3-1.12-.3-1.61,0l-.25.15c-.24.15-.53.14-.77,0-.19-.12-.44-.06-.56.13-.12.19-.06.44.13.56.5.31,1.12.31,1.63,0l.25-.15c.24-.14.53-.14.77,0l.26.16c.25.15.53.22.8.22s.56-.08.81-.22l.25-.16c.24-.15.53-.14.77,0l.22.14c.5.31,1.13.31,1.63,0l.27-.17c.24-.15.54-.15.77,0l.26.16c.51.32,1.16.31,1.66-.02l.19-.12c.24-.16.55-.16.79-.01l.25.16c.5.31,1.13.31,1.64,0l.27-.17c.24-.15.54-.15.77,0l.27.17c.5.31,1.13.31,1.63,0,.19-.12.25-.37.13-.56-.12-.19-.37-.25-.56-.13"/>
    <path class="cls-1" d="M78.25,76.42c-.24.16-.55.16-.79,0l-.26-.16c-.5-.31-1.13-.31-1.63,0l-.27.17c-.24.15-.54.15-.77,0l-.22-.14c-.5-.31-1.12-.31-1.62,0l-.25.15c-.24.14-.53.14-.77,0l-.26-.16c-.5-.3-1.12-.3-1.61,0l-.25.15c-.24.15-.53.15-.77,0-.19-.12-.44-.06-.56.13-.12.19-.06.44.13.56.5.31,1.12.31,1.62,0l.25-.15c.24-.14.53-.14.76,0l.26.16c.25.15.53.23.81.23s.56-.08.81-.23l.25-.15c.24-.15.53-.14.77,0l.22.14c.5.31,1.13.31,1.63,0l.27-.17c.24-.15.54-.15.78,0l.26.16c.51.31,1.16.31,1.66-.02.19-.12.24-.38.12-.56-.12-.19-.38-.24-.56-.12"/>
    <path class="cls-1" d="M47.97,53.65c.14-.02.27-.03.4-.04.04,0,.09,0,.13,0,.07,0,.15,0,.22,0h.06c.53,0,1.03.07,1.52.17.98.2,1.93.52,2.92.86.06.02.12.04.19.07l.21.07c.16.05.31.1.47.15.24.06.48.11.72.15.08.01.16.02.25.03.09.01.18.02.27.02.03,0,.06,0,.09,0,.06,0,.12,0,.18,0,.01,0,.02,0,.03,0,.02,0,.03,0,.05,0,.09,0,.17,0,.26,0,.03,0,.05,0,.08,0,.11,0,.21-.02.32-.03.02,0,.04,0,.06,0,.09-.02.18-.03.27-.05.03,0,.06-.01.09-.02.11-.02.22-.05.33-.09.08-.03.17-.06.25-.09.08-.03.17-.07.25-.11.17-.08.34-.17.5-.27.08-.05.16-.11.24-.16.24-.17.46-.37.67-.6.04-.05.08-.1.12-.15-.82,2.44-1.27,5.12-1.27,7.94,0,11.26,7.23,20.39,16.15,20.39s16.15-9.13,16.15-20.39c0-2.63-.39-5.15-1.11-7.45.18.16.37.3.56.42.33.2.66.35,1,.46.11.04.22.07.33.09.03,0,.06.02.09.02.09.02.18.04.27.05.02,0,.04,0,.06,0,.11.02.21.03.32.03.03,0,.06,0,.08,0,.08,0,.17,0,.26,0,.02,0,.03,0,.05,0,.01,0,.02,0,.03,0,.06,0,.12,0,.18,0,.03,0,.06,0,.09,0,.09,0,.18-.01.27-.02.08,0,.17-.02.25-.03.25-.04.49-.09.72-.15.16-.04.31-.1.47-.15l.21-.07c.06-.02.12-.04.18-.07.49-.17.98-.34,1.47-.49.48-.15.96-.27,1.45-.38.49-.1.99-.17,1.52-.17h.06c.07,0,.15,0,.22,0,.04,0,.09,0,.13,0,.13,0,.26.02.4.04.14.02.29.04.44.08.07.02.15.03.22.06.08.02.16.05.24.08-.02-.11-.05-.22-.08-.32-.03-.11-.07-.21-.11-.3-.08-.19-.18-.39-.29-.56-.05-.09-.11-.17-.17-.26-.17-.25-.37-.47-.58-.68-.56-.54-1.2-.91-1.86-1.13-.17-.06-.33-.1-.5-.14s-.33-.07-.5-.09c-.11-.01-.21-.02-.32-.03-.03,0-.06,0-.08,0-.1,0-.2,0-.3,0-.01,0-.02,0-.03,0h0c-.08,0-.17,0-.25,0-.66.03-1.29.17-1.91.38l-.43.16c-.12.05-.24.11-.36.15-.12.04-.24.1-.36.14-.12.04-.24.09-.35.13-.47.17-.94.32-1.41.42-.11.03-.22.05-.33.07-.03,0-.07.01-.1.02-.08.01-.15.02-.23.03-.04,0-.08,0-.13.01-.07,0-.14.01-.21.02-.04,0-.09,0-.13,0-.03,0-.06,0-.09,0-.07,0-.15,0-.22,0-.25-.01-.51-.06-.78-.13-.12-.04-.24-.08-.36-.13-.2-.46-.42-.91-.65-1.35.12.04.24.09.35.12.16.05.31.08.47.12l.23.03.12.02s.08,0,.12,0l.23.02c.08,0,.15,0,.23,0h.08s.07,0,.11,0h.06c.07,0,.13,0,.2-.01.3-.02.6-.07.89-.13.14-.03.29-.07.43-.11l.2-.06c.05-.02.11-.03.17-.05.9-.27,1.75-.53,2.64-.73.44-.1.89-.18,1.37-.22.11,0,.22-.02.33-.02.03,0,.07,0,.1,0,.04,0,.09,0,.13,0,.06,0,.13,0,.19,0,.2.01.4.02.62.06.07.01.15.03.22.05-.03-.19-.1-.36-.17-.53-.08-.16-.17-.33-.27-.47-.1-.15-.21-.29-.32-.42-.11-.13-.24-.25-.36-.36-.13-.11-.26-.22-.39-.31-.17-.12-.35-.23-.53-.32-.18-.09-.36-.17-.55-.24-.07-.03-.15-.05-.22-.08-.15-.05-.3-.09-.45-.12-.15-.03-.3-.06-.45-.08-.11-.01-.22-.02-.33-.03-.02,0-.05,0-.07,0-.11,0-.22-.01-.32-.01,0,0-.02,0-.02,0-.05,0-.1,0-.15,0h0c-.3,0-.59.04-.88.08-.29.05-.58.12-.86.2-.07.02-.14.04-.21.07l-.19.06c-.06.02-.11.04-.16.06-.05.02-.11.04-.16.06-.22.08-.43.15-.64.22-.43.14-.85.27-1.27.38-.43.11-.85.18-1.31.2-.05,0-.1,0-.15,0-.04,0-.08,0-.13,0-.03,0-.07,0-.1,0-.11,0-.22-.02-.34-.04-.03,0-.05-.01-.07-.02-.3-.41-.62-.81-.94-1.19h.02s.21.03.21.03c.07,0,.14.02.21.02l.21.02c.07,0,.14,0,.21,0h.13c.1,0,.19,0,.28-.01.28-.02.55-.05.81-.1.07-.01.13-.03.2-.04.07-.02.13-.03.2-.05l.17-.04.15-.04,1.18-.3c.39-.1.77-.2,1.16-.28.39-.09.79-.17,1.23-.22.22-.03.44-.05.68-.05h.14c.09,0,.18,0,.27,0,.02,0,.04,0,.06,0,.1,0,.2.02.3.03,0-.04-.01-.07-.02-.11-.02-.07-.04-.14-.07-.2-.01-.03-.03-.07-.05-.1-.07-.13-.14-.25-.23-.37-.17-.23-.38-.43-.61-.61-.23-.18-.48-.33-.74-.45-.26-.12-.53-.22-.8-.3-.27-.08-.55-.12-.83-.16-.13-.02-.26-.02-.39-.03-.04,0-.08,0-.12,0-.07,0-.13,0-.2,0-.04,0-.08,0-.11,0-.55.01-1.08.09-1.59.22l-.19.05-.17.05c-.05.01-.1.03-.15.04-.05.01-.1.03-.15.04l-.57.17c-.38.11-.75.22-1.12.31-.38.09-.75.17-1.16.21-.11,0-.23.02-.35.02h-.03c-.09,0-.18,0-.27,0-.1-.01-.2-.02-.31-.04-.33-.26-.67-.5-1.01-.73.15,0,.3.01.44.01.82,0,1.56-.09,2.24-.28.2-.06.4-.11.59-.17.59-.18,1.15-.34,1.74-.38.3-.02.61-.01.9.03l.86.11-.45-.73s-.71-1.12-2.06-1.49c-.35-.1-.77-.12-1.26-.16-1.27-.09-2.82-.2-3.79-1.51.36-.43.54-1,.46-1.6-.18-1.31-1.36-2.23-2.66-2.11v-1.01h3.39c.32,0,.58-.26.58-.58v-1.91c0-.32-.26-.57-.57-.58h-1.34v-.7l2.4-2.4v-9.09l-1.23,1-1.76,1.42c-.15-.16-.37-.26-.61-.26h-.87c-.06,0-.11,0-.17.02v-3.86l-1.23.99-1.95,1.58c-.16-.17-.38-.28-.62-.28h-.99c-.25,0-.47.11-.62.28l-1.96-1.58-1.23-.99v3.86c-.05-.01-.11-.02-.17-.02h-.87c-.24,0-.45.1-.61.26l-1.76-1.42-1.23-1v9.09l2.4,2.4v.7h-1.34c-.32,0-.58.26-.58.58v1.91c0,.32.26.58.58.58h3.36v1.06c-.07-.02-.15-.03-.22-.04-1.35-.19-2.6.76-2.79,2.1-.08.6.1,1.17.46,1.6-.97,1.31-2.53,1.42-3.79,1.51-.49.03-.91.06-1.26.16-1.36.37-2.03,1.44-2.06,1.49l-.45.73.86-.11c.3-.04.6-.05.9-.03.59.04,1.15.21,1.74.38.19.06.39.12.59.17.67.18,1.41.28,2.24.28.24,0,.48,0,.73-.02.02,0,.03,0,.05,0-.31.21-.61.42-.91.65h0c-.2.06-.39.1-.57.12-.06,0-.12.01-.17.02-.09,0-.18,0-.27,0h-.03c-.12,0-.24,0-.35-.02-.41-.04-.78-.12-1.16-.21-.37-.09-.74-.2-1.12-.31l-.57-.17c-.1-.03-.19-.06-.29-.09l-.17-.05-.19-.05c-.39-.1-.78-.17-1.19-.2-.13-.01-.27-.02-.41-.02-.04,0-.08,0-.12,0-.07,0-.13,0-.2,0-.04,0-.08,0-.12,0-.13,0-.26.02-.39.03-.28.03-.55.08-.83.16-.27.07-.54.17-.8.3-.26.12-.51.27-.74.45-.23.18-.44.38-.61.61-.09.11-.16.24-.23.37-.02.03-.03.06-.04.1-.03.06-.06.13-.07.2-.01.03-.02.07-.02.11.11-.02.2-.02.3-.03.02,0,.04,0,.06,0,.09,0,.18,0,.27,0h.14c.24,0,.47.03.68.05.43.05.84.13,1.23.22.39.09.78.18,1.16.28l1.18.3.15.04.17.04c.13.03.26.06.39.09.26.05.54.08.81.1.09,0,.19,0,.28.01h.13c.07,0,.14,0,.21,0l.21-.02c.07,0,.14-.01.21-.02l.21-.03c.07-.02.14-.03.21-.04.06-.01.12-.03.19-.04-.33.37-.64.76-.94,1.17-.16.05-.32.09-.47.12-.11.02-.22.03-.34.04-.03,0-.07,0-.1,0-.04,0-.08,0-.13,0-.05,0-.1,0-.15,0-.46-.02-.88-.1-1.3-.2-.42-.1-.84-.24-1.27-.38-.21-.07-.43-.14-.64-.22-.11-.03-.22-.08-.33-.11l-.18-.06c-.07-.02-.14-.05-.21-.07-.28-.08-.57-.15-.86-.2-.29-.05-.58-.08-.89-.08h0c-.05,0-.1,0-.15,0,0,0-.02,0-.02,0-.11,0-.22,0-.33.01-.02,0-.04,0-.07,0-.11,0-.22.02-.33.03-.15.02-.3.05-.45.08-.15.03-.3.07-.45.12-.07.02-.15.05-.22.08-.19.07-.37.15-.55.24-.18.09-.36.2-.53.32-.14.1-.27.2-.4.31-.06.06-.12.11-.18.18-.12.12-.24.25-.35.39-.05.07-.11.14-.15.22-.1.15-.19.31-.27.47-.07.17-.14.34-.17.53.07-.02.15-.03.22-.05.21-.04.42-.05.61-.06.07,0,.13,0,.2,0,.04,0,.09,0,.13,0,.03,0,.07,0,.1,0,.11,0,.22.01.33.02.48.04.93.12,1.37.22.88.2,1.74.46,2.64.73.06.02.11.03.17.05l.19.06c.14.04.28.08.43.11.15.03.29.06.44.08.15.02.3.04.45.05.07,0,.13,0,.2.01h.06s.07,0,.11,0h.08c.08,0,.15,0,.23,0l.23-.02s.08,0,.12,0l.12-.02.23-.03c.16-.04.31-.07.47-.12.15-.04.31-.1.46-.16.07-.03.15-.07.22-.11.03-.01.06-.03.08-.04-.23.43-.45.87-.65,1.32-.27.17-.53.27-.77.35-.27.08-.53.12-.78.13-.07,0-.15,0-.22,0-.03,0-.06,0-.09,0-.04,0-.09,0-.13,0-.07,0-.14-.01-.21-.02-.04,0-.08,0-.12-.01-.08,0-.15-.02-.23-.03-.04,0-.07-.01-.11-.02-.11-.02-.22-.04-.33-.07-.47-.1-.93-.25-1.41-.42-.12-.04-.24-.08-.35-.13-.12-.04-.24-.09-.36-.14-.09-.03-.19-.07-.28-.11-.03-.01-.05-.02-.08-.03l-.43-.16c-.61-.21-1.25-.35-1.91-.38-.09,0-.17,0-.26,0h0s-.02,0-.03,0c-.1,0-.2,0-.29,0-.03,0-.06,0-.08,0-.11,0-.21.02-.32.03-.17.03-.34.06-.5.09-.17.04-.33.08-.5.14-.66.22-1.3.59-1.86,1.13-.11.11-.21.22-.31.33-.1.11-.19.22-.27.35-.06.08-.12.17-.17.26-.11.17-.2.37-.29.56-.04.1-.08.2-.11.3-.03.1-.06.21-.08.32.16-.06.31-.11.46-.14.15-.04.29-.06.44-.08M89.24,52.69c.09,0,.18,0,.26,0,.44,0,.89-.05,1.4-.17.55-.12,1.09-.31,1.5-.45.11-.04.22-.08.32-.12l.04-.02c.09-.03.18-.07.26-.1.03-.02.07-.03.1-.04.1-.03.18-.07.26-.1.04-.02.08-.03.12-.05l.42-.16c.56-.2,1.12-.31,1.66-.33h.01c.07,0,.14,0,.21,0,.19,0,.39.01.62.04.35.05.6.11.83.19h0s0,0,0,0c.57.19,1.11.52,1.55.94.15.15.28.3.4.45-.08,0-.17,0-.25,0h-.07c-.51,0-1.04.06-1.67.19h0c-.99.2-1.93.5-3.03.9h-.01s-.01.01-.01.01c-.02,0-.05.02-.08.03-.02.01-.05.02-.07.03l-.2.07s-.08.03-.12.04c-.1.03-.2.07-.29.09h0c-.32.08-.59.13-.84.16-.17.02-.34.02-.49.02-.43,0-.83-.06-1.2-.18h-.01c-.59-.18-1.12-.53-1.55-.99-.13-.15-.26-.31-.36-.48.1.01.2.02.31.03M86.51,48.51c.06,0,.12,0,.18,0h0c.46-.02.91-.09,1.47-.22.47-.12.93-.26,1.32-.39h0c.23-.08.44-.15.64-.22.08-.02.15-.05.21-.07.04-.01.08-.03.11-.04l.18-.06.07-.02s.08-.03.11-.03h0s0,0,0,0c.51-.15,1.03-.24,1.53-.25h0s.08,0,.13,0c.19,0,.4.01.63.04.23.04.5.08.76.17h.01c.52.17,1,.44,1.4.79.09.08.18.16.25.25-.08,0-.16.01-.24.02-.45.04-.91.11-1.48.24h0c-.93.21-1.83.48-2.7.75h-.01s-.01,0-.01,0c-.02,0-.04.01-.07.02-.02,0-.04.01-.06.02l-.18.06s-.06.02-.08.02c-.1.03-.2.05-.29.07-.29.06-.54.1-.77.12h-.02c-.11,0-.21.01-.3.01h-.16s-.07,0-.1,0l-.22-.02s-.03,0-.04,0c-.01,0-.03,0-.04,0h-.1s-.2-.04-.2-.04c-.03,0-.07-.02-.1-.02-.1-.02-.18-.04-.26-.06h-.02s-.02-.01-.02-.01c-.11-.03-.23-.08-.36-.13-.13-.06-.25-.11-.35-.17h0s0,0,0,0c-.25-.14-.47-.31-.66-.5-.04-.04-.08-.09-.12-.13-.03-.04-.06-.09-.09-.14h.03ZM83.56,45h0c.49-.04.92-.14,1.28-.23.39-.1.78-.21,1.15-.32l.57-.17c.06-.02.12-.03.17-.05.04-.01.08-.03.11-.03h0s.16-.05.16-.05l.18-.05c.47-.12.95-.18,1.41-.19.03,0,.06,0,.1,0,.19,0,.39.01.62.03.22.03.47.07.7.13h0s0,0,0,0c.44.12.84.31,1.17.54-.48.06-.92.15-1.29.23h0c-.43.1-.82.19-1.19.29l-1.17.31-.15.04-.16.04s-.06.01-.08.02c-.09.02-.18.04-.26.06h0s0,0,0,0c-.25.05-.48.08-.71.09-.11,0-.2,0-.28,0h-.07s-.06,0-.08,0h-.3s0-.02,0-.02h0s-.08,0-.14-.02h0l-.19-.02s-.06-.01-.1-.02c-.09-.02-.17-.03-.24-.05h-.01s-.01,0-.01,0c-.24-.06-.46-.14-.67-.24h0s0,0,0,0c-.18-.09-.35-.19-.5-.31,0,0,0,0-.01-.01.01,0,.02,0,.04,0M66.7,42.58c-.09,0-.18.01-.28.02-1.04.06-1.93-.01-2.71-.22-.19-.05-.39-.11-.57-.17-.61-.18-1.24-.37-1.92-.41,0,0-.02,0-.03,0,.25-.19.57-.37.95-.48.27-.07.65-.1,1.1-.13.69-.05,1.55-.11,2.37-.38.85-.29,1.51-.76,2.01-1.42.2.1.42.17.66.21.45.06.9-.05,1.26-.32,0,0,.01,0,.02,0,.15-.12.28-.25.39-.41.15-.22.25-.47.29-.73.05-.4-.06-.79-.29-1.09-.11-.15-.25-.27-.41-.37-.16-.1-.35-.17-.55-.2-.33-.04-.66.04-.93.24-.27.2-.44.5-.49.83-.03.19.08.37.26.44.03,0,.06.02.09.02.22.03.43-.12.46-.35.01-.12.08-.22.17-.29.09-.07.21-.1.32-.08.35.05.6.38.55.73-.07.5-.53.85-1.03.78-.29-.04-.54-.18-.73-.38-.25-.26-.38-.64-.33-1.03.12-.9.96-1.53,1.87-1.41.11.02.22.04.33.08.14.04.28.11.41.18.15.08.28.18.41.29.34.31.59.73.68,1.19.09.49.07,1.03-.06,1.55-.16.69-.49,1.36-.95,1.86-.73.8-1.91,1.32-3.31,1.45M80.38,37.38c.06.39-.08.76-.33,1.03-.18.2-.44.34-.73.38-.31.04-.6-.07-.8-.29-.12-.13-.2-.3-.23-.49-.03-.23.06-.45.23-.59.09-.07.2-.13.32-.14.12-.02.23.01.32.08.09.07.15.17.17.29.03.22.24.38.46.35.03,0,.06-.01.09-.02.18-.07.29-.25.26-.44-.1-.68-.73-1.16-1.41-1.07-.07.01-.14.03-.21.04-.15.04-.28.11-.41.19-.13.09-.25.2-.35.33-.02.03-.04.06-.06.09-.19.29-.27.64-.22,1,.03.23.11.45.22.64.11.18.25.34.41.47.01.01.03.02.04.03,0,0,0,0,.01,0,.37.27.82.39,1.27.32.24-.03.46-.11.66-.21.5.67,1.16,1.14,2.01,1.42.82.28,1.68.34,2.37.38.44.03.83.06,1.09.13.39.11.7.29.95.48,0,0-.02,0-.02,0-.68.04-1.31.23-1.92.41-.19.06-.38.11-.57.17-.78.21-1.67.29-2.71.22-.09,0-.19-.01-.28-.02-1.4-.14-2.57-.65-3.31-1.45-.46-.5-.79-1.17-.96-1.86-.12-.53-.15-1.07-.06-1.55.12-.61.5-1.14,1.03-1.45.13-.08.27-.14.41-.19.13-.04.26-.08.4-.1h.01c.07-.01.15-.02.22-.02.81,0,1.52.6,1.64,1.42M70.34,34.2h7.37v1.14c-.35.14-.67.34-.95.61-.46.44-.76.99-.88,1.6-.09.47-.09.96-.02,1.46-.52.13-1.15.19-1.88.19-.83,0-1.55-.09-2.14-.27.06-.47.05-.94-.03-1.38-.12-.61-.42-1.16-.88-1.6-.18-.17-.39-.32-.6-.44v-1.31ZM71.68,39.73c.65.19,1.42.29,2.3.29.78,0,1.47-.07,2.06-.21.18.58.46,1.13.82,1.6-.93-.21-1.88-.32-2.86-.32-1.12,0-2.2.14-3.25.41.42-.51.74-1.12.92-1.77M80.45,21.9l1.77-1.43v2.4l-1.16,1.92,1.16-1v1.88l-.99,1.74.99-.9v1.14l-1.77,1.78v-7.54ZM78.41,21.88s.04-.09.09-.09h.87s.09.04.09.09v7.67h-1.05v-7.67ZM78.07,30.35s.02-.04.04-.04h1.66s.04.02.04.04v.73h-1.75v-.73ZM75.75,29.64l.46-.46.79.79.31.31s0,.04,0,.07v.73h-1.55v-1.36s0-.05,0-.07M76.75,28.65l.51-.52.35-.35v1.72l-.86-.86ZM75.62,20.37l1.96-1.59v2.69l-.6.98h0s-.68,1.12-.68,1.12l.5-.43.76-.65.02-.02v2.11l-.78,1.37-.3.53,1.09-1v1.27l-1.23,1.23-.15.15-.58.58v-8.35ZM73.45,20.34c0-.05.04-.09.09-.09h.99c.05,0,.09.04.09.09v8.58h-1.17v-8.58ZM73.06,29.71s.02-.04.04-.04h1.85s.04.02.04.04v1.35s0,0,0,0h-1.94s0,0,0,0v-1.35ZM70.49,25.48l1.09,1-.3-.53-.78-1.37v-2.11l.02.02.76.65.5.43-.68-1.1h0s-.6-1-.6-1v-2.69l1.96,1.59v8.35l-.58-.58-.15-.15-1.23-1.23v-1.27ZM72.31,31.08h-1.55v-.73s0-.04,0-.07l.31-.31.79-.79.46.46s0,.04,0,.07v1.35h0M70.46,27.79l.86.86-.86.86v-1.72ZM68.6,21.88s.04-.09.09-.09h.87c.05,0,.09.04.09.09v7.67h-1.05v-7.67ZM68.25,30.35s.02-.04.04-.04h1.66s.04.02.04.04v.73h-1.75v-.73ZM65.85,27.66v-1.14l.99.9-.99-1.74v-1.88l1.16,1-1.16-1.92v-2.4l1.78,1.43v7.54l-1.78-1.78ZM66.34,31.83h15.4v1.55h-15.4v-1.55ZM62.99,45.57h-.01s-.01,0-.01,0c-.07.02-.15.03-.24.05l-.1.02-.19.02h0c-.06.01-.1.02-.14.02h-.01s-.21.02-.21.02h-.1s-.05,0-.08,0h-.07c-.08,0-.17,0-.28,0h0c-.23-.01-.46-.04-.71-.09h-.01c-.08-.02-.17-.04-.26-.06-.03,0-.06-.01-.08-.02l-.16-.04-.15-.04-1.18-.31c-.37-.1-.76-.19-1.19-.29h0c-.37-.08-.81-.17-1.29-.23.34-.24.74-.43,1.17-.54h.01c.24-.07.48-.11.7-.14.22-.02.43-.03.62-.03.03,0,.07,0,.1,0,.46,0,.94.07,1.41.19l.18.05.16.04h0s.07.02.12.04c.05.02.11.03.17.05l.56.17h0c.37.11.76.22,1.15.32.35.09.79.18,1.28.23h0s.03,0,.04,0c-.15.12-.33.23-.52.32h0c-.21.11-.44.19-.67.25M60.36,49.28h0s0,0,0,0c-.11.06-.22.11-.35.17-.13.05-.25.1-.36.13h-.02s-.02.01-.02.01c-.07.02-.16.04-.26.06-.03,0-.07.02-.11.02l-.2.03h-.1s-.02.02-.04.02c-.02,0-.03,0-.04,0l-.22.02s-.06,0-.1,0h-.15c-.09,0-.2,0-.3-.01h-.02c-.23-.02-.48-.06-.77-.12-.09-.02-.19-.05-.29-.07-.03,0-.06-.02-.09-.02l-.18-.06s-.04-.01-.06-.02c-.03,0-.05-.02-.07-.02h-.01s-.01,0-.01,0c-.87-.27-1.77-.54-2.7-.75h0c-.57-.12-1.03-.2-1.48-.24-.08,0-.16-.01-.24-.02.08-.08.16-.17.26-.25.39-.35.88-.62,1.4-.78h0s0,0,0,0c.25-.08.52-.13.76-.17.24-.03.45-.04.63-.04.04,0,.09,0,.13,0h0c.5.01,1.01.1,1.53.25h.01s.07.02.11.04l.07.02.18.06s.07.03.11.04c.06.02.13.05.21.07.2.07.41.14.64.22h0c.4.13.86.28,1.32.39.55.14,1.01.21,1.47.22.06,0,.13,0,.18,0h.07c-.07.09-.15.18-.24.27-.19.19-.41.36-.66.5M74.01,41.9c3.24,0,6.25,1.29,8.73,3.49.06.06.12.12.18.17.02.02.04.03.06.04.89.82,1.72,1.77,2.45,2.82,0,.02.01.03.02.05.08.17.18.32.3.47.05.07.11.14.17.21,2.14,3.37,3.43,7.65,3.43,12.32,0,10.79-6.88,19.57-15.33,19.57s-15.33-8.78-15.33-19.57,6.88-19.58,15.33-19.58M48.88,52.34c.44-.43.98-.75,1.55-.94h0s0,0,0,0c.23-.08.48-.14.83-.19.23-.03.43-.04.62-.04.07,0,.15,0,.22,0h0c.54.03,1.1.14,1.67.33l.42.16s.07.03.12.05c.07.03.16.07.25.1.03.01.07.02.1.04.08.03.16.07.26.1l.04.02c.11.04.21.08.32.12.4.14.94.33,1.49.45.52.12.96.17,1.4.17.09,0,.18,0,.26,0,.1,0,.21-.01.31-.03-.11.17-.23.33-.36.48-.43.47-.96.81-1.55.99h0s0,0,0,0c-.38.12-.77.18-1.2.18-.16,0-.33,0-.49-.02-.25-.02-.52-.07-.84-.16h0s0,0,0,0c-.09-.02-.18-.05-.28-.09-.04-.01-.08-.03-.13-.04l-.2-.07s-.05-.02-.07-.03c-.03-.01-.06-.02-.08-.03h-.01s-.01-.01-.01-.01c-1.1-.39-2.04-.69-3.03-.9h0c-.62-.12-1.15-.18-1.67-.19h-.07c-.09,0-.17,0-.25,0,.12-.16.25-.3.4-.45"/>
    <path class="cls-1" d="M60.77,68.87c.75,2.24,1.82,4.24,3.18,5.96,2.71,3.43,6.29,5.31,10.06,5.31s7.35-1.89,10.06-5.31c1.36-1.72,2.43-3.72,3.18-5.96.78-2.34,1.18-4.82,1.18-7.39s-.4-5.05-1.18-7.39c-.75-2.24-1.82-4.24-3.18-5.96-2.71-3.43-6.29-5.31-10.06-5.31s-7.35,1.89-10.06,5.31c-1.36,1.72-2.43,3.72-3.18,5.96-.78,2.34-1.18,4.82-1.18,7.39s.4,5.05,1.18,7.39M68.02,61.12v1.04h.72v-1.04h.76v1.04h.72v-1.04h.47l.02.07.34,1.06-.51.8-.21.33h-2.42l-.22-.35-.49-.78.35-1.13h.48ZM80.01,61.12h.54l.29,1.13-.5.78-.22.35h-2.42l-.21-.34-.5-.8.33-1.06.02-.07h.48v1.04h.71v-1.04h.77v1.04h.71v-1.04ZM80.81,67.63h-1.3v-.97c0-.34-.27-.61-.61-.61s-.61.27-.61.61v.97h-1.24v-.22l.3-.28c.06-.06.11-.14.12-.22l.52-2.86h1.89l.52,2.86c.02.08.06.16.12.22l.3.28v.22ZM75.98,69.4v-.95h2.16v.95h-2.16ZM73.01,68.44h2.16v.96h-2.16v-.96ZM70.03,69.4v-.95h2.16v.95h-2.16ZM71.66,66.93l-.33-.31-.15-.8.98-1.33.58.71c.08.1.2.15.32.15.09,0,.18-.03.26-.09.17-.14.2-.4.06-.58l-.44-.54.45-.7c.57.28,1.27.22,1.76,0l1.69,2.34-.15.83-.33.31c-.08.08-.13.18-.13.3v.4h-.58s-.06,0-.08,0-.06,0-.08,0h-2.81s-.06,0-.08,0-.06,0-.08,0h-.73v-.4c0-.11-.04-.22-.13-.3M71.67,62.06l-.27-.87-.08-.26-.14-.46h-.82c.53-1.53,1.99-2.61,3.66-2.61s3.13,1.08,3.66,2.61h-.81l-.15.46-.08.26-.27.87-.09.29.16.26.72,1.13.05.07-.16.87-1.45-2.02c-.07-.1-.18-.16-.3-.17-.12-.01-.24.03-.32.11-.24.23-1.01.36-1.41-.02-.09-.08-.21-.13-.33-.11-.12.01-.23.08-.3.18l-.54.84-.1-.04c-.17-.06-.36,0-.47.14l-.84,1.13-.16-.9.06-.08.72-1.13.16-.26-.09-.29ZM69.5,60.47h-.64c.25-1.01.79-1.93,1.57-2.65.98-.9,2.25-1.39,3.58-1.39s2.6.49,3.58,1.39c.78.71,1.32,1.64,1.57,2.65h-.66c-.56-1.98-2.38-3.4-4.49-3.4s-3.93,1.42-4.49,3.4h-.03ZM67.63,66.9l.52-2.86h1.89l.52,2.86c.02.08.06.16.12.22l.3.28v.22h-1.27s-.02,0-.03,0v-.97c0-.34-.27-.61-.61-.61s-.61.27-.61.61v.97h-1.24v-.22l.3-.28c.06-.06.11-.14.12-.22M66.81,68.44h2.41v.95h-7.39c-.1-.26-.19-.52-.28-.79-.02-.06-.03-.11-.05-.16h5.31ZM86.47,68.61c-.09.27-.18.53-.28.79h-7.22v-.95h7.56c-.02.05-.03.11-.05.16M81.63,67.63v-.4c0-.11-.05-.22-.13-.3l-.33-.31-.52-2.85.03-.04.72-1.13.15-.24-.07-.27-.29-1.13-.13-.49h-1.09c-.26-1.24-.9-2.37-1.85-3.23-1.13-1.03-2.59-1.6-4.11-1.6s-2.99.57-4.11,1.6c-.95.87-1.59,2-1.86,3.23h-.98l-.15.46-.35,1.13-.09.29.16.26.72,1.13.02.03-.52,2.86-.33.31c-.08.08-.13.18-.13.3v.4h-4.59l12.2-18.02,12.16,18.02h-4.54ZM83.43,74.32c-2.56,3.23-5.9,5.01-9.42,5.01s-6.86-1.78-9.42-5.01c-.97-1.22-1.78-2.59-2.43-4.1h23.7c-.65,1.51-1.46,2.88-2.43,4.1M61.55,54.35c.72-2.15,1.74-4.07,3.04-5.71,2.56-3.23,5.9-5.01,9.42-5.01s6.87,1.78,9.42,5.01c1.3,1.64,2.32,3.56,3.04,5.71.76,2.25,1.14,4.65,1.14,7.13,0,1.98-.25,3.9-.73,5.74l-12.53-18.57c-.08-.11-.2-.18-.34-.18s-.26.07-.34.18l-12.55,18.53c-.47-1.83-.72-3.74-.72-5.7,0-2.48.38-4.87,1.14-7.13"/>
    <path class="cls-1" d="M74.01,61.79c.5,0,.95-.24,1.25-.6.22-.27.35-.62.35-1,0-.88-.72-1.6-1.6-1.6s-1.6.72-1.6,1.6c0,.38.13.73.35,1,.3.36.75.6,1.25.6M75.02,60.19c0,.54-.42.97-.95,1-.02,0-.04,0-.06,0s-.04,0-.06,0c-.53-.03-.95-.47-.95-1s.45-1.01,1.01-1.01,1.01.45,1.01,1.01"/>
    <path class="cls-1" d="M99.68,55.59h0s-.01,0-.01,0c-.03-.01-.84-.32-1.97-.26-.76.04-1.49.24-2.18.58-2.06,1.03-2.73,2.79-2.79,2.97-.22.6-.18,1.27.1,1.83.41.83,1.27,1.33,2.2,1.28.31-.02.62-.1.91-.24.18-.09.35-.2.5-.34.32.2.7.3,1.09.27.26-.01.51-.08.75-.2.6-.3.98-.87,1.04-1.5.18-.04.35-.1.51-.19,1.14-.57,1.6-1.96,1.03-3.1-.25-.49-.67-.88-1.18-1.1M99.31,55.78s.05-.01.08-.01c-.03,0-.05,0-.08.01-.01,0-.02,0-.03.01.01,0,.02,0,.03-.01M97.73,55.97h0c.57-.03,1.04.04,1.35.11,0-.08.04-.16.1-.22-.06.06-.1.14-.1.22,0,.03,0,.07,0,.1.14.48-.37.91-.69,1.08-.81.44-1.83-.24-2.34-.9.6-.26,1.18-.37,1.68-.4M95.99,56.27s0,0,0,.01c0,0,0,0,0-.01-.08-.11-.21-.15-.33-.13.12-.03.25.02.33.13M93.34,59.06c.08-.2.58-1.41,1.95-2.29-.02-.05-.03-.1-.04-.15-.03-.07-.02-.15,0-.21-.02.07-.03.14,0,.21.02.05.03.1.04.15.22.8.17,1.99-.65,2.38-.33.16-.97.33-1.28-.06,0-.01-.02-.02-.02-.02,0-.01-.02-.02-.03-.03,0,0,.02.02.03.03h0ZM99.54,59.22c-.21.11-.44.16-.66.17-.08,0-.17,0-.26,0v.02c.18.58-.08,1.22-.64,1.5-.16.08-.33.12-.5.13-.44.02-.87-.18-1.12-.55h0c-.16.28-.4.53-.72.69-.21.11-.44.16-.66.17-.65.03-1.28-.31-1.59-.92-.1-.2-.16-.41-.17-.63-.13-.08-.26-.18-.37-.31-.06-.08-.08-.17-.06-.26-.02.09,0,.18.06.26.11.13.23.24.37.31.24.13.52.18.8.17.32-.02.63-.11.89-.24.53-.26.85-.72,1.01-1.27.03.11.05.21.08.32l.12.5s-.02,0-.03,0c-.15.05-.23.2-.18.35.05.15.2.23.35.18.15-.05.23-.2.18-.35-.03-.09-.1-.15-.17-.18.02-.18.03-.36.05-.54,0-.12.01-.25.02-.38,0-.04,0-.08,0-.13l.19.26.25.33c.11.14.22.29.34.43-.08.07-.11.18-.08.29.04.15.2.23.35.18.15-.04.23-.2.19-.35-.04-.14-.18-.22-.32-.19-.07-.17-.13-.35-.2-.52l-.16-.38-.08-.2s.1.06.15.1c.12.07.23.14.35.2.11.06.22.12.33.18,0,.04,0,.08.01.12.04.15.2.23.35.18.15-.04.23-.2.19-.35-.05-.15-.2-.23-.35-.18-.03.01-.06.03-.08.04-.08-.08-.17-.16-.25-.25-.06-.05-.11-.11-.16-.16.2.05.4.07.59.06.26-.01.52-.08.76-.22.52-.28,1.05-.81,1.05-1.46,0-.11-.01-.23-.04-.35,0-.02-.01-.03-.02-.05,0,.02.02.03.02.05.03.12.05.24.05.35.22.15.41.36.53.62.41.83.08,1.83-.75,2.25"/>
    <path class="cls-1" d="M92.59,57.87c.4-.51.37-1.36.36-1.39,0-.13-.12-.24-.25-.24-.03,0-.86.01-1.38.65-.5.62-.3,1.47-.29,1.51.02.07.06.12.11.16.05.03.11.04.18.03.03,0,.82-.15,1.27-.72M92.15,57.52c-.15.2-.39.31-.56.37,0-.18.02-.45.18-.65.17-.21.41-.3.58-.34-.02.2-.07.46-.2.62"/>
    <path class="cls-1" d="M91.39,60.46c-.2.12-.27.39-.14.59.12.2.39.26.59.14.2-.12.27-.39.14-.59-.12-.2-.39-.27-.59-.14"/>
    <path class="cls-1" d="M92.77,62.92c.2-.12.27-.39.14-.59-.12-.2-.39-.27-.59-.14-.2.12-.27.39-.14.59.12.2.39.27.59.14"/>
    <path class="cls-1" d="M94.13,62.75c-.2.12-.27.39-.14.59.12.2.39.27.59.14.2-.12.27-.39.14-.59-.12-.2-.39-.27-.59-.14"/>
    <path class="cls-1" d="M56.14,59.08s-.04-.04-.07-.06c-.01,0-.02-.01-.03-.02-.02-.01-.03-.02-.05-.03-.01,0-.02,0-.03-.01-.02,0-.03-.01-.05-.02-.01,0-.02,0-.04,0-.02,0-.03,0-.05,0h-.01s-.02,0-.03,0c-.01,0-.02,0-.04,0-.02,0-.03,0-.05.01-.01,0-.02,0-.03.01-.02,0-.03.02-.05.02-.01,0-.02,0-.03.01-.02.02-.05.03-.07.05-.18.17-.2.45-.03.64.02.02.04.04.07.06,0,0,.02,0,.03.02.02.01.03.02.05.03.01,0,.02,0,.03.01.02,0,.03.01.05.02.01,0,.02,0,.04,0,.02,0,.03,0,.05,0h.01s.02,0,.03,0c.01,0,.02,0,.03,0,.02,0,.03,0,.05-.01.01,0,.02,0,.03,0,.02,0,.04-.02.05-.02,0,0,.02,0,.03-.01.03-.01.05-.03.07-.05.18-.17.2-.45.03-.64"/>
    <path class="cls-1" d="M54.43,61.47s.02.01.03.02c.02.01.04.02.06.03.01,0,.02,0,.03.01.02,0,.03.01.06.02.01,0,.02,0,.04,0,.02,0,.03,0,.05,0,0,0,0,0,.01,0,.01,0,.03,0,.04,0,.01,0,.02,0,.04,0,.02,0,.03,0,.05-.01.01,0,.02,0,.03,0,.02,0,.03-.02.05-.03.01,0,.02,0,.03-.01.02-.01.05-.03.07-.05.19-.17.21-.47.03-.66-.02-.03-.05-.05-.07-.07,0,0-.02-.01-.03-.02-.02-.01-.04-.02-.06-.03-.01,0-.02,0-.03-.01-.02,0-.04-.01-.06-.02-.01,0-.03,0-.04,0-.02,0-.04,0-.06,0,0,0,0,0-.01,0-.01,0-.02,0-.04,0-.01,0-.02,0-.04,0-.02,0-.03,0-.05.01-.01,0-.02,0-.03,0-.02,0-.04.02-.05.03,0,0-.02,0-.03.01-.03.02-.05.03-.07.06-.19.17-.21.47-.03.66.02.02.04.04.07.06"/>
    <path class="cls-1" d="M54.86,58.58c.03-.26-.01-.53-.08-.78-.13-.45-.35-.83-.44-.97-.02-.03-.03-.05-.04-.06-.01-.02-.03-.04-.05-.06,0,0-.01-.01-.02-.02-.02-.01-.03-.02-.04-.03,0,0-.02,0-.02-.01-.02,0-.03-.02-.05-.02,0,0-.01,0-.02,0-.02,0-.05-.01-.07-.01h0s0,0,0,0c-.02,0-.05,0-.07,0,0,0-.01,0-.02,0-.03.01-.05.02-.08.03,0,0-.02.02-.05.04-.03.02-.07.05-.12.09-.26.21-.74.67-.89,1.37-.02.06-.03.13-.03.2,0,.06-.01.13-.02.19,0,.06,0,.12,0,.18s.01.12.02.18c.02.12.05.23.09.33.03.08.06.15.09.22.1.22.22.4.32.53.11.15.2.24.21.25.07.07.15.1.24.1.08,0,.16-.03.22-.08,0,0,.02-.02.04-.04.01-.01.03-.03.04-.04.02-.02.04-.04.06-.06.09-.09.2-.23.32-.39.04-.06.09-.13.13-.21.16-.26.29-.59.33-.94M54.2,58.51c-.02.15-.06.3-.12.44-.04.09-.08.17-.13.25-.04.06-.07.12-.11.17-.04.05-.07.1-.11.14-.06-.09-.13-.21-.18-.33-.02-.04-.04-.09-.05-.13-.02-.05-.03-.09-.04-.14-.03-.14-.05-.3-.03-.45.01-.1.04-.19.07-.28.05-.16.13-.3.21-.42.05-.07.11-.14.16-.2.03-.03.05-.06.08-.08.15.29.3.7.26,1.04"/>
    <path class="cls-1" d="M46.07,60c-.08.92.61,1.72,1.52,1.79.04,0,.09,0,.13,0,.02,0,.03,0,.05,0,.03,0,.06,0,.08,0,.04,0,.09,0,.13-.02.03,0,.05,0,.08-.02.05,0,.09-.02.14-.03.02,0,.04-.01.07-.02.07-.02.13-.05.2-.08.27.47.75.78,1.31.83.04,0,.09,0,.14,0,.2,0,.39-.03.57-.1s.35-.17.5-.3c.05-.04.1-.09.14-.13.13-.14.24-.31.31-.48.1.05.21.08.32.11.14.03.29.05.44.05.08,0,.17,0,.26-.01.04,0,.09,0,.13-.02l.59-.08-.38-.46c-.07-.08-1.63-2.02-.04-4.44l.12-.19-.13-.18s-.01-.01-.02-.02c0,0,0,0,0,0-.01-.01-.02-.03-.04-.05,0,0,0,0-.01-.01-.02-.02-.03-.04-.06-.07h0s-.05-.06-.08-.09c0,0-.01-.01-.02-.02-.03-.03-.07-.06-.1-.1,0,0-.01-.01-.02-.02-.04-.03-.08-.07-.12-.11,0,0,0,0,0,0-.04-.04-.1-.07-.15-.11-.01,0-.02-.01-.03-.02-.05-.04-.11-.08-.17-.12,0,0-.02-.01-.03-.02-.06-.04-.12-.07-.19-.11,0,0-.02,0-.02-.01-.07-.04-.15-.08-.22-.11-.02,0-.03-.02-.05-.02-.08-.04-.16-.07-.25-.11-.01,0-.02,0-.03-.01-.08-.03-.17-.06-.26-.09-.01,0-.02,0-.04-.01-.1-.03-.19-.05-.29-.08-.02,0-.04-.01-.07-.02-.1-.02-.21-.04-.32-.06-.01,0-.03,0-.04,0-.11-.02-.22-.03-.33-.04-.02,0-.04,0-.06,0-.12,0-.25-.01-.38-.01h-.09c-.09,0-.18,0-.28,0-.02,0-.05,0-.07,0-.12,0-.24.02-.36.03-.03,0-.06,0-.09.01-.1.01-.2.03-.3.04-.04,0-.08.01-.11.02-.13.02-.27.05-.41.08l-.17.04-.06.17c-.09.24-.14.62-.07,1.01-.75.11-1.35.73-1.41,1.51-.04.52.16,1.02.53,1.36-.22.26-.36.59-.39.94M47.99,55.57c.14-.03.28-.05.41-.07.04,0,.08-.01.12-.02.09-.01.18-.02.27-.03.04,0,.09,0,.13-.01.08,0,.17-.01.25-.01.04,0,.07,0,.11,0h.05c.09,0,.18,0,.26,0,0,0,.01,0,.02,0,.11,0,.21.02.31.03.03,0,.06,0,.09.01.07,0,.14.02.2.03.03,0,.06.01.09.02.06.01.13.03.18.04.03,0,.05.01.08.02.08.02.16.04.23.07h0c.08.03.15.06.22.09.02,0,.04.02.06.02.05.02.1.04.14.07.02,0,.04.02.06.03.04.02.08.04.12.07.02,0,.03.02.05.03.05.03.1.06.15.09,0,0,0,0,0,0,.05.03.09.06.14.1.01.01.02.02.04.03.03.02.06.04.08.06.01.01.03.02.04.03.02.02.04.04.07.06.01,0,.02.02.03.02.03.02.05.05.07.07-.32.54-.51,1.06-.6,1.55-.06.29-.08.57-.07.84,0,.49.1.94.22,1.32.02.08.05.15.08.22.08.21.17.39.25.55-.14-.03-.26-.08-.36-.15,0,0-.02-.01-.02-.02-.08-.06-.14-.13-.18-.21-.05-.07-.08-.14-.1-.21h0c-.04-.12-.05-.21-.05-.21l-.02-.32h-.26s-.06,0-.06,0h-.03c-.06,0-.11,0-.16,0-.13-.02-.25-.06-.34-.12h0s-.08-.06-.11-.1c-.04-.05-.08-.1-.11-.16-.1-.2-.13-.45-.13-.63,0-.08,0-.14,0-.18l.05-.33h0s.01-.08.01-.08h-.03s-.38.03-.38.03c-.05,0-.09,0-.13,0h-.03s-.04,0-.06,0c-.04,0-.07,0-.1-.01-.02,0-.04,0-.05-.01-.03,0-.06-.02-.09-.03-.01,0-.03,0-.04-.01-.04-.02-.08-.04-.11-.06-.02-.02-.05-.04-.07-.06,0,0-.01-.01-.02-.02-.07-.09-.11-.2-.13-.31,0-.03-.01-.07-.02-.1,0-.07,0-.13,0-.18,0-.03,0-.06,0-.08,0-.02,0-.04,0-.06,0-.02,0-.04,0-.05l.03-.17.02-.08-.23-.11c-.18-.09-.31-.2-.41-.31-.1-.12-.17-.24-.21-.36-.04-.12-.06-.24-.06-.35,0-.11,0-.2.02-.28M48.55,58.55h0c.05.05.11.09.16.13.06.04.12.07.19.1.13.06.28.09.45.11.01.24.06.56.21.85-.04,0-.08.01-.12.01h-.01s-.05,0-.07,0c-.12-.01-.24-.04-.35-.1-.11-.06-.2-.13-.28-.23-.08-.09-.14-.2-.18-.31-.04-.11-.05-.24-.04-.36,0-.07.02-.13.04-.2M46.59,57.75c0-.07.02-.13.03-.19,0-.02.02-.04.02-.06.01-.04.03-.08.05-.12.01-.02.03-.04.04-.06.02-.03.04-.06.06-.09.02-.02.03-.04.05-.06.02-.03.04-.06.07-.08.02-.02.04-.03.06-.05.03-.02.05-.04.08-.06.02-.02.05-.03.07-.04.03-.02.06-.03.09-.04.03-.01.05-.02.08-.02.03-.01.06-.02.1-.03.03,0,.06,0,.09,0s.06-.01.09-.01h.02s.07.1.11.14c.12.14.26.26.44.38,0,.07,0,.14,0,.22,0,.08.01.17.03.26-.19.24-.31.54-.33.85-.01.16,0,.32.03.47.05.25.17.49.34.69.07.08.15.16.23.22.25.19.54.31.86.34.04,0,.09,0,.13,0,.17,0,.34-.03.49-.08.05-.02.1-.04.15-.06.08.04.17.08.26.11.09.03.19.05.29.06.03.1.08.23.15.35.03.06.07.13.12.19h0c-.01.06-.03.11-.04.16-.02.05-.04.1-.07.15-.06.09-.13.18-.21.25-.05.04-.1.07-.15.11-.02.01-.04.02-.06.03-.04.02-.07.03-.11.05-.02,0-.04.01-.07.02-.04,0-.07.02-.11.02-.03,0-.05,0-.08,0-.02,0-.04,0-.07,0-.03,0-.05,0-.08,0-.43-.03-.78-.34-.89-.75l-.14-.54-.41.38c-.05.04-.1.08-.16.12-.02.01-.04.02-.06.03-.04.02-.08.04-.12.05-.02.01-.05.02-.07.02-.04.01-.08.02-.12.03-.03,0-.05,0-.08,0-.02,0-.04,0-.07,0-.03,0-.06,0-.08,0-.55-.04-.96-.53-.91-1.07,0-.04,0-.08.02-.11.02-.11.06-.22.12-.31.04-.06.08-.12.13-.18.05-.06.11-.1.17-.15l.48-.32-.52-.26c-.09-.04-.17-.1-.25-.17-.04-.03-.07-.07-.1-.11-.12-.16-.19-.34-.21-.54,0-.05,0-.1,0-.15"/>
    <path class="cls-1" d="M56.35,57.53c.04-.08.05-.17.03-.25h0c-.01-.09-.05-.17-.11-.24-.02-.02-.04-.04-.07-.06-.01,0-.02-.01-.03-.02-.02-.01-.03-.02-.05-.03-.01,0-.02,0-.03-.01-.02,0-.03-.01-.05-.02-.01,0-.02,0-.04,0-.02,0-.03,0-.05,0h-.01s-.02,0-.03,0c-.01,0-.02,0-.03,0-.02,0-.03,0-.05.01-.01,0-.02,0-.03.01-.02,0-.03.02-.05.02,0,0-.02,0-.03.01-.02.01-.05.03-.07.05h0c-.07.06-.11.14-.13.23-.03.14,0,.3.1.41.02.02.04.04.07.06,0,0,.02,0,.03.02.02.01.04.02.06.03.01,0,.02,0,.03.01.02,0,.03.01.05.02.01,0,.02,0,.04,0,.02,0,.03,0,.05,0h.01s.03,0,.04,0c.01,0,.03,0,.04,0,.02,0,.03,0,.05-.01.01,0,.02,0,.03,0,.02,0,.03-.02.05-.02.01,0,.02,0,.03-.01.03-.02.05-.03.07-.05.05-.04.08-.09.11-.15Z"/>
    <path class="cls-1" d="M63.48,56.68h2.95c.58-.01,1.06-.49,1.06-1.08,0-.28-.11-.55-.31-.75-.16-.17-.37-.28-.6-.31-.08-.12-.17-.22-.27-.31h0c-.13-.12-.28-.22-.44-.29-.16-.07-.32-.12-.49-.14-.07,0-.14-.01-.21-.01-.58,0-1.12.29-1.43.77-.04,0-.08-.02-.12-.02h-.04s-.05,0-.08,0h-.01c-.27,0-.52.11-.71.28-.19.17-.32.41-.35.68-.03.28.05.54.2.75.2.27.51.44.86.45M63.1,55.42s.05-.08.08-.12c.03-.03.07-.06.12-.08.04-.02.09-.04.14-.04.02,0,.04,0,.06,0h0s.07,0,.1.02h.02s.07.03.1.05c.01,0,.02.02.04.02l.08.06s.04.02.07.03c0,0,.01,0,.02,0,0,0,.01,0,.02,0,.02,0,.03,0,.05,0h0s.04-.02.06-.04c0,0,.01,0,.01-.01.02-.02.03-.04.04-.06l.04-.1s.03-.07.04-.11c.18-.37.56-.61.97-.61.09,0,.18.01.27.03.13.03.25.09.36.17s.2.18.28.3c.02.04.04.07.06.11l.07.16h.17s.03-.02.04-.02c.02,0,.04,0,.06,0,.25.03.42.27.36.53,0,.03-.02.05-.02.07-.04.09-.11.17-.2.21-.07.03-.14.06-.22.06h-2.91c-.19,0-.35-.12-.41-.3-.02-.06-.03-.12-.02-.19,0-.05.02-.1.04-.14"/>
    <path class="cls-1" d="M67.46,49.96h2.95c.58-.01,1.06-.49,1.06-1.08,0-.07,0-.14-.02-.21-.02-.1-.06-.2-.1-.29-.05-.09-.11-.18-.18-.25-.16-.17-.37-.28-.6-.31-.21-.31-.51-.54-.86-.66-.11-.04-.23-.07-.36-.08-.07-.01-.14-.01-.21-.01-.59,0-1.12.29-1.43.77-.04,0-.08-.02-.12-.02h-.04s-.05,0-.07,0h-.01c-.54,0-1,.42-1.06.96-.07.64.43,1.19,1.06,1.19M67.22,48.53c.06-.04.13-.07.2-.08.02,0,.04,0,.06,0h0s.07,0,.1.02c0,0,.01,0,.02,0,.03,0,.07.02.1.04.01,0,.02.02.03.02l.08.06s.04.02.07.03h.02s.01,0,.02,0c.02,0,.03,0,.05,0h0s.04-.02.06-.03c0,0,0,0,.01-.01.02-.02.03-.04.04-.06l.03-.1s.03-.07.04-.11c.18-.37.56-.61.97-.61.09,0,.18.01.27.03.26.07.49.23.64.47.02.03.04.07.06.1l.08.16h.17s.03-.02.04-.02c.02,0,.04,0,.06,0,.15.02.28.12.34.26.02.05.04.11.04.17,0,.03,0,.06-.01.1-.01.05-.03.1-.06.14-.08.12-.22.2-.38.2h-2.91c-.26,0-.46-.22-.43-.48.01-.12.08-.23.17-.3"/>
    <path class="cls-1" d="M81.02,54.86c-.2.2-.31.47-.31.75,0,.58.48,1.07,1.06,1.08h2.95c.43,0,.8-.26.97-.64.08-.17.11-.36.09-.56-.01-.13-.05-.26-.11-.38-.18-.35-.54-.58-.95-.58h-.01s-.05,0-.08,0h-.04s-.08.01-.12.02c-.32-.48-.85-.77-1.43-.77-.07,0-.14,0-.21.01-.49.06-.94.33-1.21.75-.23.04-.44.15-.6.31M81.79,55.17s.03,0,.04,0h.17s.08-.14.08-.14c.02-.03.04-.07.06-.11.07-.12.17-.22.27-.3s.23-.13.36-.17c.09-.02.18-.03.27-.03.41,0,.79.24.97.61.02.03.03.07.04.11l.03.1s.02.04.04.06c0,0,0,0,.01.01.02.02.04.03.06.04h0s.03,0,.05,0c0,0,.01,0,.02,0,0,0,.01,0,.02,0,.02,0,.05-.02.07-.03l.08-.06s.02-.02.03-.03c.03-.02.07-.03.1-.04,0,0,.02,0,.02,0,.03-.01.06-.02.1-.02h0s.04,0,.06,0c.2.03.36.19.38.39.03.26-.18.48-.43.48h-2.91c-.08,0-.15-.02-.22-.06-.09-.04-.16-.12-.2-.21-.01-.02-.02-.05-.02-.07-.01-.06-.01-.12,0-.18.03-.12.1-.22.2-.28.05-.03.11-.05.17-.06.02,0,.04,0,.06,0"/>
    <path class="cls-1" d="M77.79,49.96h2.95c.63,0,1.13-.55,1.06-1.19-.02-.13-.06-.26-.12-.38-.16-.3-.45-.52-.8-.57-.05,0-.1-.01-.15-.01h-.01s-.05,0-.07,0c-.01,0-.03,0-.04,0-.04,0-.08.01-.12.02-.32-.48-.85-.77-1.43-.77-.21,0-.42.04-.62.12-.05.02-.1.04-.14.06-.09.05-.18.1-.27.16-.04.03-.08.07-.12.1-.11.1-.2.2-.28.32-.06.01-.11.02-.17.04-.12.04-.22.1-.32.17-.04.03-.08.06-.11.1-.05.05-.09.11-.13.16-.11.17-.17.38-.17.59,0,.58.48,1.06,1.06,1.08M77.51,48.56c.06-.06.15-.1.24-.11h0s.04,0,.06,0c.01,0,.03,0,.04,0h.17s.07-.14.07-.14c.02-.03.04-.07.06-.1.15-.24.38-.4.64-.47.09-.02.18-.03.27-.03.41,0,.79.24.97.61.02.03.03.07.05.11l.03.1s.02.04.04.06h.01s.04.04.06.05h0s.03,0,.05,0c0,0,.01,0,.02,0h.02s.05-.02.07-.03l.08-.06s.02-.02.03-.03c.03-.02.07-.03.1-.04,0,0,.01,0,.02,0,.03,0,.07-.01.1-.01h0s.04,0,.06,0c.07.01.14.04.2.08.1.07.16.18.17.3.03.26-.17.48-.43.48h-2.91c-.2,0-.39-.14-.43-.34-.04-.16.02-.31.13-.41"/>
    <path class="cls-1" d="M99.08,85.03l-2.89-1.7v-6.82c.58-.6.91-1.43.83-2.33,0-.02,0-.04-.01-.06.13.01.26.02.39.02.11,0,.23,0,.34-.02.98-.09,1.87-.55,2.49-1.31.63-.75.92-1.71.84-2.69-.13-1.38-1.04-2.57-2.3-3.08-.15-1.54-1.42-2.7-2.97-2.7-.09,0-.18,0-.27.01-1.45.13-2.57,1.29-2.7,2.69-1.49.59-2.45,2.1-2.3,3.75.02.17.04.34.08.5-.06.15-.1.31-.12.47-1.13.5-1.84,1.68-1.73,2.96.14,1.52,1.4,2.68,2.93,2.68.09,0,.18,0,.27-.01.18-.02.36-.05.54-.1v3.87l-5.98-3.53-13.01,8.4-13.6-9.28-4,2.17v-2.82h2.62c.27,0,.53-.15.67-.38.14-.24.14-.53,0-.77l-.78-1.38c.09-.06.17-.15.23-.25.14-.24.14-.53,0-.77l-.67-1.18s.01-.02.02-.03c.14-.24.14-.53,0-.77l-.67-1.19c.11-.23.11-.5-.02-.72l-.61-1.07-.61-1.08c-.14-.24-.4-.39-.68-.39s-.54.15-.67.39l-1.21,2.15c-.12.22-.13.49-.02.72l-.21.36-.86-1.52s.01-.02.02-.03c.14-.24.14-.53,0-.77l-1.48-2.62c-.14-.24-.39-.39-.67-.39s-.54.15-.68.39l-1.48,2.62c-.13.24-.13.53,0,.77,0,.01.01.02.02.03l-.87,1.54c-.13.24-.13.53,0,.77.03.06.07.1.11.15l-.85,1.51c-.13.24-.13.53,0,.77.1.17.27.3.46.35l-1.02,1.81c-.13.24-.13.53,0,.77.14.24.39.38.67.38h3.31v5.79s0,.05,0,.07l-2.82,1.53c4.48,7.63,12.49,13.26,21.59,14.8l.81-.69c-3.77-.55-7.69-1.93-10.98-3.84-4.19-2.44-7.74-5.88-10.3-9.98l11.59-6.21,15.57,10.68c.07.05.15.07.23.07.13,0,.26-.06.34-.17.13-.18.08-.44-.1-.56l-1.75-1.22,12.3-7.91,11.39,6.71-.16.23c-2.68,3.68-6.2,6.83-10.25,8.96-2.11,1.1-4.34,1.96-6.65,2.53-1.29.32-2.33.45-3.65.6l.84.71c8.61-1.17,15.5-5.82,20.56-12.58.05-.06.1-.13.14-.2.12-.17.24-.34.36-.52M50.41,70.69c-.21,0-.39.17-.39.39v.94l-.42-.49c-.14-.16-.38-.18-.55-.04-.16.14-.18.38-.04.54l1.01,1.19v2.25h-3.31l1.66-2.94h-1.1l1.37-2.43h-.63l1.16-2.06.16-.28h-.47l1.48-2.62,1.48,2.62h-.47l.16.28,1.16,2.06h-.58l.77,1.37.44.79.15.27h-.99l.65,1.16.14.25.77,1.37.09.15h-3.31v-.58l1.04-1.22c.14-.16.12-.41-.04-.55-.16-.14-.41-.12-.55.04l-.45.52v-2.61c0-.21-.17-.39-.39-.39M55.13,79.33l-4.33,2.35v-5.44h3.31c.17,0,.32-.06.45-.15h.57v3.25ZM55.52,70.87c-.21,0-.39.17-.39.39v.39l-.1-.12c-.14-.16-.38-.18-.55-.04-.16.14-.18.38-.04.54l.69.82v2.47h-.27c-.01-.08-.04-.16-.08-.23l-1.04-1.84c.15-.06.28-.17.37-.32.14-.24.14-.53,0-.77l-.38-.68.31-.55h-.52l.95-1.69.13-.23h-.39l1.21-2.15.61,1.08.61,1.08h-.39l.13.23.95,1.69h-.48l1.12,1.99h-.81l1.36,2.41h-2.62v-.65l.67-.79c.14-.16.12-.41-.04-.55-.16-.14-.41-.12-.54.04l-.08.1v-2.21c0-.21-.17-.39-.39-.39M93.61,67.63s-.01-.06-.01-.09c-.11-1.21.78-2.28,1.99-2.39.07,0,.13-.01.2-.01,1.12,0,2.08.86,2.19,2,.02.17.01.33-.01.49,1.22.25,2.19,1.27,2.31,2.57.15,1.59-1.03,3-2.61,3.14-.09,0-.18.01-.27.01-.21,0-.42-.02-.62-.07-.15-.33-.35-.63-.59-.89v-.45l1.44-1.24c.17-.14.18-.39.04-.56-.14-.17-.39-.18-.56-.04l-.92.8v-2.27c0-.22-.18-.4-.4-.4s-.4.18-.4.4v.83l-.83-.71c-.16-.14-.41-.12-.56.04-.14.17-.12.41.04.56l1.35,1.16v1.32s-.07-.04-.11-.06c-.17-1.19-1.18-2.08-2.4-2.08-.07,0-.15,0-.22,0-.51.05-.98.25-1.36.58.08-1.29,1.03-2.39,2.31-2.65M95.39,82.86l-2.12-1.25v-4.33c.26.07.53.12.8.12.09,0,.18,0,.27-.01.37-.03.72-.14,1.04-.3v5.78ZM95.99,75.45s-.05.09-.08.13l-.02.03s-.06.09-.09.13l-.02.03s-.07.08-.1.12c0,0-.01.01-.02.02-.04.04-.08.08-.12.12,0,0,0,0-.01.01-.04.04-.09.08-.14.11-.31.24-.69.4-1.12.44-.07,0-.13,0-.2,0-.28,0-.55-.06-.8-.16v-.84l1.04-.9c.16-.14.18-.39.04-.56-.14-.16-.39-.18-.56-.04l-.52.45v-1.47c0-.22-.17-.4-.39-.4s-.39.18-.39.4v.4l-.45-.39c-.17-.14-.41-.12-.56.04-.14.17-.12.42.04.56l.97.83v1.92c-.19.08-.39.13-.61.15-.07,0-.13,0-.2,0-1.1,0-2.04-.84-2.14-1.96-.1-1.03.55-1.96,1.5-2.25.07-.02.14-.04.22-.06h0s0-.05-.01-.07c0-.08,0-.15,0-.22,0-.02,0-.03,0-.05,0-.07.01-.14.03-.21h0c.02-.08.04-.15.06-.22,0,0,0-.02,0-.02.03-.07.06-.13.09-.2.25-.47.73-.82,1.3-.87.05,0,.1,0,.15,0,.84,0,1.55.64,1.63,1.49.01.13,0,.25,0,.37.33.07.63.21.89.4.09.07.17.14.25.22.06.06.11.12.16.19.01.01.02.03.03.04.04.06.08.11.11.17.01.02.02.04.03.06.04.07.07.14.1.22,0,.02.02.04.02.07.02.06.04.12.06.18,0,.03.02.07.03.1.02.09.03.17.04.27.02.23,0,.45-.04.67-.04.18-.1.35-.18.5,0,0-.01.02-.02.03"/>
    <path class="cls-1" d="M72.97,98.45l7.22,6.13c.16.13.34.21.54.25.01,0,.03,0,.04,0,.07,0,.15.01.22,0,.07,0,.14-.02.21-.04.21-.06.39-.17.54-.34.15-.17.23-.37.26-.58,0-.07.01-.14,0-.21-.01-.17-.06-.33-.15-.47-.06-.1-.14-.19-.23-.27l-6.54-5.55,5.21-4.42.26.29c.16.18.39.28.62.28h.91s.02,0,.02,0c.38,0,.69-.28.73-.66l.1-.9c.03-.23-.05-.47-.22-.65l-2.08-2.26c-.3-.34-.81-.38-1.13-.1l-1.01.89c-.32.28-.33.79-.03,1.13l.34.37-5.41,4.6-5.45-4.62.18-.21s.07-.08.09-.12l.06-.06c.16-.18.24-.41.22-.64l-.08-.86c-.04-.38-.35-.66-.74-.65h-.88c-.23.01-.45.12-.62.3l-1.78,1.97s-.07.08-.1.13l-.02.02c-.16.18-.24.41-.21.64l.09.86c.04.34.3.6.64.64.03,0,.06,0,.1,0h.87c.23,0,.46-.11.62-.28l.1-.11,6.31,5.36-6.7,5.69c-.06.06-.15.08-.23.08-.08,0-.16-.05-.22-.11-.06-.06-.08-.15-.07-.23,0-.08.04-.16.11-.22l6.23-5.29.39-.34-.59-.51-6.54,5.55c-.09.08-.17.17-.23.27-.08.14-.14.3-.15.47,0,.07,0,.14,0,.21.03.21.11.41.26.58.15.17.33.28.54.34.07.02.14.03.21.04.07,0,.15,0,.22,0,.01,0,.03,0,.04,0,.2-.03.38-.12.53-.25l6.4-5.44h0s.39-.33.39-.33l-.43-.36ZM80.01,89.54s.03,0,.05.03l2.08,2.26s.03.04.03.06l-.1.87h-.89s0,0,0,0c-.01,0-.03,0-.05-.03l-1.24-1.36-.83-.9s-.02-.04-.02-.05l.99-.87ZM74,96.45l5.34-4.53.43.47-5.28,4.48-.92-.78.43.36ZM66.72,91.53l-.11.12-.19.21-.26.29-.26.29-.09.1s-.03.02-.04.02h-.83s-.09-.82-.09-.82c0,0,0-.02.02-.04l.08-.08.02-.04s.01-.02.01-.02l1.78-1.97s.04-.03.04-.03h.84s.08.81.08.81c0,0,0,.03-.02.05l-.11.13-.02.04s0,.02,0,.02l-.2.22-.26.29-.26.29-.12.13ZM67.01,92.37l.2-.21.11-.12.13-.14,13.68,11.61c.06.06.1.13.11.22,0,.08-.02.17-.07.23-.06.06-.13.1-.22.11-.09,0-.17-.02-.24-.08l-13.69-11.62Z"/>
    <path class="cls-1" d="M62.81,89.48c.22,0,.39-.17.39-.39v-5.75h-5.95v5.75c0,.21.17.39.39.39s.39-.17.39-.39v-3.42h.78v3.42c0,.21.17.39.39.39s.39-.17.39-.39v-.21h1.29v.21c0,.21.17.39.39.39s.39-.17.39-.39v-3.42h.77v3.42c0,.21.17.39.39.39M58.03,84.12h4.4v.77h-4.4v-.77Z"/>
    <path class="cls-1" d="M89.38,89.48c.21,0,.39-.17.39-.39v-5.75h-5.95v5.75c0,.21.17.39.39.39s.39-.17.39-.39v-3.42h.77v3.42c0,.21.17.39.39.39s.39-.17.39-.39v-.21h1.29v.21c0,.21.17.39.39.39s.39-.17.39-.39v-3.42h.78v3.42c0,.21.17.39.39.39M84.59,84.12h4.4v.77h-4.4v-.77Z"/>
  </g>
  <polygon class="cls-2" points="12.71 121.57 4.37 121.57 4.37 114.73 0 114.73 0 132.4 4.37 132.4 4.37 125.36 12.71 125.36 12.71 132.4 17.07 132.4 17.07 114.73 12.71 114.73 12.71 121.57"/>
</svg>